Bungee-Shade.ufo
<glyph name="exclam" format="1">
  <advance width="524"/>
  <unicode hex="0021"/>
  <outline>
    <contour>
      <point x="290" y="-119" type="line" smooth="yes"/>
      <point x="304" y="-119"/>
      <point x="315" y="-115"/>
      <point x="322" y="-109" type="curve"/>
      <point x="452" y="-1" type="line" smooth="yes"/>
      <point x="460" y="7"/>
      <point x="465" y="18"/>
      <point x="465" y="36" type="curve" smooth="yes"/>
      <point x="465" y="167" type="line" smooth="yes"/>
      <point x="465" y="200"/>
      <point x="451" y="213"/>
      <point x="419" y="213" type="curve" smooth="yes"/>
      <point x="379" y="213" type="line"/>
      <point x="438" y="262" type="line" smooth="yes"/>
      <point x="446" y="270"/>
      <point x="451" y="281"/>
      <point x="452" y="297" type="curve" smooth="yes"/>
      <point x="466" y="684" type="line" smooth="yes"/>
      <point x="467" y="716"/>
      <point x="454" y="730"/>
      <point x="422" y="730" type="curve" smooth="yes"/>
      <point x="231" y="730" type="line" smooth="yes"/>
      <point x="217" y="730"/>
      <point x="207" y="727"/>
      <point x="200" y="721" type="curve" smooth="yes"/>
      <point x="71" y="613" type="line" smooth="yes"/>
      <point x="62" y="605"/>
      <point x="57" y="593"/>
      <point x="58" y="574" type="curve" smooth="yes"/>
      <point x="73" y="189" type="line" smooth="yes"/>
      <point x="74" y="157"/>
      <point x="88" y="143"/>
      <point x="120" y="143" type="curve" smooth="yes"/>
      <point x="131" y="143" type="line"/>
      <point x="73" y="95" type="line" smooth="yes"/>
      <point x="65" y="88"/>
      <point x="60" y="76"/>
      <point x="60" y="58" type="curve" smooth="yes"/>
      <point x="60" y="-73" type="line" smooth="yes"/>
      <point x="60" y="-105"/>
      <point x="74" y="-119"/>
      <point x="106" y="-119" type="curve" smooth="yes"/>
    </contour>
    <contour>
      <point x="404" y="262" type="curve" smooth="yes"/>
      <point x="249" y="262" type="line" smooth="yes"/>
      <point x="224" y="262"/>
      <point x="213" y="273"/>
      <point x="212" y="298" type="curve" smooth="yes"/>
      <point x="197" y="684" type="line" smooth="yes"/>
      <point x="196" y="709"/>
      <point x="206" y="720"/>
      <point x="231" y="720" type="curve" smooth="yes"/>
      <point x="422" y="720" type="line" smooth="yes"/>
      <point x="447" y="720"/>
      <point x="457" y="709"/>
      <point x="456" y="684" type="curve" smooth="yes"/>
      <point x="442" y="298" type="line" smooth="yes"/>
      <point x="441" y="273"/>
      <point x="429" y="262"/>
    </contour>
    <contour>
      <point x="419" y="0" type="curve" smooth="yes"/>
      <point x="235" y="0" type="line" smooth="yes"/>
      <point x="210" y="0"/>
      <point x="199" y="11"/>
      <point x="199" y="36" type="curve"/>
      <point x="199" y="167" type="line"/>
      <point x="199" y="193"/>
      <point x="210" y="203"/>
      <point x="235" y="203" type="curve" smooth="yes"/>
      <point x="419" y="203" type="line" smooth="yes"/>
      <point x="444" y="203"/>
      <point x="455" y="193"/>
      <point x="455" y="167" type="curve" smooth="yes"/>
      <point x="455" y="36" type="line" smooth="yes"/>
      <point x="455" y="11"/>
      <point x="444" y="0"/>
    </contour>
    <contour>
      <point x="322" y="630" type="line"/>
      <point x="322" y="352" type="line"/>
      <point x="332" y="352" type="line"/>
      <point x="332" y="630" type="line"/>
    </contour>
    <contour>
      <point x="332" y="80" type="line"/>
      <point x="332" y="123" type="line"/>
      <point x="322" y="123" type="line"/>
      <point x="322" y="80" type="line"/>
    </contour>
  </outline>
</glyph>
<glyph name="quotedbl" format="1">
  <advance width="746"/>
  <unicode hex="0022"/>
  <outline>
    <contour>
      <point x="265" y="235" type="curve" smooth="yes"/>
      <point x="340" y="298" type="line"/>
      <point x="340" y="277" type="line" smooth="yes"/>
      <point x="341" y="233"/>
      <point x="349" y="226"/>
      <point x="392" y="226" type="curve" smooth="yes"/>
      <point x="536" y="226" type="line" smooth="yes"/>
      <point x="556" y="226"/>
      <point x="567" y="229"/>
      <point x="575" y="235" type="curve" smooth="yes"/>
      <point x="704" y="343" type="line" smooth="yes"/>
      <point x="712" y="351"/>
      <point x="716" y="362"/>
      <point x="717" y="385" type="curve" smooth="yes"/>
      <point x="725" y="679" type="line" smooth="yes"/>
      <point x="726" y="723"/>
      <point x="719" y="730"/>
      <point x="676" y="730" type="curve" smooth="yes"/>
      <point x="511" y="730" type="line" smooth="yes"/>
      <point x="492" y="730"/>
      <point x="480" y="728"/>
      <point x="473" y="722" type="curve" smooth="yes"/>
      <point x="415" y="673" type="line"/>
      <point x="415" y="679" type="line" smooth="yes"/>
      <point x="416" y="723"/>
      <point x="409" y="730"/>
      <point x="366" y="730" type="curve" smooth="yes"/>
      <point x="201" y="730" type="line" smooth="yes"/>
      <point x="182" y="730"/>
      <point x="170" y="728"/>
      <point x="163" y="722" type="curve" smooth="yes"/>
      <point x="33" y="613" type="line" smooth="yes"/>
      <point x="24" y="605"/>
      <point x="21" y="594"/>
      <point x="22" y="569" type="curve" smooth="yes"/>
      <point x="30" y="277" type="line" smooth="yes"/>
      <point x="31" y="233"/>
      <point x="39" y="226"/>
      <point x="82" y="226" type="curve" smooth="yes"/>
      <point x="226" y="226" type="line" smooth="yes"/>
      <point x="246" y="226"/>
      <point x="257" y="229"/>
    </contour>
    <contour>
      <point x="665" y="345" type="curve" smooth="yes"/>
      <point x="521" y="345" type="line" smooth="yes"/>
      <point x="486" y="345"/>
      <point x="480" y="351"/>
      <point x="479" y="386" type="curve" smooth="yes"/>
      <point x="471" y="679" type="line" smooth="yes"/>
      <point x="470" y="714"/>
      <point x="476" y="720"/>
      <point x="511" y="720" type="curve" smooth="yes"/>
      <point x="676" y="720" type="line" smooth="yes"/>
      <point x="710" y="720"/>
      <point x="716" y="714"/>
      <point x="715" y="679" type="curve" smooth="yes"/>
      <point x="707" y="386" type="line"/>
      <point x="705" y="351"/>
      <point x="700" y="345"/>
    </contour>
    <contour>
      <point x="355" y="345" type="curve" smooth="yes"/>
      <point x="211" y="345" type="line" smooth="yes"/>
      <point x="176" y="345"/>
      <point x="170" y="351"/>
      <point x="169" y="386" type="curve" smooth="yes"/>
      <point x="161" y="679" type="line" smooth="yes"/>
      <point x="160" y="714"/>
      <point x="166" y="720"/>
      <point x="201" y="720" type="curve" smooth="yes"/>
      <point x="366" y="720" type="line" smooth="yes"/>
      <point x="400" y="720"/>
      <point x="406" y="714"/>
      <point x="405" y="679" type="curve" smooth="yes"/>
      <point x="397" y="386" type="line"/>
      <point x="395" y="351"/>
      <point x="390" y="345"/>
    </contour>
    <contour>
      <point x="278" y="630" type="line"/>
      <point x="278" y="435" type="line"/>
      <point x="288" y="435" type="line"/>
      <point x="288" y="630" type="line"/>
    </contour>
    <contour>
      <point x="588" y="630" type="line"/>
      <point x="588" y="435" type="line"/>
      <point x="598" y="435" type="line"/>
      <point x="598" y="630" type="line"/>
    </contour>
  </outline>
</glyph>
<glyph name="numbersign" format="1">
  <advance width="850"/>
  <unicode hex="0023"/>
  <outline>
    <contour>
      <point x="252" y="-110" type="curve" smooth="yes"/>
      <point x="370" y="-11" type="line"/>
      <point x="361" y="-72" type="line" smooth="yes"/>
      <point x="357" y="-104"/>
      <point x="374" y="-119"/>
      <point x="407" y="-119" type="curve" smooth="yes"/>
      <point x="512" y="-119" type="line" smooth="yes"/>
      <point x="526" y="-119"/>
      <point x="534" y="-115"/>
      <point x="542" y="-110" type="curve" smooth="yes"/>
      <point x="671" y="-1" type="line"/>
      <point x="679" y="5"/>
      <point x="684" y="17"/>
      <point x="687" y="35" type="curve" smooth="yes"/>
      <point x="689" y="49" type="line"/>
      <point x="790" y="134" type="line" smooth="yes"/>
      <point x="799" y="142"/>
      <point x="804" y="153"/>
      <point x="804" y="171" type="curve" smooth="yes"/>
      <point x="804" y="278" type="line" smooth="yes"/>
      <point x="804" y="311"/>
      <point x="790" y="324"/>
      <point x="758" y="324" type="curve" smooth="yes"/>
      <point x="729" y="324" type="line"/>
      <point x="729" y="329" type="line"/>
      <point x="826" y="410" type="line" smooth="yes"/>
      <point x="835" y="418"/>
      <point x="840" y="429"/>
      <point x="840" y="447" type="curve" smooth="yes"/>
      <point x="840" y="554" type="line" smooth="yes"/>
      <point x="840" y="587"/>
      <point x="826" y="600"/>
      <point x="794" y="600" type="curve" smooth="yes"/>
      <point x="768" y="600" type="line"/>
      <point x="780" y="683" type="line" smooth="yes"/>
      <point x="784" y="715"/>
      <point x="767" y="730"/>
      <point x="734" y="730" type="curve" smooth="yes"/>
      <point x="629" y="730" type="line" smooth="yes"/>
      <point x="615" y="730"/>
      <point x="605" y="727"/>
      <point x="598" y="721" type="curve"/>
      <point x="481" y="623" type="line"/>
      <point x="490" y="683" type="line" smooth="yes"/>
      <point x="494" y="715"/>
      <point x="477" y="730"/>
      <point x="444" y="730" type="curve" smooth="yes"/>
      <point x="339" y="730" type="line" smooth="yes"/>
      <point x="325" y="730"/>
      <point x="315" y="727"/>
      <point x="308" y="721" type="curve"/>
      <point x="179" y="613" type="line" smooth="yes"/>
      <point x="170" y="605"/>
      <point x="165" y="593"/>
      <point x="164" y="576" type="curve"/>
      <point x="163" y="567" type="line"/>
      <point x="61" y="482" type="line" smooth="yes"/>
      <point x="52" y="474"/>
      <point x="47" y="463"/>
      <point x="47" y="445" type="curve" smooth="yes"/>
      <point x="47" y="338" type="line" smooth="yes"/>
      <point x="47" y="305"/>
      <point x="61" y="292"/>
      <point x="93" y="292" type="curve" smooth="yes"/>
      <point x="123" y="292" type="line"/>
      <point x="123" y="288" type="line"/>
      <point x="25" y="206" type="line" smooth="yes"/>
      <point x="16" y="198"/>
      <point x="11" y="187"/>
      <point x="11" y="169" type="curve" smooth="yes"/>
      <point x="11" y="62" type="line" smooth="yes"/>
      <point x="11" y="29"/>
      <point x="25" y="16"/>
      <point x="57" y="16" type="curve" smooth="yes"/>
      <point x="83" y="16" type="line"/>
      <point x="71" y="-72" type="line" smooth="yes"/>
      <point x="67" y="-104"/>
      <point x="84" y="-119"/>
      <point x="117" y="-119" type="curve" smooth="yes"/>
      <point x="222" y="-119" type="line" smooth="yes"/>
      <point x="236" y="-119"/>
      <point x="244" y="-115"/>
    </contour>
    <contour>
      <point x="540" y="314" type="line"/>
      <point x="427" y="314" type="line"/>
      <point x="441" y="411" type="line"/>
      <point x="554" y="411" type="line"/>
    </contour>
    <contour>
      <point x="387" y="36" type="line" smooth="yes"/>
      <point x="384" y="11"/>
      <point x="376" y="0"/>
      <point x="351" y="0" type="curve" smooth="yes"/>
      <point x="246" y="0" type="line" smooth="yes"/>
      <point x="221" y="0"/>
      <point x="207" y="11"/>
      <point x="210" y="36" type="curve"/>
      <point x="224" y="135" type="line"/>
      <point x="186" y="135" type="line"/>
      <point x="161" y="135"/>
      <point x="150" y="145"/>
      <point x="150" y="171" type="curve" smooth="yes"/>
      <point x="150" y="278" type="line" smooth="yes"/>
      <point x="150" y="303"/>
      <point x="161" y="314"/>
      <point x="186" y="314" type="curve" smooth="yes"/>
      <point x="250" y="314" type="line"/>
      <point x="264" y="411" type="line"/>
      <point x="222" y="411" type="line"/>
      <point x="197" y="411"/>
      <point x="186" y="421"/>
      <point x="186" y="447" type="curve" smooth="yes"/>
      <point x="186" y="554" type="line" smooth="yes"/>
      <point x="186" y="579"/>
      <point x="197" y="590"/>
      <point x="222" y="590" type="curve" smooth="yes"/>
      <point x="290" y="590" type="line"/>
      <point x="303" y="684" type="line" smooth="yes"/>
      <point x="306" y="709"/>
      <point x="314" y="720"/>
      <point x="339" y="720" type="curve" smooth="yes"/>
      <point x="444" y="720" type="line" smooth="yes"/>
      <point x="469" y="720"/>
      <point x="483" y="709"/>
      <point x="480" y="684" type="curve" smooth="yes"/>
      <point x="467" y="590" type="line"/>
      <point x="580" y="590" type="line"/>
      <point x="593" y="684" type="line" smooth="yes"/>
      <point x="596" y="709"/>
      <point x="604" y="720"/>
      <point x="629" y="720" type="curve" smooth="yes"/>
      <point x="734" y="720" type="line" smooth="yes"/>
      <point x="759" y="720"/>
      <point x="773" y="709"/>
      <point x="770" y="684" type="curve" smooth="yes"/>
      <point x="757" y="590" type="line"/>
      <point x="794" y="590" type="line" smooth="yes"/>
      <point x="819" y="590"/>
      <point x="830" y="580"/>
      <point x="830" y="554" type="curve" smooth="yes"/>
      <point x="830" y="447" type="line" smooth="yes"/>
      <point x="830" y="421"/>
      <point x="819" y="411"/>
      <point x="794" y="411" type="curve" smooth="yes"/>
      <point x="731" y="411" type="line"/>
      <point x="717" y="314" type="line"/>
      <point x="758" y="314" type="line" smooth="yes"/>
      <point x="783" y="314"/>
      <point x="794" y="304"/>
      <point x="794" y="278" type="curve" smooth="yes"/>
      <point x="794" y="171" type="line" smooth="yes"/>
      <point x="794" y="145"/>
      <point x="783" y="135"/>
      <point x="758" y="135" type="curve" smooth="yes"/>
      <point x="691" y="135" type="line"/>
      <point x="677" y="36" type="line" smooth="yes"/>
      <point x="674" y="11"/>
      <point x="666" y="0"/>
      <point x="641" y="0" type="curve" smooth="yes"/>
      <point x="536" y="0" type="line" smooth="yes"/>
      <point x="511" y="0"/>
      <point x="497" y="11"/>
      <point x="500" y="36" type="curve" smooth="yes"/>
      <point x="514" y="135" type="line"/>
      <point x="401" y="135" type="line"/>
    </contour>
    <contour>
      <point x="649" y="495" type="line"/>
      <point x="611" y="230" type="line"/>
      <point x="332" y="230" type="line"/>
      <point x="370" y="495" type="line"/>
    </contour>
    <contour>
      <point x="302" y="90" type="line"/>
      <point x="312" y="90" type="line"/>
      <point x="331" y="220" type="line"/>
      <point x="610" y="220" type="line"/>
      <point x="591" y="90" type="line"/>
      <point x="601" y="90" type="line"/>
      <point x="620" y="220" type="line"/>
      <point x="704" y="220" type="line"/>
      <point x="704" y="230" type="line"/>
      <point x="621" y="230" type="line"/>
      <point x="659" y="495" type="line"/>
      <point x="740" y="495" type="line"/>
      <point x="740" y="505" type="line"/>
      <point x="660" y="505" type="line"/>
      <point x="678" y="630" type="line"/>
      <point x="668" y="630" type="line"/>
      <point x="650" y="505" type="line"/>
      <point x="371" y="505" type="line"/>
      <point x="389" y="630" type="line"/>
      <point x="379" y="630" type="line"/>
      <point x="361" y="505" type="line"/>
      <point x="276" y="505" type="line"/>
      <point x="276" y="495" type="line"/>
      <point x="360" y="495" type="line"/>
      <point x="322" y="230" type="line"/>
      <point x="240" y="230" type="line"/>
      <point x="240" y="220" type="line"/>
      <point x="321" y="220" type="line"/>
    </contour>
  </outline>
</glyph>
<glyph name="percent" format="1">
  <advance width="1131"/>
  <unicode hex="0025"/>
  <outline>
    <contour>
      <point x="805" y="-125" type="curve" smooth="yes"/>
      <point x="882" y="-125"/>
      <point x="928" y="-111"/>
      <point x="955" y="-88" type="curve" smooth="yes"/>
      <point x="1084" y="21" type="line" smooth="yes"/>
      <point x="1112" y="43"/>
      <point x="1121" y="75"/>
      <point x="1121" y="113" type="curve" smooth="yes"/>
      <point x="1121" y="303" type="line" smooth="yes"/>
      <point x="1121" y="378"/>
      <point x="1089" y="432"/>
      <point x="934" y="432" type="curve" smooth="yes"/>
      <point x="857" y="432"/>
      <point x="810" y="418"/>
      <point x="782" y="395" type="curve" smooth="yes"/>
      <point x="733" y="354" type="line"/>
      <point x="814" y="682" type="line" smooth="yes"/>
      <point x="822" y="713"/>
      <point x="807" y="730"/>
      <point x="773" y="730" type="curve" smooth="yes"/>
      <point x="668" y="730" type="line" smooth="yes"/>
      <point x="653" y="730"/>
      <point x="643" y="726"/>
      <point x="636" y="720" type="curve" smooth="yes"/>
      <point x="522" y="625" type="line"/>
      <point x="517" y="690"/>
      <point x="478" y="735"/>
      <point x="336" y="735" type="curve" smooth="yes"/>
      <point x="259" y="735"/>
      <point x="212" y="721"/>
      <point x="184" y="698" type="curve" smooth="yes"/>
      <point x="55" y="589" type="line" smooth="yes"/>
      <point x="27" y="567"/>
      <point x="18" y="535"/>
      <point x="18" y="497" type="curve" smooth="yes"/>
      <point x="18" y="337" type="line" smooth="yes"/>
      <point x="18" y="262"/>
      <point x="52" y="178"/>
      <point x="207" y="178" type="curve" smooth="yes"/>
      <point x="284" y="178"/>
      <point x="330" y="192"/>
      <point x="357" y="215" type="curve" smooth="yes"/>
      <point x="410" y="260" type="line"/>
      <point x="328" y="-71" type="line" smooth="yes"/>
      <point x="320" y="-102"/>
      <point x="335" y="-119"/>
      <point x="369" y="-119" type="curve" smooth="yes"/>
      <point x="474" y="-119" type="line" smooth="yes"/>
      <point x="488" y="-119"/>
      <point x="499" y="-115"/>
      <point x="506" y="-109" type="curve" smooth="yes"/>
      <point x="617" y="-16" type="line"/>
      <point x="623" y="-80"/>
      <point x="664" y="-125"/>
    </contour>
    <contour>
      <point x="513" y="416" type="line"/>
      <point x="513" y="345"/>
      <point x="479" y="297"/>
      <point x="336" y="297" type="curve" smooth="yes"/>
      <point x="193" y="297"/>
      <point x="157" y="345"/>
      <point x="157" y="416" type="curve" smooth="yes"/>
      <point x="157" y="606" type="line" smooth="yes"/>
      <point x="157" y="677"/>
      <point x="193" y="725"/>
      <point x="336" y="725" type="curve" smooth="yes"/>
      <point x="479" y="725"/>
      <point x="513" y="677"/>
      <point x="513" y="606" type="curve" smooth="yes"/>
    </contour>
    <contour>
      <point x="467" y="36" type="curve" smooth="yes"/>
      <point x="627" y="684" type="line" smooth="yes"/>
      <point x="633" y="708"/>
      <point x="643" y="720"/>
      <point x="668" y="720" type="curve" smooth="yes"/>
      <point x="773" y="720" type="line" smooth="yes"/>
      <point x="798" y="720"/>
      <point x="810" y="708"/>
      <point x="804" y="684" type="curve" smooth="yes"/>
      <point x="644" y="36" type="line" smooth="yes"/>
      <point x="638" y="12"/>
      <point x="628" y="0"/>
      <point x="603" y="0" type="curve" smooth="yes"/>
      <point x="498" y="0" type="line" smooth="yes"/>
      <point x="473" y="0"/>
      <point x="461" y="12"/>
    </contour>
    <contour>
      <point x="302" y="447" type="line"/>
      <point x="302" y="437"/>
      <point x="307" y="429"/>
      <point x="336" y="429" type="curve" smooth="yes"/>
      <point x="364" y="429"/>
      <point x="369" y="437"/>
      <point x="369" y="447" type="curve" smooth="yes"/>
      <point x="369" y="575" type="line" smooth="yes"/>
      <point x="369" y="583"/>
      <point x="364" y="592"/>
      <point x="336" y="592" type="curve" smooth="yes"/>
      <point x="307" y="592"/>
      <point x="302" y="583"/>
      <point x="302" y="575" type="curve" smooth="yes"/>
    </contour>
    <contour>
      <point x="1111" y="113" type="line"/>
      <point x="1111" y="42"/>
      <point x="1077" y="-6"/>
      <point x="934" y="-6" type="curve" smooth="yes"/>
      <point x="791" y="-6"/>
      <point x="755" y="42"/>
      <point x="755" y="113" type="curve" smooth="yes"/>
      <point x="755" y="303" type="line" smooth="yes"/>
      <point x="755" y="374"/>
      <point x="791" y="422"/>
      <point x="934" y="422" type="curve" smooth="yes"/>
      <point x="1077" y="422"/>
      <point x="1111" y="374"/>
      <point x="1111" y="303" type="curve" smooth="yes"/>
    </contour>
    <contour>
      <point x="900" y="144" type="line"/>
      <point x="900" y="134"/>
      <point x="905" y="126"/>
      <point x="934" y="126" type="curve" smooth="yes"/>
      <point x="962" y="126"/>
      <point x="967" y="134"/>
      <point x="967" y="144" type="curve" smooth="yes"/>
      <point x="967" y="272" type="line" smooth="yes"/>
      <point x="967" y="280"/>
      <point x="962" y="289"/>
      <point x="934" y="289" type="curve" smooth="yes"/>
      <point x="905" y="289"/>
      <point x="900" y="280"/>
      <point x="900" y="272" type="curve" smooth="yes"/>
    </contour>
    <contour>
      <point x="446" y="583" type="line" smooth="yes"/>
      <point x="446" y="641"/>
      <point x="415" y="663"/>
      <point x="336" y="663" type="curve" smooth="yes"/>
      <point x="258" y="663"/>
      <point x="225" y="641"/>
      <point x="225" y="583" type="curve" smooth="yes"/>
      <point x="225" y="437" type="line" smooth="yes"/>
      <point x="225" y="379"/>
      <point x="258" y="358"/>
      <point x="336" y="358" type="curve" smooth="yes"/>
      <point x="415" y="358"/>
      <point x="446" y="379"/>
      <point x="446" y="437" type="curve" smooth="yes"/>
    </contour>
    <contour>
      <point x="336" y="368" type="curve" smooth="yes"/>
      <point x="268" y="368"/>
      <point x="235" y="385"/>
      <point x="235" y="437" type="curve" smooth="yes"/>
      <point x="235" y="583" type="line" smooth="yes"/>
      <point x="235" y="635"/>
      <point x="268" y="653"/>
      <point x="336" y="653" type="curve" smooth="yes"/>
      <point x="405" y="653"/>
      <point x="436" y="635"/>
      <point x="436" y="583" type="curve" smooth="yes"/>
      <point x="436" y="437" type="line" smooth="yes"/>
      <point x="436" y="385"/>
      <point x="405" y="368"/>
    </contour>
    <contour>
      <point x="574" y="90" type="line"/>
      <point x="707" y="630" type="line"/>
      <point x="697" y="630" type="line"/>
      <point x="564" y="90" type="line"/>
    </contour>
    <contour>
      <point x="1046" y="280" type="line" smooth="yes"/>
      <point x="1046" y="338"/>
      <point x="1015" y="360"/>
      <point x="936" y="360" type="curve" smooth="yes"/>
      <point x="858" y="360"/>
      <point x="825" y="338"/>
      <point x="825" y="280" type="curve" smooth="yes"/>
      <point x="825" y="134" type="line" smooth="yes"/>
      <point x="825" y="76"/>
      <point x="858" y="55"/>
      <point x="936" y="55" type="curve" smooth="yes"/>
      <point x="1015" y="55"/>
      <point x="1046" y="76"/>
      <point x="1046" y="134" type="curve" smooth="yes"/>
    </contour>
    <contour>
      <point x="936" y="65" type="curve" smooth="yes"/>
      <point x="868" y="65"/>
      <point x="835" y="82"/>
      <point x="835" y="134" type="curve" smooth="yes"/>
      <point x="835" y="280" type="line" smooth="yes"/>
      <point x="835" y="332"/>
      <point x="868" y="350"/>
      <point x="936" y="350" type="curve" smooth="yes"/>
      <point x="1005" y="350"/>
      <point x="1036" y="332"/>
      <point x="1036" y="280" type="curve" smooth="yes"/>
      <point x="1036" y="134" type="line" smooth="yes"/>
      <point x="1036" y="82"/>
      <point x="1005" y="65"/>
    </contour>
  </outline>
</glyph>
<glyph name="ampersand" format="1">
  <advance width="866"/>
  <unicode hex="0026"/>
  <outline>
    <contour>
      <point x="212" y="-119" type="curve" smooth="yes"/>
      <point x="490" y="-119" type="line" smooth="yes"/>
      <point x="545" y="-119"/>
      <point x="588" y="-104"/>
      <point x="619" y="-78" type="curve" smooth="yes"/>
      <point x="748" y="31" type="line" smooth="yes"/>
      <point x="787" y="64"/>
      <point x="808" y="114"/>
      <point x="808" y="176" type="curve" smooth="yes"/>
      <point x="808" y="182" type="line"/>
      <point x="853" y="220" type="line" smooth="yes"/>
      <point x="862" y="228"/>
      <point x="867" y="239"/>
      <point x="867" y="257" type="curve" smooth="yes"/>
      <point x="867" y="365" type="line" smooth="yes"/>
      <point x="867" y="398"/>
      <point x="853" y="411"/>
      <point x="821" y="411" type="curve" smooth="yes"/>
      <point x="627" y="411" type="line" smooth="yes"/>
      <point x="613" y="411"/>
      <point x="602" y="408"/>
      <point x="595" y="402" type="curve" smooth="yes"/>
      <point x="537" y="353" type="line"/>
      <point x="537" y="416" type="line" smooth="yes"/>
      <point x="537" y="422"/>
      <point x="536" y="428"/>
      <point x="535" y="433" type="curve"/>
      <point x="654" y="532" type="line" smooth="yes"/>
      <point x="663" y="540"/>
      <point x="668" y="551"/>
      <point x="668" y="569" type="curve" smooth="yes"/>
      <point x="668" y="684" type="line" smooth="yes"/>
      <point x="668" y="716"/>
      <point x="654" y="730"/>
      <point x="622" y="730" type="curve" smooth="yes"/>
      <point x="411" y="730" type="line" smooth="yes"/>
      <point x="342" y="730"/>
      <point x="292" y="714"/>
      <point x="259" y="686" type="curve" smooth="yes"/>
      <point x="131" y="578" type="line" smooth="yes"/>
      <point x="95" y="548"/>
      <point x="80" y="506"/>
      <point x="80" y="458" type="curve" smooth="yes"/>
      <point x="80" y="410" type="line" smooth="yes"/>
      <point x="80" y="371"/>
      <point x="88" y="339"/>
      <point x="111" y="316" type="curve"/>
      <point x="67" y="280" type="line" smooth="yes"/>
      <point x="34" y="252"/>
      <point x="13" y="208"/>
      <point x="13" y="147" type="curve" smooth="yes"/>
      <point x="13" y="87" type="line" smooth="yes"/>
      <point x="13" y="-26"/>
      <point x="82" y="-119"/>
    </contour>
    <contour>
      <point x="452" y="197" type="line"/>
      <point x="428" y="197" type="line"/>
      <point x="452" y="217" type="line"/>
    </contour>
    <contour>
      <point x="411" y="187" type="curve" smooth="yes"/>
      <point x="553" y="187" type="line" smooth="yes"/>
      <point x="582" y="187"/>
      <point x="591" y="200"/>
      <point x="591" y="227" type="curve" smooth="yes"/>
      <point x="591" y="365" type="line" smooth="yes"/>
      <point x="591" y="390"/>
      <point x="602" y="401"/>
      <point x="627" y="401" type="curve" smooth="yes"/>
      <point x="821" y="401" type="line" smooth="yes"/>
      <point x="846" y="401"/>
      <point x="857" y="391"/>
      <point x="857" y="365" type="curve" smooth="yes"/>
      <point x="857" y="257" type="line" smooth="yes"/>
      <point x="857" y="232"/>
      <point x="846" y="221"/>
      <point x="821" y="221" type="curve" smooth="yes"/>
      <point x="798" y="221" type="line"/>
      <point x="798" y="176" type="line" smooth="yes"/>
      <point x="798" y="69"/>
      <point x="735" y="0"/>
      <point x="619" y="0" type="curve" smooth="yes"/>
      <point x="341" y="0" type="line" smooth="yes"/>
      <point x="218" y="0"/>
      <point x="152" y="69"/>
      <point x="152" y="176" type="curve" smooth="yes"/>
      <point x="152" y="256" type="line" smooth="yes"/>
      <point x="152" y="350"/>
      <point x="206" y="404"/>
      <point x="278" y="411" type="curve"/>
      <point x="234" y="430"/>
      <point x="219" y="468"/>
      <point x="219" y="519" type="curve" smooth="yes"/>
      <point x="219" y="567" type="line" smooth="yes"/>
      <point x="219" y="655"/>
      <point x="275" y="720"/>
      <point x="411" y="720" type="curve" smooth="yes"/>
      <point x="622" y="720" type="line" smooth="yes"/>
      <point x="647" y="720"/>
      <point x="658" y="709"/>
      <point x="658" y="684" type="curve" smooth="yes"/>
      <point x="658" y="569" type="line" smooth="yes"/>
      <point x="658" y="544"/>
      <point x="647" y="533"/>
      <point x="622" y="533" type="curve" smooth="yes"/>
      <point x="476" y="533" type="line" smooth="yes"/>
      <point x="444" y="533"/>
      <point x="438" y="519"/>
      <point x="438" y="503" type="curve" smooth="yes"/>
      <point x="438" y="482" type="line" smooth="yes"/>
      <point x="438" y="466"/>
      <point x="444" y="452"/>
      <point x="476" y="452" type="curve" smooth="yes"/>
      <point x="491" y="452" type="line" smooth="yes"/>
      <point x="516" y="452"/>
      <point x="527" y="441"/>
      <point x="527" y="416" type="curve" smooth="yes"/>
      <point x="527" y="313" type="line" smooth="yes"/>
      <point x="527" y="288"/>
      <point x="516" y="277"/>
      <point x="491" y="277" type="curve" smooth="yes"/>
      <point x="411" y="277" type="line" smooth="yes"/>
      <point x="379" y="277"/>
      <point x="373" y="264"/>
      <point x="373" y="248" type="curve" smooth="yes"/>
      <point x="373" y="217" type="line" smooth="yes"/>
      <point x="373" y="201"/>
      <point x="379" y="187"/>
    </contour>
    <contour>
      <point x="365" y="90" type="curve" smooth="yes"/>
      <point x="606" y="90" type="line" smooth="yes"/>
      <point x="665" y="90"/>
      <point x="699" y="119"/>
      <point x="699" y="181" type="curve" smooth="yes"/>
      <point x="699" y="306" type="line"/>
      <point x="764" y="306" type="line"/>
      <point x="764" y="316" type="line"/>
      <point x="689" y="316" type="line"/>
      <point x="689" y="181" type="line" smooth="yes"/>
      <point x="689" y="127"/>
      <point x="659" y="100"/>
      <point x="606" y="100" type="curve" smooth="yes"/>
      <point x="371" y="100" type="line" smooth="yes"/>
      <point x="292" y="100"/>
      <point x="258" y="130"/>
      <point x="258" y="198" type="curve" smooth="yes"/>
      <point x="258" y="259" type="line" smooth="yes"/>
      <point x="258" y="319"/>
      <point x="294" y="363"/>
      <point x="370" y="363" type="curve" smooth="yes"/>
      <point x="437" y="363" type="line"/>
      <point x="437" y="373" type="line"/>
      <point x="427" y="373" type="line" smooth="yes"/>
      <point x="364" y="373"/>
      <point x="335" y="404"/>
      <point x="335" y="469" type="curve" smooth="yes"/>
      <point x="335" y="523" type="line" smooth="yes"/>
      <point x="335" y="591"/>
      <point x="368" y="620"/>
      <point x="443" y="620" type="curve" smooth="yes"/>
      <point x="568" y="620" type="line"/>
      <point x="568" y="630" type="line"/>
      <point x="443" y="630" type="line" smooth="yes"/>
      <point x="362" y="630"/>
      <point x="325" y="599"/>
      <point x="325" y="525" type="curve" smooth="yes"/>
      <point x="325" y="469" type="line" smooth="yes"/>
      <point x="325" y="417"/>
      <point x="342" y="386"/>
      <point x="377" y="372" type="curve"/>
      <point x="370" y="372" type="line" smooth="yes"/>
      <point x="287" y="372"/>
      <point x="248" y="325"/>
      <point x="248" y="259" type="curve" smooth="yes"/>
      <point x="248" y="198" type="line" smooth="yes"/>
      <point x="248" y="124"/>
      <point x="286" y="90"/>
    </contour>
  </outline>
</glyph>
<glyph name="quotesingle" format="2">
  <advance width="456"/>
  <unicode hex="0027"/>
  <outline>
    <contour>
      <point x="236" y="226" type="line" smooth="yes"/>
      <point x="256" y="226"/>
      <point x="267" y="229"/>
      <point x="275" y="235" type="curve" smooth="yes"/>
      <point x="404" y="343" type="line" smooth="yes"/>
      <point x="412" y="351"/>
      <point x="416" y="362"/>
      <point x="417" y="385" type="curve" smooth="yes"/>
      <point x="425" y="679" type="line" smooth="yes"/>
      <point x="426" y="723"/>
      <point x="419" y="730"/>
      <point x="376" y="730" type="curve" smooth="yes"/>
      <point x="211" y="730" type="line" smooth="yes"/>
      <point x="192" y="730"/>
      <point x="180" y="728"/>
      <point x="173" y="722" type="curve" smooth="yes"/>
      <point x="43" y="613" type="line" smooth="yes"/>
      <point x="34" y="605"/>
      <point x="31" y="594"/>
      <point x="32" y="569" type="curve" smooth="yes"/>
      <point x="40" y="277" type="line" smooth="yes"/>
      <point x="41" y="233"/>
      <point x="49" y="226"/>
      <point x="92" y="226" type="curve" smooth="yes"/>
    </contour>
    <contour>
      <point x="365" y="345" type="curve" smooth="yes"/>
      <point x="221" y="345" type="line" smooth="yes"/>
      <point x="186" y="345"/>
      <point x="180" y="351"/>
      <point x="179" y="386" type="curve" smooth="yes"/>
      <point x="171" y="679" type="line" smooth="yes"/>
      <point x="170" y="714"/>
      <point x="176" y="720"/>
      <point x="211" y="720" type="curve" smooth="yes"/>
      <point x="376" y="720" type="line" smooth="yes"/>
      <point x="410" y="720"/>
      <point x="416" y="714"/>
      <point x="415" y="679" type="curve" smooth="yes"/>
      <point x="407" y="386" type="line" smooth="yes"/>
      <point x="405" y="351"/>
      <point x="400" y="345"/>
    </contour>
    <contour>
      <point x="288" y="630" type="line"/>
      <point x="288" y="435" type="line"/>
      <point x="298" y="435" type="line"/>
      <point x="298" y="630" type="line"/>
    </contour>
  </outline>
</glyph>
<glyph name="parenleft" format="1">
  <advance width="529"/>
  <unicode hex="0028"/>
  <outline>
    <contour>
      <point x="334" y="-199" type="line" smooth="yes"/>
      <point x="348" y="-199"/>
      <point x="359" y="-195"/>
      <point x="365" y="-189" type="curve"/>
      <point x="495" y="-81" type="line" smooth="yes"/>
      <point x="504" y="-73"/>
      <point x="509" y="-62"/>
      <point x="509" y="-44" type="curve" smooth="yes"/>
      <point x="509" y="75" type="line" smooth="yes"/>
      <point x="509" y="107"/>
      <point x="495" y="121"/>
      <point x="463" y="121" type="curve" smooth="yes"/>
      <point x="432" y="121" type="line" smooth="yes"/>
      <point x="406" y="121"/>
      <point x="401" y="135"/>
      <point x="401" y="161" type="curve" smooth="yes"/>
      <point x="401" y="527" type="line"/>
      <point x="495" y="606" type="line" smooth="yes"/>
      <point x="504" y="614"/>
      <point x="509" y="625"/>
      <point x="509" y="643" type="curve" smooth="yes"/>
      <point x="509" y="764" type="line" smooth="yes"/>
      <point x="509" y="796"/>
      <point x="495" y="810"/>
      <point x="463" y="810" type="curve" smooth="yes"/>
      <point x="409" y="810" type="line" smooth="yes"/>
      <point x="317" y="810"/>
      <point x="255" y="791"/>
      <point x="216" y="758" type="curve" smooth="yes"/>
      <point x="87" y="649" type="line" smooth="yes"/>
      <point x="41" y="611"/>
      <point x="24" y="554"/>
      <point x="24" y="486" type="curve" smooth="yes"/>
      <point x="24" y="15" type="line" smooth="yes"/>
      <point x="24" y="-111"/>
      <point x="82" y="-199"/>
      <point x="280" y="-199" type="curve" smooth="yes"/>
    </contour>
    <contour>
      <point x="463" y="-80" type="curve" smooth="yes"/>
      <point x="409" y="-80" type="line" smooth="yes"/>
      <point x="220" y="-80"/>
      <point x="163" y="3"/>
      <point x="163" y="124" type="curve" smooth="yes"/>
      <point x="163" y="595" type="line" smooth="yes"/>
      <point x="163" y="717"/>
      <point x="220" y="800"/>
      <point x="409" y="800" type="curve" smooth="yes"/>
      <point x="463" y="800" type="line" smooth="yes"/>
      <point x="488" y="800"/>
      <point x="499" y="789"/>
      <point x="499" y="764" type="curve" smooth="yes"/>
      <point x="499" y="643" type="line" smooth="yes"/>
      <point x="499" y="618"/>
      <point x="488" y="607"/>
      <point x="463" y="607" type="curve" smooth="yes"/>
      <point x="432" y="607" type="line" smooth="yes"/>
      <point x="400" y="607"/>
      <point x="391" y="592"/>
      <point x="391" y="557" type="curve" smooth="yes"/>
      <point x="391" y="161" type="line"/>
      <point x="391" y="126"/>
      <point x="400" y="111"/>
      <point x="432" y="111" type="curve" smooth="yes"/>
      <point x="463" y="111" type="line" smooth="yes"/>
      <point x="488" y="111"/>
      <point x="499" y="100"/>
      <point x="499" y="75" type="curve" smooth="yes"/>
      <point x="499" y="-44" type="line" smooth="yes"/>
      <point x="499" y="-69"/>
      <point x="488" y="-80"/>
    </contour>
    <contour>
      <point x="409" y="21" type="line"/>
      <point x="330" y="21"/>
      <point x="282" y="42"/>
      <point x="282" y="124" type="curve" smooth="yes"/>
      <point x="282" y="595" type="line" smooth="yes"/>
      <point x="282" y="677"/>
      <point x="329" y="698"/>
      <point x="409" y="698" type="curve"/>
      <point x="409" y="708" type="line"/>
      <point x="321" y="708"/>
      <point x="272" y="683"/>
      <point x="272" y="595" type="curve" smooth="yes"/>
      <point x="272" y="124" type="line" smooth="yes"/>
      <point x="272" y="36"/>
      <point x="322" y="11"/>
      <point x="409" y="11" type="curve"/>
    </contour>
  </outline>
</glyph>
<glyph name="parenright" format="1">
  <advance width="529"/>
  <unicode hex="0029"/>
  <outline>
    <contour>
      <point x="67" y="-199" type="curve" smooth="yes"/>
      <point x="121" y="-199" type="line" smooth="yes"/>
      <point x="213" y="-199"/>
      <point x="274" y="-179"/>
      <point x="314" y="-146" type="curve" smooth="yes"/>
      <point x="443" y="-37" type="line" smooth="yes"/>
      <point x="489" y="1"/>
      <point x="506" y="57"/>
      <point x="506" y="124" type="curve" smooth="yes"/>
      <point x="506" y="595" type="line" smooth="yes"/>
      <point x="506" y="722"/>
      <point x="448" y="810"/>
      <point x="250" y="810" type="curve" smooth="yes"/>
      <point x="196" y="810" type="line" smooth="yes"/>
      <point x="182" y="810"/>
      <point x="171" y="807"/>
      <point x="164" y="801" type="curve" smooth="yes"/>
      <point x="35" y="692" type="line" smooth="yes"/>
      <point x="26" y="684"/>
      <point x="21" y="673"/>
      <point x="21" y="655" type="curve" smooth="yes"/>
      <point x="21" y="534" type="line" smooth="yes"/>
      <point x="21" y="502"/>
      <point x="35" y="488"/>
      <point x="67" y="488" type="curve" smooth="yes"/>
      <point x="98" y="488" type="line" smooth="yes"/>
      <point x="124" y="488"/>
      <point x="129" y="474"/>
      <point x="129" y="448" type="curve" smooth="yes"/>
      <point x="129" y="82" type="line"/>
      <point x="35" y="3" type="line" smooth="yes"/>
      <point x="26" y="-5"/>
      <point x="21" y="-16"/>
      <point x="21" y="-34" type="curve" smooth="yes"/>
      <point x="21" y="-153" type="line" smooth="yes"/>
      <point x="21" y="-185"/>
      <point x="35" y="-199"/>
    </contour>
    <contour>
      <point x="250" y="-80" type="curve" smooth="yes"/>
      <point x="196" y="-80" type="line" smooth="yes"/>
      <point x="171" y="-80"/>
      <point x="160" y="-69"/>
      <point x="160" y="-44" type="curve" smooth="yes"/>
      <point x="160" y="75" type="line" smooth="yes"/>
      <point x="160" y="100"/>
      <point x="171" y="111"/>
      <point x="196" y="111" type="curve" smooth="yes"/>
      <point x="227" y="111" type="line" smooth="yes"/>
      <point x="259" y="111"/>
      <point x="268" y="126"/>
      <point x="268" y="161" type="curve"/>
      <point x="268" y="557" type="line" smooth="yes"/>
      <point x="268" y="592"/>
      <point x="259" y="607"/>
      <point x="227" y="607" type="curve" smooth="yes"/>
      <point x="196" y="607" type="line" smooth="yes"/>
      <point x="171" y="607"/>
      <point x="160" y="618"/>
      <point x="160" y="643" type="curve" smooth="yes"/>
      <point x="160" y="764" type="line" smooth="yes"/>
      <point x="160" y="789"/>
      <point x="171" y="800"/>
      <point x="196" y="800" type="curve" smooth="yes"/>
      <point x="250" y="800" type="line" smooth="yes"/>
      <point x="439" y="800"/>
      <point x="496" y="717"/>
      <point x="496" y="595" type="curve" smooth="yes"/>
      <point x="496" y="124" type="line" smooth="yes"/>
      <point x="496" y="3"/>
      <point x="439" y="-80"/>
    </contour>
    <contour>
      <point x="387" y="124" type="curve" smooth="yes"/>
      <point x="387" y="595" type="line" smooth="yes"/>
      <point x="387" y="683"/>
      <point x="338" y="708"/>
      <point x="250" y="708" type="curve"/>
      <point x="250" y="698" type="line"/>
      <point x="330" y="698"/>
      <point x="377" y="677"/>
      <point x="377" y="595" type="curve" smooth="yes"/>
      <point x="377" y="124" type="line" smooth="yes"/>
      <point x="377" y="42"/>
      <point x="329" y="21"/>
      <point x="250" y="21" type="curve"/>
      <point x="250" y="11" type="line"/>
      <point x="337" y="11"/>
      <point x="387" y="36"/>
    </contour>
  </outline>
</glyph>
<glyph name="asterisk" format="1">
  <advance width="818"/>
  <unicode hex="002A"/>
  <outline>
    <contour>
      <point x="477" y="36" type="curve" smooth="yes"/>
      <point x="572" y="104" type="line"/>
      <point x="573" y="104" type="line"/>
      <point x="573" y="105" type="line" smooth="yes"/>
      <point x="576" y="108"/>
      <point x="579" y="110"/>
      <point x="582" y="112" type="curve"/>
      <point x="711" y="220" type="line" smooth="yes"/>
      <point x="734" y="241"/>
      <point x="735" y="252"/>
      <point x="708" y="282" type="curve" smooth="yes"/>
      <point x="668" y="324" type="line"/>
      <point x="779" y="417" type="line" smooth="yes"/>
      <point x="788" y="426"/>
      <point x="791" y="437"/>
      <point x="781" y="464" type="curve" smooth="yes"/>
      <point x="744" y="575" type="line" smooth="yes"/>
      <point x="730" y="618"/>
      <point x="720" y="622"/>
      <point x="682" y="603" type="curve" smooth="yes"/>
      <point x="561" y="547" type="line"/>
      <point x="579" y="678" type="line" smooth="yes"/>
      <point x="587" y="721"/>
      <point x="579" y="730"/>
      <point x="535" y="730" type="curve" smooth="yes"/>
      <point x="418" y="730" type="line" smooth="yes"/>
      <point x="400" y="730"/>
      <point x="388" y="728"/>
      <point x="381" y="722" type="curve" smooth="yes"/>
      <point x="251" y="613" type="line"/>
      <point x="250" y="612" type="line" smooth="yes"/>
      <point x="249" y="612"/>
      <point x="249" y="611"/>
      <point x="249" y="611" type="curve"/>
      <point x="236" y="614"/>
      <point x="227" y="612"/>
      <point x="221" y="607" type="curve" smooth="yes"/>
      <point x="92" y="498" type="line" smooth="yes"/>
      <point x="86" y="493"/>
      <point x="80" y="483"/>
      <point x="75" y="466" type="curve" smooth="yes"/>
      <point x="39" y="355" type="line" smooth="yes"/>
      <point x="25" y="313"/>
      <point x="32" y="304"/>
      <point x="75" y="296" type="curve" smooth="yes"/>
      <point x="209" y="274" type="line"/>
      <point x="113" y="173" type="line" smooth="yes"/>
      <point x="83" y="141"/>
      <point x="84" y="129"/>
      <point x="120" y="104" type="curve" smooth="yes"/>
      <point x="214" y="36" type="line"/>
      <point x="241" y="19"/>
      <point x="253" y="19"/>
      <point x="265" y="30" type="curve" smooth="yes"/>
      <point x="374" y="121" type="line"/>
      <point x="411" y="51" type="line" smooth="yes"/>
      <point x="432" y="15"/>
      <point x="440" y="11"/>
    </contour>
    <contour>
      <point x="401" y="165" type="line" smooth="yes"/>
      <point x="385" y="137"/>
      <point x="377" y="134"/>
      <point x="348" y="153" type="curve"/>
      <point x="254" y="221" type="line" smooth="yes"/>
      <point x="226" y="241"/>
      <point x="225" y="250"/>
      <point x="248" y="275" type="curve" smooth="yes"/>
      <point x="357" y="390" type="line"/>
      <point x="205" y="415" type="line" smooth="yes"/>
      <point x="171" y="421"/>
      <point x="166" y="428"/>
      <point x="177" y="461" type="curve" smooth="yes"/>
      <point x="213" y="572" type="line" smooth="yes"/>
      <point x="223" y="605"/>
      <point x="232" y="609"/>
      <point x="262" y="594" type="curve" smooth="yes"/>
      <point x="404" y="530" type="line"/>
      <point x="381" y="679" type="line" smooth="yes"/>
      <point x="376" y="713"/>
      <point x="383" y="720"/>
      <point x="417" y="720" type="curve" smooth="yes"/>
      <point x="534" y="720" type="line" smooth="yes"/>
      <point x="568" y="720"/>
      <point x="574" y="713"/>
      <point x="568" y="679" type="curve" smooth="yes"/>
      <point x="548" y="530" type="line"/>
      <point x="685" y="594" type="line" smooth="yes"/>
      <point x="715" y="609"/>
      <point x="723" y="605"/>
      <point x="734" y="572" type="curve" smooth="yes"/>
      <point x="771" y="461" type="line" smooth="yes"/>
      <point x="782" y="428"/>
      <point x="777" y="421"/>
      <point x="743" y="415" type="curve" smooth="yes"/>
      <point x="590" y="390" type="line"/>
      <point x="700" y="275" type="line" smooth="yes"/>
      <point x="723" y="250"/>
      <point x="722" y="241"/>
      <point x="694" y="221" type="curve" smooth="yes"/>
      <point x="600" y="153" type="line" smooth="yes"/>
      <point x="571" y="134"/>
      <point x="564" y="137"/>
      <point x="548" y="165" type="curve" smooth="yes"/>
      <point x="474" y="306" type="line"/>
    </contour>
    <contour>
      <point x="585" y="268" type="line"/>
      <point x="593" y="274" type="line"/>
      <point x="487" y="426" type="line"/>
      <point x="659" y="482" type="line"/>
      <point x="655" y="492" type="line"/>
      <point x="481" y="435" type="line"/>
      <point x="481" y="630" type="line"/>
      <point x="471" y="630" type="line"/>
      <point x="471" y="435" type="line"/>
      <point x="297" y="492" type="line"/>
      <point x="293" y="482" type="line"/>
      <point x="465" y="426" type="line"/>
      <point x="359" y="274" type="line"/>
      <point x="367" y="268" type="line"/>
      <point x="476" y="423" type="line"/>
    </contour>
  </outline>
</glyph>
<glyph name="plus" format="1">
  <advance width="834"/>
  <unicode hex="002B"/>
  <outline>
    <contour>
      <point x="415" y="-56" type="line" smooth="yes"/>
      <point x="428" y="-56"/>
      <point x="439" y="-52"/>
      <point x="447" y="-47" type="curve" smooth="yes"/>
      <point x="576" y="62" type="line" smooth="yes"/>
      <point x="585" y="70"/>
      <point x="590" y="81"/>
      <point x="590" y="99" type="curve" smooth="yes"/>
      <point x="590" y="148" type="line"/>
      <point x="614" y="148" type="line" smooth="yes"/>
      <point x="627" y="148"/>
      <point x="638" y="152"/>
      <point x="646" y="157" type="curve" smooth="yes"/>
      <point x="775" y="266" type="line" smooth="yes"/>
      <point x="784" y="274"/>
      <point x="789" y="285"/>
      <point x="789" y="303" type="curve" smooth="yes"/>
      <point x="789" y="417" type="line" smooth="yes"/>
      <point x="789" y="450"/>
      <point x="775" y="463"/>
      <point x="743" y="463" type="curve" smooth="yes"/>
      <point x="590" y="463" type="line"/>
      <point x="590" y="621" type="line" smooth="yes"/>
      <point x="590" y="653"/>
      <point x="576" y="667"/>
      <point x="544" y="667" type="curve" smooth="yes"/>
      <point x="420" y="667" type="line" smooth="yes"/>
      <point x="405" y="667"/>
      <point x="395" y="664"/>
      <point x="388" y="658" type="curve" smooth="yes"/>
      <point x="258" y="549" type="line"/>
      <point x="257" y="548" type="line" smooth="yes"/>
      <point x="249" y="541"/>
      <point x="245" y="530"/>
      <point x="245" y="512" type="curve" smooth="yes"/>
      <point x="245" y="463" type="line"/>
      <point x="221" y="463" type="line" smooth="yes"/>
      <point x="207" y="463"/>
      <point x="196" y="460"/>
      <point x="189" y="454" type="curve" smooth="yes"/>
      <point x="60" y="345" type="line" smooth="yes"/>
      <point x="51" y="337"/>
      <point x="46" y="326"/>
      <point x="46" y="308" type="curve" smooth="yes"/>
      <point x="46" y="194" type="line" smooth="yes"/>
      <point x="46" y="161"/>
      <point x="60" y="148"/>
      <point x="92" y="148" type="curve" smooth="yes"/>
      <point x="245" y="148" type="line"/>
      <point x="245" y="-10" type="line" smooth="yes"/>
      <point x="245" y="-42"/>
      <point x="258" y="-56"/>
      <point x="291" y="-56" type="curve" smooth="yes"/>
    </contour>
    <contour>
      <point x="580" y="99" type="line" smooth="yes"/>
      <point x="580" y="74"/>
      <point x="570" y="63"/>
      <point x="544" y="63" type="curve" smooth="yes"/>
      <point x="420" y="63" type="line" smooth="yes"/>
      <point x="394" y="63"/>
      <point x="384" y="74"/>
      <point x="384" y="99" type="curve" smooth="yes"/>
      <point x="384" y="267" type="line"/>
      <point x="221" y="267" type="line"/>
      <point x="196" y="267"/>
      <point x="185" y="277"/>
      <point x="185" y="303" type="curve" smooth="yes"/>
      <point x="185" y="417" type="line" smooth="yes"/>
      <point x="185" y="442"/>
      <point x="196" y="453"/>
      <point x="221" y="453" type="curve" smooth="yes"/>
      <point x="384" y="453" type="line"/>
      <point x="384" y="621" type="line"/>
      <point x="384" y="646"/>
      <point x="394" y="657"/>
      <point x="420" y="657" type="curve" smooth="yes"/>
      <point x="544" y="657" type="line" smooth="yes"/>
      <point x="569" y="657"/>
      <point x="580" y="646"/>
      <point x="580" y="621" type="curve" smooth="yes"/>
      <point x="580" y="453" type="line"/>
      <point x="743" y="453" type="line" smooth="yes"/>
      <point x="768" y="453"/>
      <point x="779" y="443"/>
      <point x="779" y="417" type="curve" smooth="yes"/>
      <point x="779" y="303" type="line" smooth="yes"/>
      <point x="779" y="277"/>
      <point x="768" y="267"/>
      <point x="743" y="267" type="curve" smooth="yes"/>
      <point x="580" y="267" type="line"/>
    </contour>
    <contour>
      <point x="477" y="153" type="line"/>
      <point x="487" y="153" type="line"/>
      <point x="487" y="355" type="line"/>
      <point x="689" y="355" type="line"/>
      <point x="689" y="365" type="line"/>
      <point x="487" y="365" type="line"/>
      <point x="487" y="567" type="line"/>
      <point x="477" y="567" type="line"/>
      <point x="477" y="365" type="line"/>
      <point x="275" y="365" type="line"/>
      <point x="275" y="355" type="line"/>
      <point x="477" y="355" type="line"/>
    </contour>
  </outline>
</glyph>
<glyph name="comma" format="2">
  <advance width="484"/>
  <unicode hex="002C"/>
  <outline>
    <contour>
      <point x="90" y="-219" type="curve" smooth="yes"/>
      <point x="167" y="-219" type="line" smooth="yes"/>
      <point x="211" y="-219"/>
      <point x="248" y="-207"/>
      <point x="274" y="-185" type="curve" smooth="yes"/>
      <point x="404" y="-76" type="line" smooth="yes"/>
      <point x="435" y="-49"/>
      <point x="454" y="-8"/>
      <point x="454" y="51" type="curve" smooth="yes"/>
      <point x="454" y="239" type="line" smooth="yes"/>
      <point x="454" y="271"/>
      <point x="440" y="285"/>
      <point x="408" y="285" type="curve" smooth="yes"/>
      <point x="206" y="285" type="line" smooth="yes"/>
      <point x="192" y="285"/>
      <point x="181" y="282"/>
      <point x="174" y="276" type="curve" smooth="yes"/>
      <point x="45" y="167" type="line" smooth="yes"/>
      <point x="36" y="159"/>
      <point x="31" y="148"/>
      <point x="31" y="130" type="curve" smooth="yes"/>
      <point x="31" y="-18" type="line" smooth="yes"/>
      <point x="31" y="-50"/>
      <point x="45" y="-64"/>
      <point x="77" y="-64" type="curve" smooth="yes"/>
      <point x="96" y="-64" type="line"/>
      <point x="58" y="-96" type="line" smooth="yes"/>
      <point x="49" y="-104"/>
      <point x="44" y="-115"/>
      <point x="44" y="-133" type="curve" smooth="yes"/>
      <point x="44" y="-173" type="line" smooth="yes"/>
      <point x="44" y="-206"/>
      <point x="58" y="-219"/>
    </contour>
    <contour>
      <point x="296" y="-100" type="curve" smooth="yes"/>
      <point x="219" y="-100" type="line" smooth="yes"/>
      <point x="194" y="-100"/>
      <point x="183" y="-90"/>
      <point x="183" y="-64" type="curve" smooth="yes"/>
      <point x="183" y="-24" type="line" smooth="yes"/>
      <point x="183" y="1"/>
      <point x="194" y="12"/>
      <point x="219" y="12" type="curve" smooth="yes"/>
      <point x="288" y="12" type="line" smooth="yes"/>
      <point x="306" y="12"/>
      <point x="315" y="22"/>
      <point x="315" y="40" type="curve" smooth="yes"/>
      <point x="315" y="55" type="line"/>
      <point x="206" y="55" type="line" smooth="yes"/>
      <point x="181" y="55"/>
      <point x="170" y="66"/>
      <point x="170" y="91" type="curve" smooth="yes"/>
      <point x="170" y="239" type="line" smooth="yes"/>
      <point x="170" y="264"/>
      <point x="181" y="275"/>
      <point x="206" y="275" type="curve" smooth="yes"/>
      <point x="408" y="275" type="line" smooth="yes"/>
      <point x="433" y="275"/>
      <point x="444" y="264"/>
      <point x="444" y="239" type="curve" smooth="yes"/>
      <point x="444" y="51" type="line" smooth="yes"/>
      <point x="444" y="-51"/>
      <point x="386" y="-100"/>
    </contour>
    <contour>
      <point x="374" y="170" type="line"/>
      <point x="240" y="170" type="line"/>
      <point x="240" y="160" type="line"/>
      <point x="364" y="160" type="line"/>
      <point x="364" y="51" type="line" smooth="yes"/>
      <point x="364" y="-3"/>
      <point x="334" y="-30"/>
      <point x="286" y="-30" type="curve" smooth="yes"/>
      <point x="240" y="-30" type="line"/>
      <point x="240" y="-40" type="line"/>
      <point x="286" y="-40" type="line" smooth="yes"/>
      <point x="340" y="-40"/>
      <point x="374" y="-10"/>
      <point x="374" y="51" type="curve" smooth="yes"/>
    </contour>
  </outline>
</glyph>
<glyph name="hyphen" format="1">
  <advance width="520"/>
  <unicode hex="002D"/>
  <unicode hex="00AD"/>
  <unicode hex="2010"/>
  <outline>
    <contour>
      <point x="330" y="138" type="line" smooth="yes"/>
      <point x="343" y="138"/>
      <point x="354" y="142"/>
      <point x="362" y="147" type="curve" smooth="yes"/>
      <point x="491" y="256" type="line" smooth="yes"/>
      <point x="500" y="264"/>
      <point x="505" y="275"/>
      <point x="505" y="293" type="curve" smooth="yes"/>
      <point x="505" y="427" type="line" smooth="yes"/>
      <point x="505" y="460"/>
      <point x="491" y="473"/>
      <point x="459" y="473" type="curve" smooth="yes"/>
      <point x="191" y="473" type="line" smooth="yes"/>
      <point x="177" y="473"/>
      <point x="166" y="470"/>
      <point x="159" y="464" type="curve" smooth="yes"/>
      <point x="30" y="355" type="line" smooth="yes"/>
      <point x="21" y="347"/>
      <point x="16" y="336"/>
      <point x="16" y="318" type="curve" smooth="yes"/>
      <point x="16" y="184" type="line" smooth="yes"/>
      <point x="16" y="151"/>
      <point x="30" y="138"/>
      <point x="62" y="138" type="curve" smooth="yes"/>
    </contour>
    <contour>
      <point x="191" y="257" type="line"/>
      <point x="166" y="257"/>
      <point x="155" y="267"/>
      <point x="155" y="293" type="curve" smooth="yes"/>
      <point x="155" y="427" type="line" smooth="yes"/>
      <point x="155" y="452"/>
      <point x="166" y="463"/>
      <point x="191" y="463" type="curve" smooth="yes"/>
      <point x="459" y="463" type="line" smooth="yes"/>
      <point x="484" y="463"/>
      <point x="495" y="453"/>
      <point x="495" y="427" type="curve" smooth="yes"/>
      <point x="495" y="293" type="line" smooth="yes"/>
      <point x="495" y="267"/>
      <point x="484" y="257"/>
      <point x="459" y="257" type="curve" smooth="yes"/>
    </contour>
    <contour>
      <point x="405" y="365" type="line"/>
      <point x="245" y="365" type="line"/>
      <point x="245" y="355" type="line"/>
      <point x="405" y="355" type="line"/>
    </contour>
  </outline>
</glyph>
<glyph name="period" format="1">
  <advance width="484"/>
  <unicode hex="002E"/>
  <outline>
    <contour>
      <point x="279" y="-119" type="line" smooth="yes"/>
      <point x="293" y="-119"/>
      <point x="304" y="-115"/>
      <point x="310" y="-109" type="curve"/>
      <point x="440" y="-1" type="line" smooth="yes"/>
      <point x="449" y="7"/>
      <point x="454" y="18"/>
      <point x="454" y="36" type="curve" smooth="yes"/>
      <point x="454" y="239" type="line" smooth="yes"/>
      <point x="454" y="272"/>
      <point x="440" y="285"/>
      <point x="408" y="285" type="curve" smooth="yes"/>
      <point x="206" y="285" type="line" smooth="yes"/>
      <point x="191" y="285"/>
      <point x="181" y="282"/>
      <point x="174" y="276" type="curve" smooth="yes"/>
      <point x="44" y="167" type="line" smooth="yes"/>
      <point x="36" y="160"/>
      <point x="31" y="148"/>
      <point x="31" y="130" type="curve" smooth="yes"/>
      <point x="31" y="-73" type="line" smooth="yes"/>
      <point x="31" y="-105"/>
      <point x="45" y="-119"/>
      <point x="77" y="-119" type="curve" smooth="yes"/>
    </contour>
    <contour>
      <point x="408" y="0" type="curve" smooth="yes"/>
      <point x="206" y="0" type="line" smooth="yes"/>
      <point x="181" y="0"/>
      <point x="170" y="11"/>
      <point x="170" y="36" type="curve"/>
      <point x="170" y="239" type="line"/>
      <point x="170" y="265"/>
      <point x="181" y="275"/>
      <point x="206" y="275" type="curve" smooth="yes"/>
      <point x="408" y="275" type="line" smooth="yes"/>
      <point x="433" y="275"/>
      <point x="444" y="265"/>
      <point x="444" y="239" type="curve" smooth="yes"/>
      <point x="444" y="36" type="line" smooth="yes"/>
      <point x="444" y="11"/>
      <point x="433" y="0"/>
    </contour>
    <contour>
      <point x="302" y="90" type="line"/>
      <point x="312" y="90" type="line"/>
      <point x="312" y="185" type="line"/>
      <point x="302" y="185" type="line"/>
    </contour>
  </outline>
</glyph>
<glyph name="slash" format="2">
  <advance width="487"/>
  <unicode hex="002F"/>
  <outline>
    <contour>
      <point x="192" y="-209" type="line" smooth="yes"/>
      <point x="206" y="-209"/>
      <point x="214" y="-205"/>
      <point x="222" y="-200" type="curve" smooth="yes"/>
      <point x="351" y="-91" type="line"/>
      <point x="360" y="-85"/>
      <point x="364" y="-73"/>
      <point x="367" y="-55" type="curve" smooth="yes"/>
      <point x="487" y="773" type="line" smooth="yes"/>
      <point x="491" y="805"/>
      <point x="474" y="820"/>
      <point x="441" y="820" type="curve" smooth="yes"/>
      <point x="296" y="820" type="line" smooth="yes"/>
      <point x="282" y="820"/>
      <point x="272" y="817"/>
      <point x="265" y="811" type="curve"/>
      <point x="136" y="703" type="line" smooth="yes"/>
      <point x="127" y="695"/>
      <point x="122" y="683"/>
      <point x="121" y="666" type="curve"/>
      <point x="1" y="-162" type="line" smooth="yes"/>
      <point x="-3" y="-194"/>
      <point x="14" y="-209"/>
      <point x="47" y="-209" type="curve" smooth="yes"/>
    </contour>
    <contour>
      <point x="140" y="-54" type="curve"/>
      <point x="260" y="774" type="line" smooth="yes"/>
      <point x="263" y="799"/>
      <point x="271" y="810"/>
      <point x="296" y="810" type="curve" smooth="yes"/>
      <point x="441" y="810" type="line" smooth="yes"/>
      <point x="466" y="810"/>
      <point x="480" y="799"/>
      <point x="477" y="774" type="curve" smooth="yes"/>
      <point x="357" y="-54" type="line" smooth="yes"/>
      <point x="354" y="-79"/>
      <point x="346" y="-90"/>
      <point x="321" y="-90" type="curve" smooth="yes"/>
      <point x="176" y="-90" type="line" smooth="yes"/>
      <point x="151" y="-90"/>
      <point x="137" y="-79"/>
    </contour>
    <contour>
      <point x="356" y="720" type="line"/>
      <point x="252" y="0" type="line"/>
      <point x="262" y="0" type="line"/>
      <point x="366" y="720" type="line"/>
    </contour>
  </outline>
</glyph>
<glyph name="zero" format="1">
  <advance width="827"/>
  <unicode hex="0030"/>
  <outline>
    <contour>
      <point x="604" y="-72" type="curve" smooth="yes"/>
      <point x="734" y="36" type="line" smooth="yes"/>
      <point x="779" y="74"/>
      <point x="794" y="127"/>
      <point x="794" y="189" type="curve" smooth="yes"/>
      <point x="794" y="530" type="line" smooth="yes"/>
      <point x="794" y="656"/>
      <point x="737" y="745"/>
      <point x="479" y="745" type="curve" smooth="yes"/>
      <point x="348" y="745"/>
      <point x="270" y="722"/>
      <point x="224" y="683" type="curve" smooth="yes"/>
      <point x="94" y="574" type="line" smooth="yes"/>
      <point x="49" y="537"/>
      <point x="34" y="484"/>
      <point x="34" y="421" type="curve" smooth="yes"/>
      <point x="34" y="80" type="line" smooth="yes"/>
      <point x="34" y="-46"/>
      <point x="92" y="-134"/>
      <point x="350" y="-134" type="curve" smooth="yes"/>
      <point x="480" y="-134"/>
      <point x="558" y="-111"/>
    </contour>
    <contour>
      <point x="409" y="225" type="curve" smooth="yes"/>
      <point x="409" y="410" type="line"/>
      <point x="418" y="404"/>
      <point x="420" y="395"/>
      <point x="420" y="385" type="curve" smooth="yes"/>
      <point x="420" y="200" type="line"/>
      <point x="411" y="206"/>
      <point x="409" y="215"/>
    </contour>
    <contour>
      <point x="784" y="189" type="line" smooth="yes"/>
      <point x="784" y="67"/>
      <point x="725" y="-15"/>
      <point x="479" y="-15" type="curve" smooth="yes"/>
      <point x="233" y="-15"/>
      <point x="173" y="67"/>
      <point x="173" y="189" type="curve" smooth="yes"/>
      <point x="173" y="530" type="line" smooth="yes"/>
      <point x="173" y="652"/>
      <point x="233" y="735"/>
      <point x="479" y="735" type="curve" smooth="yes"/>
      <point x="725" y="735"/>
      <point x="784" y="652"/>
      <point x="784" y="530" type="curve" smooth="yes"/>
    </contour>
    <contour>
      <point x="399" y="225" type="line" smooth="yes"/>
      <point x="399" y="198"/>
      <point x="411" y="178"/>
      <point x="479" y="178" type="curve" smooth="yes"/>
      <point x="548" y="178"/>
      <point x="559" y="198"/>
      <point x="559" y="225" type="curve" smooth="yes"/>
      <point x="559" y="494" type="line" smooth="yes"/>
      <point x="559" y="520"/>
      <point x="548" y="540"/>
      <point x="479" y="540" type="curve" smooth="yes"/>
      <point x="411" y="540"/>
      <point x="399" y="520"/>
      <point x="399" y="494" type="curve" smooth="yes"/>
    </contour>
    <contour>
      <point x="281" y="212" type="line" smooth="yes"/>
      <point x="281" y="132"/>
      <point x="322" y="77"/>
      <point x="478" y="77" type="curve" smooth="yes"/>
      <point x="634" y="77"/>
      <point x="677" y="132"/>
      <point x="677" y="212" type="curve" smooth="yes"/>
      <point x="677" y="507" type="line" smooth="yes"/>
      <point x="677" y="586"/>
      <point x="634" y="642"/>
      <point x="478" y="642" type="curve" smooth="yes"/>
      <point x="322" y="642"/>
      <point x="281" y="587"/>
      <point x="281" y="507" type="curve" smooth="yes"/>
    </contour>
    <contour>
      <point x="478" y="632" type="curve" smooth="yes"/>
      <point x="622" y="632"/>
      <point x="667" y="582"/>
      <point x="667" y="507" type="curve" smooth="yes"/>
      <point x="667" y="212" type="line" smooth="yes"/>
      <point x="667" y="136"/>
      <point x="622" y="87"/>
      <point x="478" y="87" type="curve" smooth="yes"/>
      <point x="334" y="87"/>
      <point x="291" y="136"/>
      <point x="291" y="212" type="curve" smooth="yes"/>
      <point x="291" y="507" type="line" smooth="yes"/>
      <point x="291" y="583"/>
      <point x="334" y="632"/>
    </contour>
    <contour>
      <point x="403" y="747" type="move" name="top"/>
    </contour>
    <contour>
      <point x="403" y="0" type="move" name="bottom"/>
    </contour>
  </outline>
</glyph>
<glyph name="one" format="1">
  <advance width="701"/>
  <unicode hex="0031"/>
  <outline>
    <contour>
      <point x="512" y="-119" type="line" smooth="yes"/>
      <point x="526" y="-119"/>
      <point x="537" y="-115"/>
      <point x="543" y="-109" type="curve"/>
      <point x="673" y="-1" type="line" smooth="yes"/>
      <point x="682" y="7"/>
      <point x="687" y="18"/>
      <point x="687" y="36" type="curve" smooth="yes"/>
      <point x="687" y="157" type="line" smooth="yes"/>
      <point x="687" y="189"/>
      <point x="673" y="203"/>
      <point x="641" y="203" type="curve" smooth="yes"/>
      <point x="555" y="203" type="line"/>
      <point x="555" y="684" type="line" smooth="yes"/>
      <point x="555" y="716"/>
      <point x="541" y="730"/>
      <point x="509" y="730" type="curve" smooth="yes"/>
      <point x="219" y="730" type="line" smooth="yes"/>
      <point x="205" y="730"/>
      <point x="194" y="727"/>
      <point x="187" y="721" type="curve" smooth="yes"/>
      <point x="58" y="612" type="line" smooth="yes"/>
      <point x="49" y="604"/>
      <point x="44" y="593"/>
      <point x="44" y="575" type="curve" smooth="yes"/>
      <point x="44" y="454" type="line" smooth="yes"/>
      <point x="44" y="422"/>
      <point x="58" y="408"/>
      <point x="90" y="408" type="curve" smooth="yes"/>
      <point x="172" y="408" type="line"/>
      <point x="172" y="197" type="line"/>
      <point x="171" y="196"/>
      <point x="169" y="195"/>
      <point x="167" y="194" type="curve" smooth="yes"/>
      <point x="38" y="85" type="line" smooth="yes"/>
      <point x="29" y="77"/>
      <point x="24" y="66"/>
      <point x="24" y="48" type="curve" smooth="yes"/>
      <point x="24" y="-73" type="line" smooth="yes"/>
      <point x="24" y="-105"/>
      <point x="38" y="-119"/>
      <point x="70" y="-119" type="curve" smooth="yes"/>
    </contour>
    <contour>
      <point x="641" y="0" type="curve" smooth="yes"/>
      <point x="199" y="0" type="line" smooth="yes"/>
      <point x="174" y="0"/>
      <point x="163" y="11"/>
      <point x="163" y="36" type="curve"/>
      <point x="163" y="157" type="line"/>
      <point x="163" y="182"/>
      <point x="174" y="193"/>
      <point x="199" y="193" type="curve" smooth="yes"/>
      <point x="311" y="193" type="line"/>
      <point x="311" y="527" type="line"/>
      <point x="219" y="527" type="line" smooth="yes"/>
      <point x="194" y="527"/>
      <point x="183" y="538"/>
      <point x="183" y="563" type="curve" smooth="yes"/>
      <point x="183" y="684" type="line" smooth="yes"/>
      <point x="183" y="709"/>
      <point x="194" y="720"/>
      <point x="219" y="720" type="curve" smooth="yes"/>
      <point x="509" y="720" type="line" smooth="yes"/>
      <point x="534" y="720"/>
      <point x="545" y="709"/>
      <point x="545" y="684" type="curve" smooth="yes"/>
      <point x="545" y="193" type="line"/>
      <point x="641" y="193" type="line"/>
      <point x="666" y="193"/>
      <point x="677" y="182"/>
      <point x="677" y="157" type="curve" smooth="yes"/>
      <point x="677" y="36" type="line"/>
      <point x="677" y="11"/>
      <point x="666" y="0"/>
    </contour>
    <contour>
      <point x="253" y="85" type="line"/>
      <point x="587" y="85" type="line"/>
      <point x="587" y="95" type="line"/>
      <point x="433" y="95" type="line"/>
      <point x="433" y="630" type="line"/>
      <point x="273" y="630" type="line"/>
      <point x="273" y="620" type="line"/>
      <point x="423" y="620" type="line"/>
      <point x="423" y="95" type="line"/>
      <point x="253" y="95" type="line"/>
    </contour>
  </outline>
</glyph>
<glyph name="two" format="1">
  <advance width="739"/>
  <unicode hex="0032"/>
  <outline>
    <contour>
      <point x="538" y="-119" type="line" smooth="yes"/>
      <point x="552" y="-119"/>
      <point x="563" y="-115"/>
      <point x="569" y="-109" type="curve"/>
      <point x="699" y="-1" type="line" smooth="yes"/>
      <point x="708" y="7"/>
      <point x="713" y="18"/>
      <point x="713" y="36" type="curve" smooth="yes"/>
      <point x="713" y="153" type="line" smooth="yes"/>
      <point x="713" y="185"/>
      <point x="699" y="199"/>
      <point x="667" y="199" type="curve" smooth="yes"/>
      <point x="497" y="199" type="line"/>
      <point x="507" y="205"/>
      <point x="515" y="211"/>
      <point x="523" y="217" type="curve" smooth="yes"/>
      <point x="652" y="325" type="line" smooth="yes"/>
      <point x="690" y="356"/>
      <point x="710" y="398"/>
      <point x="710" y="460" type="curve" smooth="yes"/>
      <point x="710" y="554" type="line" smooth="yes"/>
      <point x="710" y="668"/>
      <point x="645" y="730"/>
      <point x="524" y="730" type="curve" smooth="yes"/>
      <point x="229" y="730" type="line" smooth="yes"/>
      <point x="215" y="730"/>
      <point x="204" y="727"/>
      <point x="197" y="721" type="curve" smooth="yes"/>
      <point x="68" y="612" type="line" smooth="yes"/>
      <point x="59" y="604"/>
      <point x="54" y="593"/>
      <point x="54" y="575" type="curve" smooth="yes"/>
      <point x="54" y="458" type="line" smooth="yes"/>
      <point x="54" y="426"/>
      <point x="68" y="412"/>
      <point x="100" y="412" type="curve" smooth="yes"/>
      <point x="245" y="412" type="line"/>
      <point x="232" y="405"/>
      <point x="220" y="398"/>
      <point x="209" y="389" type="curve" smooth="yes"/>
      <point x="80" y="280" type="line" smooth="yes"/>
      <point x="40" y="247"/>
      <point x="16" y="196"/>
      <point x="16" y="99" type="curve" smooth="yes"/>
      <point x="16" y="-73" type="line" smooth="yes"/>
      <point x="16" y="-105"/>
      <point x="30" y="-119"/>
      <point x="62" y="-119" type="curve" smooth="yes"/>
    </contour>
    <contour>
      <point x="667" y="0" type="curve" smooth="yes"/>
      <point x="191" y="0" type="line" smooth="yes"/>
      <point x="166" y="0"/>
      <point x="155" y="11"/>
      <point x="155" y="36" type="curve" smooth="yes"/>
      <point x="155" y="208" type="line" smooth="yes"/>
      <point x="155" y="363"/>
      <point x="220" y="399"/>
      <point x="312" y="427" type="curve" smooth="yes"/>
      <point x="446" y="469" type="line" smooth="yes"/>
      <point x="467" y="475"/>
      <point x="473" y="483"/>
      <point x="473" y="505" type="curve" smooth="yes"/>
      <point x="473" y="525"/>
      <point x="466" y="531"/>
      <point x="446" y="531" type="curve" smooth="yes"/>
      <point x="229" y="531" type="line" smooth="yes"/>
      <point x="204" y="531"/>
      <point x="193" y="542"/>
      <point x="193" y="567" type="curve" smooth="yes"/>
      <point x="193" y="684" type="line" smooth="yes"/>
      <point x="193" y="709"/>
      <point x="204" y="720"/>
      <point x="229" y="720" type="curve" smooth="yes"/>
      <point x="524" y="720" type="line" smooth="yes"/>
      <point x="638" y="720"/>
      <point x="700" y="662"/>
      <point x="700" y="554" type="curve" smooth="yes"/>
      <point x="700" y="460" type="line" smooth="yes"/>
      <point x="700" y="359"/>
      <point x="641" y="313"/>
      <point x="544" y="283" type="curve" smooth="yes"/>
      <point x="408" y="240" type="line" smooth="yes"/>
      <point x="388" y="234"/>
      <point x="382" y="232"/>
      <point x="382" y="210" type="curve" smooth="yes"/>
      <point x="382" y="189" type="line"/>
      <point x="667" y="189" type="line"/>
      <point x="692" y="189"/>
      <point x="703" y="178"/>
      <point x="703" y="153" type="curve" smooth="yes"/>
      <point x="703" y="36" type="line" smooth="yes"/>
      <point x="703" y="11"/>
      <point x="692" y="0"/>
    </contour>
    <contour>
      <point x="319" y="328" type="line" smooth="yes"/>
      <point x="278" y="314"/>
      <point x="264" y="295"/>
      <point x="264" y="246" type="curve" smooth="yes"/>
      <point x="264" y="90" type="line"/>
      <point x="613" y="90" type="line"/>
      <point x="613" y="100" type="line"/>
      <point x="273" y="100" type="line"/>
      <point x="273" y="246" type="line" smooth="yes"/>
      <point x="273" y="291"/>
      <point x="285" y="306"/>
      <point x="323" y="319" type="curve" smooth="yes"/>
      <point x="556" y="396" type="line"/>
      <point x="577" y="405"/>
      <point x="591" y="421"/>
      <point x="591" y="452" type="curve" smooth="yes"/>
      <point x="591" y="543" type="line" smooth="yes"/>
      <point x="591" y="610"/>
      <point x="552" y="630"/>
      <point x="484" y="630" type="curve" smooth="yes"/>
      <point x="283" y="630" type="line"/>
      <point x="283" y="620" type="line"/>
      <point x="484" y="620" type="line" smooth="yes"/>
      <point x="544" y="620"/>
      <point x="581" y="604"/>
      <point x="581" y="543" type="curve" smooth="yes"/>
      <point x="581" y="452" type="line" smooth="yes"/>
      <point x="581" y="427"/>
      <point x="569" y="412"/>
      <point x="552" y="405" type="curve"/>
    </contour>
  </outline>
</glyph>
<glyph name="three" format="1">
  <advance width="737"/>
  <unicode hex="0033"/>
  <outline>
    <contour>
      <point x="71" y="-119" type="curve" smooth="yes"/>
      <point x="387" y="-119" type="line" smooth="yes"/>
      <point x="452" y="-119"/>
      <point x="502" y="-103"/>
      <point x="536" y="-74" type="curve" smooth="yes"/>
      <point x="664" y="34" type="line" smooth="yes"/>
      <point x="702" y="65"/>
      <point x="720" y="110"/>
      <point x="720" y="166" type="curve" smooth="yes"/>
      <point x="720" y="266" type="line" smooth="yes"/>
      <point x="720" y="351"/>
      <point x="692" y="399"/>
      <point x="613" y="416" type="curve"/>
      <point x="615" y="418" type="line" smooth="yes"/>
      <point x="642" y="441"/>
      <point x="653" y="475"/>
      <point x="653" y="519" type="curve" smooth="yes"/>
      <point x="653" y="577" type="line" smooth="yes"/>
      <point x="653" y="670"/>
      <point x="598" y="730"/>
      <point x="479" y="730" type="curve" smooth="yes"/>
      <point x="200" y="730" type="line" smooth="yes"/>
      <point x="186" y="730"/>
      <point x="175" y="727"/>
      <point x="168" y="721" type="curve" smooth="yes"/>
      <point x="39" y="612" type="line" smooth="yes"/>
      <point x="30" y="604"/>
      <point x="25" y="593"/>
      <point x="25" y="575" type="curve" smooth="yes"/>
      <point x="25" y="456" type="line" smooth="yes"/>
      <point x="25" y="424"/>
      <point x="39" y="410"/>
      <point x="71" y="410" type="curve" smooth="yes"/>
      <point x="196" y="410" type="line"/>
      <point x="120" y="346" type="line" smooth="yes"/>
      <point x="111" y="338"/>
      <point x="106" y="327"/>
      <point x="106" y="309" type="curve" smooth="yes"/>
      <point x="106" y="202" type="line"/>
      <point x="106" y="178"/>
      <point x="114" y="164"/>
      <point x="132" y="159" type="curve"/>
      <point x="39" y="81" type="line" smooth="yes"/>
      <point x="30" y="73"/>
      <point x="25" y="62"/>
      <point x="25" y="44" type="curve" smooth="yes"/>
      <point x="25" y="-73" type="line" smooth="yes"/>
      <point x="25" y="-105"/>
      <point x="39" y="-119"/>
    </contour>
    <contour>
      <point x="200" y="189" type="curve" smooth="yes"/>
      <point x="451" y="189" type="line" smooth="yes"/>
      <point x="483" y="189"/>
      <point x="489" y="203"/>
      <point x="489" y="219" type="curve" smooth="yes"/>
      <point x="489" y="246" type="line" smooth="yes"/>
      <point x="489" y="262"/>
      <point x="483" y="275"/>
      <point x="451" y="275" type="curve" smooth="yes"/>
      <point x="281" y="275" type="line" smooth="yes"/>
      <point x="256" y="275"/>
      <point x="245" y="286"/>
      <point x="245" y="311" type="curve" smooth="yes"/>
      <point x="245" y="418" type="line" smooth="yes"/>
      <point x="245" y="443"/>
      <point x="256" y="454"/>
      <point x="281" y="454" type="curve" smooth="yes"/>
      <point x="386" y="454" type="line" smooth="yes"/>
      <point x="418" y="454"/>
      <point x="424" y="468"/>
      <point x="424" y="484" type="curve" smooth="yes"/>
      <point x="424" y="499" type="line" smooth="yes"/>
      <point x="424" y="515"/>
      <point x="418" y="529"/>
      <point x="386" y="529" type="curve" smooth="yes"/>
      <point x="200" y="529" type="line" smooth="yes"/>
      <point x="175" y="529"/>
      <point x="164" y="540"/>
      <point x="164" y="565" type="curve" smooth="yes"/>
      <point x="164" y="684" type="line" smooth="yes"/>
      <point x="164" y="709"/>
      <point x="175" y="720"/>
      <point x="200" y="720" type="curve" smooth="yes"/>
      <point x="479" y="720" type="line" smooth="yes"/>
      <point x="590" y="720"/>
      <point x="643" y="665"/>
      <point x="643" y="577" type="curve" smooth="yes"/>
      <point x="643" y="519" type="line" smooth="yes"/>
      <point x="643" y="468"/>
      <point x="628" y="430"/>
      <point x="584" y="411" type="curve"/>
      <point x="679" y="400"/>
      <point x="710" y="354"/>
      <point x="710" y="266" type="curve" smooth="yes"/>
      <point x="710" y="166" type="line" smooth="yes"/>
      <point x="710" y="63"/>
      <point x="644" y="0"/>
      <point x="516" y="0" type="curve" smooth="yes"/>
      <point x="200" y="0" type="line" smooth="yes"/>
      <point x="175" y="0"/>
      <point x="164" y="11"/>
      <point x="164" y="36" type="curve" smooth="yes"/>
      <point x="164" y="153" type="line" smooth="yes"/>
      <point x="164" y="178"/>
      <point x="175" y="189"/>
    </contour>
    <contour>
      <point x="335" y="359" type="line"/>
      <point x="487" y="359" type="line" smooth="yes"/>
      <point x="564" y="359"/>
      <point x="595" y="326"/>
      <point x="595" y="259" type="curve" smooth="yes"/>
      <point x="595" y="190" type="line" smooth="yes"/>
      <point x="595" y="135"/>
      <point x="574" y="100"/>
      <point x="474" y="100" type="curve" smooth="yes"/>
      <point x="254" y="100" type="line"/>
      <point x="254" y="90" type="line"/>
      <point x="474" y="90" type="line" smooth="yes"/>
      <point x="586" y="90"/>
      <point x="605" y="131"/>
      <point x="605" y="190" type="curve" smooth="yes"/>
      <point x="605" y="259" type="line" smooth="yes"/>
      <point x="605" y="329"/>
      <point x="572" y="367"/>
      <point x="489" y="367" type="curve" smooth="yes"/>
      <point x="473" y="367" type="line"/>
      <point x="533" y="380"/>
      <point x="539" y="422"/>
      <point x="539" y="460" type="curve" smooth="yes"/>
      <point x="539" y="524" type="line" smooth="yes"/>
      <point x="539" y="582"/>
      <point x="519" y="630"/>
      <point x="408" y="630" type="curve" smooth="yes"/>
      <point x="254" y="630" type="line"/>
      <point x="254" y="620" type="line"/>
      <point x="408" y="620" type="line"/>
      <point x="506" y="620"/>
      <point x="529" y="580"/>
      <point x="529" y="528" type="curve" smooth="yes"/>
      <point x="529" y="460" type="line" smooth="yes"/>
      <point x="529" y="412"/>
      <point x="519" y="369"/>
      <point x="418" y="369" type="curve" smooth="yes"/>
      <point x="335" y="369" type="line"/>
    </contour>
  </outline>
</glyph>
<glyph name="four" format="1">
  <advance width="809"/>
  <unicode hex="0034"/>
  <outline>
    <contour>
      <point x="590" y="-119" type="line" smooth="yes"/>
      <point x="604" y="-119"/>
      <point x="615" y="-115"/>
      <point x="621" y="-109" type="curve"/>
      <point x="751" y="-1" type="line" smooth="yes"/>
      <point x="760" y="7"/>
      <point x="765" y="18"/>
      <point x="765" y="36" type="curve" smooth="yes"/>
      <point x="765" y="684" type="line" smooth="yes"/>
      <point x="765" y="716"/>
      <point x="751" y="730"/>
      <point x="719" y="730" type="curve" smooth="yes"/>
      <point x="565" y="730" type="line" smooth="yes"/>
      <point x="551" y="730"/>
      <point x="540" y="727"/>
      <point x="533" y="721" type="curve" smooth="yes"/>
      <point x="415" y="621" type="line"/>
      <point x="415" y="684" type="line" smooth="yes"/>
      <point x="415" y="716"/>
      <point x="401" y="730"/>
      <point x="369" y="730" type="curve" smooth="yes"/>
      <point x="214" y="730" type="line" smooth="yes"/>
      <point x="200" y="730"/>
      <point x="189" y="727"/>
      <point x="182" y="721" type="curve" smooth="yes"/>
      <point x="53" y="612" type="line" smooth="yes"/>
      <point x="44" y="604"/>
      <point x="39" y="593"/>
      <point x="39" y="575" type="curve" smooth="yes"/>
      <point x="39" y="224" type="line" smooth="yes"/>
      <point x="39" y="104"/>
      <point x="93" y="48"/>
      <point x="231" y="48" type="curve" smooth="yes"/>
      <point x="390" y="48" type="line"/>
      <point x="390" y="-73" type="line" smooth="yes"/>
      <point x="390" y="-105"/>
      <point x="404" y="-119"/>
      <point x="436" y="-119" type="curve" smooth="yes"/>
    </contour>
    <contour>
      <point x="529" y="167" type="line"/>
      <point x="360" y="167" type="line" smooth="yes"/>
      <point x="230" y="167"/>
      <point x="178" y="219"/>
      <point x="178" y="333" type="curve" smooth="yes"/>
      <point x="178" y="684" type="line" smooth="yes"/>
      <point x="178" y="709"/>
      <point x="189" y="720"/>
      <point x="214" y="720" type="curve" smooth="yes"/>
      <point x="369" y="720" type="line" smooth="yes"/>
      <point x="394" y="720"/>
      <point x="405" y="709"/>
      <point x="405" y="684" type="curve" smooth="yes"/>
      <point x="405" y="410" type="line" smooth="yes"/>
      <point x="405" y="389"/>
      <point x="417" y="376"/>
      <point x="436" y="376" type="curve" smooth="yes"/>
      <point x="529" y="376" type="line"/>
      <point x="529" y="684" type="line" smooth="yes"/>
      <point x="529" y="709"/>
      <point x="540" y="720"/>
      <point x="565" y="720" type="curve" smooth="yes"/>
      <point x="719" y="720" type="line" smooth="yes"/>
      <point x="744" y="720"/>
      <point x="755" y="709"/>
      <point x="755" y="684" type="curve" smooth="yes"/>
      <point x="755" y="36" type="line" smooth="yes"/>
      <point x="755" y="11"/>
      <point x="744" y="0"/>
      <point x="719" y="0" type="curve" smooth="yes"/>
      <point x="565" y="0" type="line" smooth="yes"/>
      <point x="540" y="0"/>
      <point x="529" y="11"/>
      <point x="529" y="36" type="curve" smooth="yes"/>
    </contour>
    <contour>
      <point x="637" y="90" type="line"/>
      <point x="647" y="90" type="line"/>
      <point x="647" y="630" type="line"/>
      <point x="637" y="630" type="line"/>
      <point x="637" y="277" type="line"/>
      <point x="398" y="277" type="line" smooth="yes"/>
      <point x="329" y="277"/>
      <point x="297" y="308"/>
      <point x="297" y="372" type="curve" smooth="yes"/>
      <point x="297" y="630" type="line"/>
      <point x="287" y="630" type="line"/>
      <point x="287" y="372" type="line" smooth="yes"/>
      <point x="287" y="302"/>
      <point x="321" y="267"/>
      <point x="398" y="267" type="curve" smooth="yes"/>
      <point x="637" y="267" type="line"/>
    </contour>
  </outline>
</glyph>
<glyph name="five" format="1">
  <advance width="747"/>
  <unicode hex="0035"/>
  <outline>
    <contour>
      <point x="77" y="-119" type="curve" smooth="yes"/>
      <point x="395" y="-119" type="line" smooth="yes"/>
      <point x="457" y="-119"/>
      <point x="507" y="-102"/>
      <point x="542" y="-73" type="curve" smooth="yes"/>
      <point x="672" y="36" type="line" smooth="yes"/>
      <point x="709" y="67"/>
      <point x="729" y="112"/>
      <point x="729" y="166" type="curve" smooth="yes"/>
      <point x="729" y="305" type="line" smooth="yes"/>
      <point x="729" y="395"/>
      <point x="683" y="449"/>
      <point x="607" y="467" type="curve"/>
      <point x="679" y="528" type="line" smooth="yes"/>
      <point x="688" y="536"/>
      <point x="693" y="547"/>
      <point x="693" y="565" type="curve" smooth="yes"/>
      <point x="693" y="684" type="line" smooth="yes"/>
      <point x="693" y="716"/>
      <point x="679" y="730"/>
      <point x="647" y="730" type="curve" smooth="yes"/>
      <point x="216" y="730" type="line" smooth="yes"/>
      <point x="202" y="730"/>
      <point x="191" y="727"/>
      <point x="184" y="721" type="curve" smooth="yes"/>
      <point x="55" y="612" type="line" smooth="yes"/>
      <point x="46" y="604"/>
      <point x="41" y="593"/>
      <point x="41" y="575" type="curve" smooth="yes"/>
      <point x="41" y="201" type="line" smooth="yes"/>
      <point x="41" y="169"/>
      <point x="55" y="155"/>
      <point x="87" y="155" type="curve" smooth="yes"/>
      <point x="133" y="155" type="line"/>
      <point x="45" y="81" type="line" smooth="yes"/>
      <point x="36" y="73"/>
      <point x="31" y="62"/>
      <point x="31" y="44" type="curve" smooth="yes"/>
      <point x="31" y="-73" type="line" smooth="yes"/>
      <point x="31" y="-105"/>
      <point x="45" y="-119"/>
    </contour>
    <contour>
      <point x="524" y="0" type="curve" smooth="yes"/>
      <point x="206" y="0" type="line" smooth="yes"/>
      <point x="181" y="0"/>
      <point x="170" y="11"/>
      <point x="170" y="36" type="curve" smooth="yes"/>
      <point x="170" y="153" type="line" smooth="yes"/>
      <point x="170" y="178"/>
      <point x="181" y="189"/>
      <point x="206" y="189" type="curve" smooth="yes"/>
      <point x="464" y="189" type="line" smooth="yes"/>
      <point x="480" y="189"/>
      <point x="491" y="196"/>
      <point x="491" y="212" type="curve" smooth="yes"/>
      <point x="491" y="251" type="line" smooth="yes"/>
      <point x="491" y="267"/>
      <point x="480" y="274"/>
      <point x="464" y="274" type="curve" smooth="yes"/>
      <point x="216" y="274" type="line" smooth="yes"/>
      <point x="191" y="274"/>
      <point x="180" y="285"/>
      <point x="180" y="310" type="curve" smooth="yes"/>
      <point x="180" y="684" type="line" smooth="yes"/>
      <point x="180" y="709"/>
      <point x="191" y="720"/>
      <point x="216" y="720" type="curve" smooth="yes"/>
      <point x="647" y="720" type="line" smooth="yes"/>
      <point x="672" y="720"/>
      <point x="683" y="709"/>
      <point x="683" y="684" type="curve" smooth="yes"/>
      <point x="683" y="565" type="line" smooth="yes"/>
      <point x="683" y="540"/>
      <point x="672" y="529"/>
      <point x="647" y="529" type="curve" smooth="yes"/>
      <point x="407" y="529" type="line"/>
      <point x="407" y="464" type="line"/>
      <point x="544" y="464" type="line" smooth="yes"/>
      <point x="652" y="464"/>
      <point x="719" y="411"/>
      <point x="719" y="305" type="curve" smooth="yes"/>
      <point x="719" y="166" type="line" smooth="yes"/>
      <point x="719" y="64"/>
      <point x="644" y="0"/>
    </contour>
    <contour>
      <point x="260" y="90" type="line"/>
      <point x="496" y="90" type="line" smooth="yes"/>
      <point x="579" y="90"/>
      <point x="610" y="120"/>
      <point x="610" y="188" type="curve" smooth="yes"/>
      <point x="610" y="276" type="line" smooth="yes"/>
      <point x="610" y="345"/>
      <point x="575" y="374"/>
      <point x="505" y="374" type="curve" smooth="yes"/>
      <point x="299" y="374" type="line"/>
      <point x="299" y="620" type="line"/>
      <point x="593" y="620" type="line"/>
      <point x="593" y="630" type="line"/>
      <point x="289" y="630" type="line"/>
      <point x="289" y="364" type="line"/>
      <point x="505" y="364" type="line" smooth="yes"/>
      <point x="567" y="364"/>
      <point x="600" y="339"/>
      <point x="600" y="276" type="curve" smooth="yes"/>
      <point x="600" y="188" type="line" smooth="yes"/>
      <point x="600" y="126"/>
      <point x="571" y="100"/>
      <point x="496" y="100" type="curve" smooth="yes"/>
      <point x="260" y="100" type="line"/>
    </contour>
  </outline>
</glyph>
<glyph name="six" format="2">
  <advance width="793"/>
  <unicode hex="0036"/>
  <outline>
    <contour>
      <point x="344" y="-134" type="curve" smooth="yes"/>
      <point x="463" y="-134"/>
      <point x="537" y="-112"/>
      <point x="581" y="-75" type="curve" smooth="yes"/>
      <point x="711" y="34" type="line" smooth="yes"/>
      <point x="756" y="71"/>
      <point x="771" y="124"/>
      <point x="771" y="187" type="curve" smooth="yes"/>
      <point x="771" y="283" type="line" smooth="yes"/>
      <point x="771" y="387"/>
      <point x="732" y="450"/>
      <point x="608" y="468" type="curve"/>
      <point x="681" y="529" type="line" smooth="yes"/>
      <point x="690" y="537"/>
      <point x="695" y="548"/>
      <point x="695" y="566" type="curve" smooth="yes"/>
      <point x="695" y="684" type="line" smooth="yes"/>
      <point x="695" y="716"/>
      <point x="682" y="730"/>
      <point x="649" y="730" type="curve" smooth="yes"/>
      <point x="419" y="730" type="line" smooth="yes"/>
      <point x="327" y="730"/>
      <point x="265" y="711"/>
      <point x="226" y="678" type="curve" smooth="yes"/>
      <point x="97" y="569" type="line" smooth="yes"/>
      <point x="51" y="531"/>
      <point x="34" y="474"/>
      <point x="34" y="406" type="curve" smooth="yes"/>
      <point x="34" y="108" type="line" smooth="yes"/>
      <point x="34" y="-18"/>
      <point x="86" y="-134"/>
    </contour>
    <contour>
      <point x="473" y="-15" type="curve" smooth="yes"/>
      <point x="227" y="-15"/>
      <point x="173" y="65"/>
      <point x="173" y="187" type="curve" smooth="yes"/>
      <point x="173" y="515" type="line" smooth="yes"/>
      <point x="173" y="637"/>
      <point x="230" y="720"/>
      <point x="419" y="720" type="curve" smooth="yes"/>
      <point x="649" y="720" type="line" smooth="yes"/>
      <point x="675" y="720"/>
      <point x="685" y="709"/>
      <point x="685" y="684" type="curve" smooth="yes"/>
      <point x="685" y="566" type="line" smooth="yes"/>
      <point x="685" y="541"/>
      <point x="674" y="530"/>
      <point x="649" y="530" type="curve" smooth="yes"/>
      <point x="462" y="530" type="line" smooth="yes"/>
      <point x="413" y="530"/>
      <point x="399" y="519"/>
      <point x="399" y="470" type="curve" smooth="yes"/>
      <point x="399" y="448" type="line"/>
      <point x="431" y="458"/>
      <point x="473" y="463"/>
      <point x="526" y="463" type="curve" smooth="yes"/>
      <point x="707" y="463"/>
      <point x="761" y="402"/>
      <point x="761" y="283" type="curve" smooth="yes"/>
      <point x="761" y="187" type="line" smooth="yes"/>
      <point x="761" y="65"/>
      <point x="703" y="-15"/>
    </contour>
    <contour>
      <point x="399" y="262" type="curve" smooth="yes"/>
      <point x="399" y="203" type="line" smooth="yes"/>
      <point x="399" y="182"/>
      <point x="408" y="166"/>
      <point x="466" y="166" type="curve" smooth="yes"/>
      <point x="526" y="166"/>
      <point x="535" y="182"/>
      <point x="535" y="203" type="curve" smooth="yes"/>
      <point x="535" y="262" type="line" smooth="yes"/>
      <point x="535" y="282"/>
      <point x="526" y="298"/>
      <point x="466" y="298" type="curve" smooth="yes"/>
      <point x="408" y="298"/>
      <point x="399" y="282"/>
    </contour>
    <contour>
      <point x="476" y="71" type="curve" smooth="yes"/>
      <point x="576" y="71"/>
      <point x="653" y="86"/>
      <point x="653" y="187" type="curve" smooth="yes"/>
      <point x="653" y="275" type="line" smooth="yes"/>
      <point x="653" y="378"/>
      <point x="577" y="383"/>
      <point x="479" y="383" type="curve" smooth="yes"/>
      <point x="390" y="383"/>
      <point x="319" y="380"/>
      <point x="295" y="327" type="curve"/>
      <point x="295" y="515" type="line" smooth="yes"/>
      <point x="295" y="598"/>
      <point x="342" y="620"/>
      <point x="419" y="620" type="curve" smooth="yes"/>
      <point x="595" y="620" type="line"/>
      <point x="595" y="630" type="line"/>
      <point x="419" y="630" type="line" smooth="yes"/>
      <point x="334" y="630"/>
      <point x="285" y="604"/>
      <point x="285" y="515" type="curve" smooth="yes"/>
      <point x="285" y="187" type="line" smooth="yes"/>
      <point x="285" y="84"/>
      <point x="368" y="71"/>
    </contour>
    <contour>
      <point x="476" y="81" type="curve" smooth="yes"/>
      <point x="378" y="81"/>
      <point x="295" y="90"/>
      <point x="295" y="187" type="curve" smooth="yes"/>
      <point x="295" y="278" type="line"/>
      <point x="295" y="375"/>
      <point x="390" y="373"/>
      <point x="479" y="373" type="curve" smooth="yes"/>
      <point x="567" y="373"/>
      <point x="643" y="372"/>
      <point x="643" y="275" type="curve" smooth="yes"/>
      <point x="643" y="187" type="line" smooth="yes"/>
      <point x="643" y="92"/>
      <point x="568" y="81"/>
    </contour>
  </outline>
</glyph>
<glyph name="seven" format="1">
  <advance width="727"/>
  <unicode hex="0037"/>
  <outline>
    <contour>
      <point x="295" y="-119" type="line" smooth="yes"/>
      <point x="309" y="-119"/>
      <point x="320" y="-115"/>
      <point x="326" y="-109" type="curve"/>
      <point x="456" y="-1" type="line" smooth="yes"/>
      <point x="465" y="7"/>
      <point x="470" y="18"/>
      <point x="470" y="36" type="curve" smooth="yes"/>
      <point x="470" y="138" type="line"/>
      <point x="487" y="146"/>
      <point x="501" y="155"/>
      <point x="513" y="165" type="curve" smooth="yes"/>
      <point x="643" y="273" type="line" smooth="yes"/>
      <point x="681" y="306"/>
      <point x="700" y="352"/>
      <point x="700" y="431" type="curve" smooth="yes"/>
      <point x="700" y="684" type="line" smooth="yes"/>
      <point x="700" y="716"/>
      <point x="686" y="730"/>
      <point x="654" y="730" type="curve" smooth="yes"/>
      <point x="189" y="730" type="line" smooth="yes"/>
      <point x="175" y="730"/>
      <point x="164" y="727"/>
      <point x="157" y="721" type="curve" smooth="yes"/>
      <point x="28" y="612" type="line" smooth="yes"/>
      <point x="19" y="604"/>
      <point x="14" y="593"/>
      <point x="14" y="575" type="curve" smooth="yes"/>
      <point x="14" y="454" type="line" smooth="yes"/>
      <point x="14" y="422"/>
      <point x="28" y="408"/>
      <point x="60" y="408" type="curve" smooth="yes"/>
      <point x="324" y="408" type="line"/>
      <point x="324" y="405" type="line"/>
      <point x="304" y="396"/>
      <point x="287" y="386"/>
      <point x="273" y="375" type="curve" smooth="yes"/>
      <point x="144" y="266" type="line" smooth="yes"/>
      <point x="106" y="234"/>
      <point x="87" y="187"/>
      <point x="87" y="108" type="curve" smooth="yes"/>
      <point x="87" y="-73" type="line"/>
      <point x="87" y="-105"/>
      <point x="101" y="-119"/>
      <point x="133" y="-119" type="curve" smooth="yes"/>
    </contour>
    <contour>
      <point x="654" y="720" type="line"/>
      <point x="679" y="720"/>
      <point x="690" y="709"/>
      <point x="690" y="684" type="curve" smooth="yes"/>
      <point x="690" y="431" type="line" smooth="yes"/>
      <point x="690" y="304"/>
      <point x="641" y="265"/>
      <point x="534" y="233" type="curve" smooth="yes"/>
      <point x="460" y="211" type="line"/>
      <point x="460" y="36" type="line" smooth="yes"/>
      <point x="460" y="11"/>
      <point x="449" y="0"/>
      <point x="424" y="0" type="curve" smooth="yes"/>
      <point x="262" y="0" type="line" smooth="yes"/>
      <point x="237" y="0"/>
      <point x="226" y="11"/>
      <point x="226" y="36" type="curve" smooth="yes"/>
      <point x="226" y="217" type="line" smooth="yes"/>
      <point x="226" y="344"/>
      <point x="275" y="383"/>
      <point x="382" y="415" type="curve" smooth="yes"/>
      <point x="463" y="437" type="line"/>
      <point x="463" y="527" type="line"/>
      <point x="189" y="527" type="line" smooth="yes"/>
      <point x="164" y="527"/>
      <point x="153" y="538"/>
      <point x="153" y="563" type="curve" smooth="yes"/>
      <point x="153" y="684" type="line" smooth="yes"/>
      <point x="153" y="709"/>
      <point x="164" y="720"/>
      <point x="189" y="720" type="curve" smooth="yes"/>
    </contour>
    <contour>
      <point x="338" y="90" type="line"/>
      <point x="348" y="90" type="line"/>
      <point x="348" y="240" type="line" smooth="yes"/>
      <point x="348" y="265"/>
      <point x="360" y="279"/>
      <point x="377" y="286" type="curve" smooth="yes"/>
      <point x="547" y="354" type="line" smooth="yes"/>
      <point x="571" y="364"/>
      <point x="582" y="379"/>
      <point x="582" y="410" type="curve" smooth="yes"/>
      <point x="582" y="630" type="line"/>
      <point x="243" y="630" type="line"/>
      <point x="243" y="620" type="line"/>
      <point x="572" y="620" type="line"/>
      <point x="572" y="410" type="line" smooth="yes"/>
      <point x="572" y="385"/>
      <point x="563" y="372"/>
      <point x="543" y="364" type="curve" smooth="yes"/>
      <point x="373" y="296" type="line" smooth="yes"/>
      <point x="352" y="287"/>
      <point x="338" y="271"/>
      <point x="338" y="240" type="curve" smooth="yes"/>
    </contour>
  </outline>
</glyph>
<glyph name="eight" format="1">
  <advance width="811"/>
  <unicode hex="0038"/>
  <outline>
    <contour>
      <point x="342" y="-134" type="curve" smooth="yes"/>
      <point x="480" y="-134"/>
      <point x="562" y="-111"/>
      <point x="608" y="-72" type="curve" smooth="yes"/>
      <point x="737" y="36" type="line" smooth="yes"/>
      <point x="775" y="68"/>
      <point x="789" y="110"/>
      <point x="789" y="159" type="curve" smooth="yes"/>
      <point x="789" y="256" type="line" smooth="yes"/>
      <point x="789" y="344"/>
      <point x="751" y="394"/>
      <point x="699" y="414" type="curve"/>
      <point x="704" y="418" type="line" smooth="yes"/>
      <point x="731" y="441"/>
      <point x="742" y="475"/>
      <point x="742" y="519" type="curve" smooth="yes"/>
      <point x="742" y="577" type="line" smooth="yes"/>
      <point x="742" y="679"/>
      <point x="686" y="745"/>
      <point x="472" y="745" type="curve" smooth="yes"/>
      <point x="357" y="745"/>
      <point x="287" y="726"/>
      <point x="247" y="692" type="curve" smooth="yes"/>
      <point x="118" y="583" type="line" smooth="yes"/>
      <point x="83" y="555"/>
      <point x="70" y="515"/>
      <point x="70" y="468" type="curve" smooth="yes"/>
      <point x="70" y="410" type="line" smooth="yes"/>
      <point x="70" y="367"/>
      <point x="80" y="333"/>
      <point x="107" y="310" type="curve"/>
      <point x="76" y="284" type="line" smooth="yes"/>
      <point x="44" y="257"/>
      <point x="23" y="213"/>
      <point x="23" y="147" type="curve" smooth="yes"/>
      <point x="23" y="50" type="line" smooth="yes"/>
      <point x="23" y="-57"/>
      <point x="87" y="-134"/>
    </contour>
    <contour>
      <point x="779" y="256" type="curve" smooth="yes"/>
      <point x="779" y="159" type="line" smooth="yes"/>
      <point x="779" y="55"/>
      <point x="712" y="-15"/>
      <point x="471" y="-15" type="curve" smooth="yes"/>
      <point x="230" y="-15"/>
      <point x="162" y="55"/>
      <point x="162" y="159" type="curve" smooth="yes"/>
      <point x="162" y="256" type="line" smooth="yes"/>
      <point x="162" y="350"/>
      <point x="208" y="399"/>
      <point x="268" y="411" type="curve"/>
      <point x="224" y="430"/>
      <point x="209" y="468"/>
      <point x="209" y="519" type="curve" smooth="yes"/>
      <point x="209" y="577" type="line" smooth="yes"/>
      <point x="209" y="675"/>
      <point x="271" y="735"/>
      <point x="472" y="735" type="curve" smooth="yes"/>
      <point x="673" y="735"/>
      <point x="732" y="675"/>
      <point x="732" y="577" type="curve" smooth="yes"/>
      <point x="732" y="519" type="line" smooth="yes"/>
      <point x="732" y="468"/>
      <point x="717" y="430"/>
      <point x="673" y="411" type="curve"/>
      <point x="733" y="399"/>
      <point x="779" y="350"/>
    </contour>
    <contour>
      <point x="408" y="480" type="line"/>
      <point x="408" y="459"/>
      <point x="415" y="443"/>
      <point x="471" y="443" type="curve" smooth="yes"/>
      <point x="528" y="443"/>
      <point x="533" y="459"/>
      <point x="533" y="480" type="curve" smooth="yes"/>
      <point x="533" y="524" type="line" smooth="yes"/>
      <point x="533" y="544"/>
      <point x="528" y="560"/>
      <point x="471" y="560" type="curve" smooth="yes"/>
      <point x="415" y="560"/>
      <point x="408" y="544"/>
      <point x="408" y="524" type="curve" smooth="yes"/>
    </contour>
    <contour>
      <point x="383" y="197" type="line" smooth="yes"/>
      <point x="383" y="176"/>
      <point x="399" y="160"/>
      <point x="471" y="160" type="curve" smooth="yes"/>
      <point x="544" y="160"/>
      <point x="558" y="176"/>
      <point x="558" y="197" type="curve" smooth="yes"/>
      <point x="558" y="250" type="line" smooth="yes"/>
      <point x="558" y="270"/>
      <point x="544" y="286"/>
      <point x="471" y="286" type="curve" smooth="yes"/>
      <point x="399" y="286"/>
      <point x="383" y="270"/>
      <point x="383" y="250" type="curve" smooth="yes"/>
    </contour>
    <contour>
      <point x="471" y="67" type="curve" smooth="yes"/>
      <point x="632" y="67"/>
      <point x="673" y="111"/>
      <point x="673" y="173" type="curve" smooth="yes"/>
      <point x="673" y="266" type="line" smooth="yes"/>
      <point x="673" y="317"/>
      <point x="644" y="356"/>
      <point x="547" y="369" type="curve"/>
      <point x="611" y="380"/>
      <point x="637" y="408"/>
      <point x="637" y="455" type="curve" smooth="yes"/>
      <point x="637" y="550" type="line" smooth="yes"/>
      <point x="637" y="620"/>
      <point x="588" y="652"/>
      <point x="471" y="652" type="curve" smooth="yes"/>
      <point x="354" y="652"/>
      <point x="304" y="620"/>
      <point x="304" y="558" type="curve" smooth="yes"/>
      <point x="304" y="455" type="line" smooth="yes"/>
      <point x="304" y="408"/>
      <point x="331" y="380"/>
      <point x="395" y="369" type="curve"/>
      <point x="298" y="356"/>
      <point x="268" y="316"/>
      <point x="268" y="265" type="curve" smooth="yes"/>
      <point x="268" y="173" type="line" smooth="yes"/>
      <point x="268" y="111"/>
      <point x="310" y="67"/>
    </contour>
    <contour>
      <point x="314" y="558" type="line" smooth="yes"/>
      <point x="314" y="616"/>
      <point x="366" y="642"/>
      <point x="471" y="642" type="curve" smooth="yes"/>
      <point x="576" y="642"/>
      <point x="627" y="616"/>
      <point x="627" y="550" type="curve" smooth="yes"/>
      <point x="627" y="455" type="line" smooth="yes"/>
      <point x="627" y="397"/>
      <point x="577" y="374"/>
      <point x="471" y="374" type="curve" smooth="yes"/>
      <point x="365" y="374"/>
      <point x="314" y="397"/>
      <point x="314" y="455" type="curve" smooth="yes"/>
    </contour>
    <contour>
      <point x="278" y="265" type="line" smooth="yes"/>
      <point x="278" y="323"/>
      <point x="327" y="364"/>
      <point x="471" y="364" type="curve" smooth="yes"/>
      <point x="615" y="364"/>
      <point x="663" y="324"/>
      <point x="663" y="266" type="curve" smooth="yes"/>
      <point x="663" y="173" type="line" smooth="yes"/>
      <point x="663" y="115"/>
      <point x="616" y="77"/>
      <point x="471" y="77" type="curve" smooth="yes"/>
      <point x="326" y="77"/>
      <point x="278" y="115"/>
      <point x="278" y="173" type="curve" smooth="yes"/>
    </contour>
  </outline>
</glyph>
<glyph name="nine" format="1">
  <advance width="793"/>
  <unicode hex="0039"/>
  <outline>
    <contour>
      <point x="145" y="-119" type="curve" smooth="yes"/>
      <point x="375" y="-119" type="line" smooth="yes"/>
      <point x="466" y="-119"/>
      <point x="528" y="-99"/>
      <point x="567" y="-66" type="curve" smooth="yes"/>
      <point x="697" y="42" type="line" smooth="yes"/>
      <point x="743" y="81"/>
      <point x="760" y="137"/>
      <point x="760" y="205" type="curve" smooth="yes"/>
      <point x="760" y="533" type="line" smooth="yes"/>
      <point x="760" y="659"/>
      <point x="708" y="745"/>
      <point x="450" y="745" type="curve" smooth="yes"/>
      <point x="329" y="745"/>
      <point x="256" y="723"/>
      <point x="212" y="686" type="curve" smooth="yes"/>
      <point x="83" y="578" type="line" smooth="yes"/>
      <point x="38" y="541"/>
      <point x="23" y="488"/>
      <point x="23" y="424" type="curve" smooth="yes"/>
      <point x="23" y="328" type="line" smooth="yes"/>
      <point x="23" y="224"/>
      <point x="62" y="161"/>
      <point x="186" y="144" type="curve"/>
      <point x="113" y="82" type="line" smooth="yes"/>
      <point x="104" y="74"/>
      <point x="99" y="63"/>
      <point x="99" y="45" type="curve" smooth="yes"/>
      <point x="99" y="-73" type="line"/>
      <point x="99" y="-105"/>
      <point x="112" y="-119"/>
    </contour>
    <contour>
      <point x="504" y="0" type="curve" smooth="yes"/>
      <point x="274" y="0" type="line" smooth="yes"/>
      <point x="248" y="0"/>
      <point x="238" y="11"/>
      <point x="238" y="36" type="curve" smooth="yes"/>
      <point x="238" y="154" type="line" smooth="yes"/>
      <point x="238" y="179"/>
      <point x="249" y="190"/>
      <point x="274" y="190" type="curve" smooth="yes"/>
      <point x="461" y="190" type="line" smooth="yes"/>
      <point x="510" y="190"/>
      <point x="524" y="201"/>
      <point x="524" y="250" type="curve" smooth="yes"/>
      <point x="524" y="272" type="line"/>
      <point x="492" y="262"/>
      <point x="450" y="257"/>
      <point x="397" y="257" type="curve" smooth="yes"/>
      <point x="216" y="257"/>
      <point x="162" y="318"/>
      <point x="162" y="437" type="curve" smooth="yes"/>
      <point x="162" y="533" type="line" smooth="yes"/>
      <point x="162" y="655"/>
      <point x="220" y="735"/>
      <point x="450" y="735" type="curve" smooth="yes"/>
      <point x="696" y="735"/>
      <point x="750" y="655"/>
      <point x="750" y="533" type="curve" smooth="yes"/>
      <point x="750" y="205" type="line" smooth="yes"/>
      <point x="750" y="83"/>
      <point x="693" y="0"/>
    </contour>
    <contour>
      <point x="524" y="458" type="curve" smooth="yes"/>
      <point x="524" y="517" type="line" smooth="yes"/>
      <point x="524" y="538"/>
      <point x="515" y="554"/>
      <point x="457" y="554" type="curve" smooth="yes"/>
      <point x="397" y="554"/>
      <point x="388" y="538"/>
      <point x="388" y="517" type="curve" smooth="yes"/>
      <point x="388" y="458" type="line" smooth="yes"/>
      <point x="388" y="438"/>
      <point x="397" y="422"/>
      <point x="457" y="422" type="curve" smooth="yes"/>
      <point x="515" y="422"/>
      <point x="524" y="438"/>
    </contour>
    <contour>
      <point x="328" y="90" type="line"/>
      <point x="504" y="90" type="line" smooth="yes"/>
      <point x="589" y="90"/>
      <point x="638" y="116"/>
      <point x="638" y="205" type="curve" smooth="yes"/>
      <point x="638" y="533" type="line" smooth="yes"/>
      <point x="638" y="636"/>
      <point x="555" y="649"/>
      <point x="447" y="649" type="curve" smooth="yes"/>
      <point x="347" y="649"/>
      <point x="270" y="634"/>
      <point x="270" y="533" type="curve" smooth="yes"/>
      <point x="270" y="445" type="line" smooth="yes"/>
      <point x="270" y="342"/>
      <point x="346" y="337"/>
      <point x="444" y="337" type="curve" smooth="yes"/>
      <point x="533" y="337"/>
      <point x="604" y="340"/>
      <point x="628" y="393" type="curve"/>
      <point x="628" y="205" type="line" smooth="yes"/>
      <point x="628" y="122"/>
      <point x="581" y="100"/>
      <point x="504" y="100" type="curve" smooth="yes"/>
      <point x="328" y="100" type="line"/>
    </contour>
    <contour>
      <point x="444" y="347" type="curve" smooth="yes"/>
      <point x="356" y="347"/>
      <point x="280" y="348"/>
      <point x="280" y="445" type="curve" smooth="yes"/>
      <point x="280" y="533" type="line" smooth="yes"/>
      <point x="280" y="628"/>
      <point x="355" y="639"/>
      <point x="447" y="639" type="curve" smooth="yes"/>
      <point x="545" y="639"/>
      <point x="628" y="630"/>
      <point x="628" y="533" type="curve" smooth="yes"/>
      <point x="628" y="442" type="line"/>
      <point x="628" y="345"/>
      <point x="533" y="347"/>
    </contour>
  </outline>
</glyph>
<glyph name="colon" format="2">
  <advance width="484"/>
  <unicode hex="003A"/>
  <outline>
    <contour>
      <point x="279" y="-119" type="line" smooth="yes"/>
      <point x="293" y="-119"/>
      <point x="304" y="-115"/>
      <point x="310" y="-109" type="curve"/>
      <point x="440" y="-1" type="line" smooth="yes"/>
      <point x="449" y="7"/>
      <point x="454" y="18"/>
      <point x="454" y="36" type="curve" smooth="yes"/>
      <point x="454" y="239" type="line" smooth="yes"/>
      <point x="454" y="272"/>
      <point x="440" y="285"/>
      <point x="408" y="285" type="curve" smooth="yes"/>
      <point x="206" y="285" type="line" smooth="yes"/>
      <point x="191" y="285"/>
      <point x="181" y="282"/>
      <point x="174" y="276" type="curve" smooth="yes"/>
      <point x="44" y="167" type="line" smooth="yes"/>
      <point x="36" y="160"/>
      <point x="31" y="148"/>
      <point x="31" y="130" type="curve" smooth="yes"/>
      <point x="31" y="-73" type="line" smooth="yes"/>
      <point x="31" y="-105"/>
      <point x="45" y="-119"/>
      <point x="77" y="-119" type="curve" smooth="yes"/>
    </contour>
    <contour>
      <point x="408" y="0" type="curve" smooth="yes"/>
      <point x="206" y="0" type="line" smooth="yes"/>
      <point x="181" y="0"/>
      <point x="170" y="11"/>
      <point x="170" y="36" type="curve"/>
      <point x="170" y="239" type="line"/>
      <point x="170" y="265"/>
      <point x="181" y="275"/>
      <point x="206" y="275" type="curve" smooth="yes"/>
      <point x="408" y="275" type="line" smooth="yes"/>
      <point x="433" y="275"/>
      <point x="444" y="265"/>
      <point x="444" y="239" type="curve" smooth="yes"/>
      <point x="444" y="36" type="line" smooth="yes"/>
      <point x="444" y="11"/>
      <point x="433" y="0"/>
    </contour>
    <contour>
      <point x="302" y="90" type="line"/>
      <point x="312" y="90" type="line"/>
      <point x="312" y="185" type="line"/>
      <point x="302" y="185" type="line"/>
    </contour>
    <contour>
      <point x="349.0" y="278.0" type="line"/>
      <point x="440.0" y="354.0" type="line" smooth="yes"/>
      <point x="449.0" y="362.0"/>
      <point x="454.0" y="373.0"/>
      <point x="454.0" y="391.0" type="curve" smooth="yes"/>
      <point x="454.0" y="594.0" type="line" smooth="yes"/>
      <point x="454.0" y="627.0"/>
      <point x="440.0" y="640.0"/>
      <point x="408.0" y="640.0" type="curve" smooth="yes"/>
      <point x="206.0" y="640.0" type="line" smooth="yes"/>
      <point x="191.0" y="640.0"/>
      <point x="181.0" y="637.0"/>
      <point x="174.0" y="631.0" type="curve" smooth="yes"/>
      <point x="44.0" y="522.0" type="line" smooth="yes"/>
      <point x="36.0" y="515.0"/>
      <point x="31.0" y="503.0"/>
      <point x="31.0" y="485.0" type="curve" smooth="yes"/>
      <point x="31.0" y="282.0" type="line" smooth="yes"/>
      <point x="31.0" y="250.0"/>
      <point x="45.0" y="236.0"/>
      <point x="77.0" y="236.0" type="curve" smooth="yes"/>
      <point x="145.0" y="236.0" type="line"/>
      <point x="183" y="279" type="line"/>
    </contour>
    <contour>
      <point x="408" y="355" type="curve" smooth="yes"/>
      <point x="206" y="355" type="line" smooth="yes"/>
      <point x="181" y="355"/>
      <point x="170" y="366"/>
      <point x="170" y="391" type="curve"/>
      <point x="170" y="594" type="line"/>
      <point x="170" y="620"/>
      <point x="181" y="630"/>
      <point x="206" y="630" type="curve" smooth="yes"/>
      <point x="408" y="630" type="line" smooth="yes"/>
      <point x="433" y="630"/>
      <point x="444" y="620"/>
      <point x="444" y="594" type="curve" smooth="yes"/>
      <point x="444" y="391" type="line" smooth="yes"/>
      <point x="444" y="366"/>
      <point x="433" y="355"/>
    </contour>
    <contour>
      <point x="302" y="445" type="line"/>
      <point x="312" y="445" type="line"/>
      <point x="312" y="540" type="line"/>
      <point x="302" y="540" type="line"/>
    </contour>
  </outline>
</glyph>
<glyph name="semicolon" format="2">
  <advance width="484"/>
  <unicode hex="003B"/>
  <outline>
    <contour>
      <point x="351.0" y="280.0" type="line"/>
      <point x="440.0" y="354.0" type="line" smooth="yes"/>
      <point x="449.0" y="362.0"/>
      <point x="454.0" y="373.0"/>
      <point x="454.0" y="391.0" type="curve" smooth="yes"/>
      <point x="454.0" y="594.0" type="line" smooth="yes"/>
      <point x="454.0" y="627.0"/>
      <point x="440.0" y="640.0"/>
      <point x="408.0" y="640.0" type="curve" smooth="yes"/>
      <point x="206.0" y="640.0" type="line" smooth="yes"/>
      <point x="191.0" y="640.0"/>
      <point x="181.0" y="637.0"/>
      <point x="174.0" y="631.0" type="curve" smooth="yes"/>
      <point x="44.0" y="522.0" type="line" smooth="yes"/>
      <point x="36.0" y="515.0"/>
      <point x="31.0" y="503.0"/>
      <point x="31.0" y="485.0" type="curve" smooth="yes"/>
      <point x="31.0" y="282.0" type="line" smooth="yes"/>
      <point x="31.0" y="250.0"/>
      <point x="45.0" y="236.0"/>
      <point x="77.0" y="236.0" type="curve" smooth="yes"/>
      <point x="157.0" y="236.0" type="line"/>
      <point x="182" y="278" type="line"/>
    </contour>
    <contour>
      <point x="408" y="355" type="curve" smooth="yes"/>
      <point x="206" y="355" type="line" smooth="yes"/>
      <point x="181" y="355"/>
      <point x="170" y="366"/>
      <point x="170" y="391" type="curve"/>
      <point x="170" y="594" type="line"/>
      <point x="170" y="620"/>
      <point x="181" y="630"/>
      <point x="206" y="630" type="curve" smooth="yes"/>
      <point x="408" y="630" type="line" smooth="yes"/>
      <point x="433" y="630"/>
      <point x="444" y="620"/>
      <point x="444" y="594" type="curve" smooth="yes"/>
      <point x="444" y="391" type="line" smooth="yes"/>
      <point x="444" y="366"/>
      <point x="433" y="355"/>
    </contour>
    <contour>
      <point x="302" y="445" type="line"/>
      <point x="312" y="445" type="line"/>
      <point x="312" y="540" type="line"/>
      <point x="302" y="540" type="line"/>
    </contour>
    <component base="comma"/>
  </outline>
</glyph>
<glyph name="less" format="1">
  <advance width="814"/>
  <unicode hex="003C"/>
  <outline>
    <contour>
      <point x="607" y="-54" type="curve" smooth="yes"/>
      <point x="736" y="55" type="line" smooth="yes"/>
      <point x="744" y="62"/>
      <point x="749" y="73"/>
      <point x="749" y="90" type="curve" smooth="yes"/>
      <point x="749" y="222" type="line" smooth="yes"/>
      <point x="749" y="254"/>
      <point x="736" y="268"/>
      <point x="705" y="273" type="curve"/>
      <point x="522" y="322" type="line"/>
      <point x="577" y="336" type="line"/>
      <point x="588" y="339"/>
      <point x="597" y="342"/>
      <point x="604" y="348" type="curve" smooth="yes"/>
      <point x="734" y="457" type="line" smooth="yes"/>
      <point x="743" y="465"/>
      <point x="749" y="477"/>
      <point x="749" y="496" type="curve" smooth="yes"/>
      <point x="749" y="628" type="line" smooth="yes"/>
      <point x="749" y="663"/>
      <point x="734" y="675"/>
      <point x="701" y="669" type="curve"/>
      <point x="319" y="560" type="line" smooth="yes"/>
      <point x="283" y="549"/>
      <point x="254" y="536"/>
      <point x="232" y="519" type="curve" smooth="yes"/>
      <point x="103" y="410" type="line" smooth="yes"/>
      <point x="72" y="384"/>
      <point x="56" y="348"/>
      <point x="56" y="286" type="curve" smooth="yes"/>
      <point x="56" y="214" type="line" smooth="yes"/>
      <point x="56" y="109"/>
      <point x="102" y="75"/>
      <point x="190" y="49" type="curve" smooth="yes"/>
      <point x="572" y="-60" type="line" smooth="yes"/>
      <point x="588" y="-63"/>
      <point x="600" y="-60"/>
    </contour>
    <contour>
      <point x="703" y="59" type="curve" smooth="yes"/>
      <point x="322" y="168" type="line"/>
      <point x="239" y="192"/>
      <point x="195" y="224"/>
      <point x="195" y="323" type="curve" smooth="yes"/>
      <point x="195" y="395" type="line" smooth="yes"/>
      <point x="195" y="494"/>
      <point x="239" y="526"/>
      <point x="322" y="550" type="curve" smooth="yes"/>
      <point x="703" y="659" type="line" smooth="yes"/>
      <point x="728" y="664"/>
      <point x="739" y="654"/>
      <point x="739" y="628" type="curve" smooth="yes"/>
      <point x="739" y="496" type="line" smooth="yes"/>
      <point x="739" y="470"/>
      <point x="728" y="459"/>
      <point x="703" y="455" type="curve" smooth="yes"/>
      <point x="416" y="378" type="line" smooth="yes"/>
      <point x="402" y="375"/>
      <point x="399" y="371"/>
      <point x="399" y="359" type="curve" smooth="yes"/>
      <point x="399" y="347"/>
      <point x="402" y="343"/>
      <point x="416" y="340" type="curve" smooth="yes"/>
      <point x="703" y="263" type="line" smooth="yes"/>
      <point x="728" y="259"/>
      <point x="739" y="248"/>
      <point x="739" y="222" type="curve" smooth="yes"/>
      <point x="739" y="90" type="line" smooth="yes"/>
      <point x="739" y="64"/>
      <point x="728" y="54"/>
    </contour>
    <contour>
      <point x="649" y="176" type="line"/>
      <point x="351" y="262" type="line" smooth="yes"/>
      <point x="323" y="270"/>
      <point x="301" y="285"/>
      <point x="301" y="323" type="curve" smooth="yes"/>
      <point x="301" y="395" type="line" smooth="yes"/>
      <point x="301" y="433"/>
      <point x="323" y="445"/>
      <point x="351" y="453" type="curve" smooth="yes"/>
      <point x="649" y="539" type="line"/>
      <point x="649" y="549" type="line"/>
      <point x="349" y="463" type="line" smooth="yes"/>
      <point x="315" y="453"/>
      <point x="291" y="439"/>
      <point x="291" y="395" type="curve" smooth="yes"/>
      <point x="291" y="323" type="line" smooth="yes"/>
      <point x="291" y="279"/>
      <point x="315" y="262"/>
      <point x="349" y="252" type="curve" smooth="yes"/>
      <point x="649" y="166" type="line"/>
    </contour>
  </outline>
</glyph>
<glyph name="equal" format="1">
  <advance width="834"/>
  <unicode hex="003D"/>
  <outline>
    <contour>
      <point x="614" y="-2" type="line" smooth="yes"/>
      <point x="627" y="-2"/>
      <point x="638" y="2"/>
      <point x="646" y="7" type="curve" smooth="yes"/>
      <point x="775" y="116" type="line" smooth="yes"/>
      <point x="784" y="124"/>
      <point x="789" y="135"/>
      <point x="789" y="153" type="curve" smooth="yes"/>
      <point x="789" y="267" type="line" smooth="yes"/>
      <point x="789" y="300"/>
      <point x="775" y="313"/>
      <point x="743" y="313" type="curve" smooth="yes"/>
      <point x="653" y="313" type="line"/>
      <point x="775" y="416" type="line" smooth="yes"/>
      <point x="784" y="424"/>
      <point x="789" y="435"/>
      <point x="789" y="453" type="curve" smooth="yes"/>
      <point x="789" y="567" type="line" smooth="yes"/>
      <point x="789" y="600"/>
      <point x="775" y="613"/>
      <point x="743" y="613" type="curve" smooth="yes"/>
      <point x="221" y="613" type="line" smooth="yes"/>
      <point x="207" y="613"/>
      <point x="196" y="610"/>
      <point x="189" y="604" type="curve" smooth="yes"/>
      <point x="60" y="495" type="line" smooth="yes"/>
      <point x="51" y="487"/>
      <point x="46" y="476"/>
      <point x="46" y="458" type="curve" smooth="yes"/>
      <point x="46" y="344" type="line" smooth="yes"/>
      <point x="46" y="311"/>
      <point x="60" y="298"/>
      <point x="92" y="298" type="curve" smooth="yes"/>
      <point x="182" y="298" type="line"/>
      <point x="60" y="195" type="line" smooth="yes"/>
      <point x="51" y="187"/>
      <point x="46" y="176"/>
      <point x="46" y="158" type="curve" smooth="yes"/>
      <point x="46" y="44" type="line" smooth="yes"/>
      <point x="46" y="11"/>
      <point x="60" y="-2"/>
      <point x="92" y="-2" type="curve" smooth="yes"/>
    </contour>
    <contour>
      <point x="221" y="417" type="line"/>
      <point x="196" y="417"/>
      <point x="185" y="427"/>
      <point x="185" y="453" type="curve" smooth="yes"/>
      <point x="185" y="567" type="line" smooth="yes"/>
      <point x="185" y="592"/>
      <point x="196" y="603"/>
      <point x="221" y="603" type="curve" smooth="yes"/>
      <point x="743" y="603" type="line" smooth="yes"/>
      <point x="768" y="603"/>
      <point x="779" y="593"/>
      <point x="779" y="567" type="curve" smooth="yes"/>
      <point x="779" y="453" type="line" smooth="yes"/>
      <point x="779" y="427"/>
      <point x="768" y="417"/>
      <point x="743" y="417" type="curve" smooth="yes"/>
    </contour>
    <contour>
      <point x="221" y="117" type="line"/>
      <point x="196" y="117"/>
      <point x="185" y="127"/>
      <point x="185" y="153" type="curve" smooth="yes"/>
      <point x="185" y="267" type="line" smooth="yes"/>
      <point x="185" y="292"/>
      <point x="196" y="303"/>
      <point x="221" y="303" type="curve" smooth="yes"/>
      <point x="743" y="303" type="line" smooth="yes"/>
      <point x="768" y="303"/>
      <point x="779" y="293"/>
      <point x="779" y="267" type="curve" smooth="yes"/>
      <point x="779" y="153" type="line" smooth="yes"/>
      <point x="779" y="127"/>
      <point x="768" y="117"/>
      <point x="743" y="117" type="curve" smooth="yes"/>
    </contour>
    <contour>
      <point x="275" y="505" type="line"/>
      <point x="689" y="505" type="line"/>
      <point x="689" y="515" type="line"/>
      <point x="275" y="515" type="line"/>
    </contour>
    <contour>
      <point x="275" y="205" type="line"/>
      <point x="689" y="205" type="line"/>
      <point x="689" y="215" type="line"/>
      <point x="275" y="215" type="line"/>
    </contour>
  </outline>
</glyph>
<glyph name="greater" format="1">
  <advance width="814"/>
  <unicode hex="003E"/>
  <outline>
    <contour>
      <point x="114" y="-60" type="curve"/>
      <point x="496" y="49" type="line" smooth="yes"/>
      <point x="533" y="61"/>
      <point x="562" y="73"/>
      <point x="582" y="90" type="curve" smooth="yes"/>
      <point x="712" y="199" type="line" smooth="yes"/>
      <point x="742" y="225"/>
      <point x="759" y="262"/>
      <point x="759" y="323" type="curve" smooth="yes"/>
      <point x="759" y="395" type="line" smooth="yes"/>
      <point x="759" y="500"/>
      <point x="713" y="534"/>
      <point x="625" y="560" type="curve" smooth="yes"/>
      <point x="244" y="669" type="line"/>
      <point x="243" y="669" type="line" smooth="yes"/>
      <point x="227" y="672"/>
      <point x="215" y="669"/>
      <point x="208" y="663" type="curve" smooth="yes"/>
      <point x="78" y="555" type="line" smooth="yes"/>
      <point x="70" y="548"/>
      <point x="66" y="537"/>
      <point x="66" y="519" type="curve" smooth="yes"/>
      <point x="66" y="387" type="line" smooth="yes"/>
      <point x="66" y="355"/>
      <point x="79" y="341"/>
      <point x="110" y="336" type="curve"/>
      <point x="293" y="287" type="line"/>
      <point x="238" y="273" type="line"/>
      <point x="226" y="270"/>
      <point x="217" y="267"/>
      <point x="210" y="261" type="curve" smooth="yes"/>
      <point x="81" y="153" type="line" smooth="yes"/>
      <point x="71" y="144"/>
      <point x="66" y="132"/>
      <point x="66" y="113" type="curve" smooth="yes"/>
      <point x="66" y="-19" type="line" smooth="yes"/>
      <point x="66" y="-54"/>
      <point x="81" y="-66"/>
    </contour>
    <contour>
      <point x="622" y="168" type="curve"/>
      <point x="241" y="59" type="line" smooth="yes"/>
      <point x="216" y="54"/>
      <point x="205" y="64"/>
      <point x="205" y="90" type="curve" smooth="yes"/>
      <point x="205" y="222" type="line" smooth="yes"/>
      <point x="205" y="248"/>
      <point x="216" y="259"/>
      <point x="241" y="263" type="curve" smooth="yes"/>
      <point x="528" y="340" type="line" smooth="yes"/>
      <point x="542" y="343"/>
      <point x="545" y="347"/>
      <point x="545" y="359" type="curve" smooth="yes"/>
      <point x="545" y="371"/>
      <point x="542" y="375"/>
      <point x="528" y="378" type="curve" smooth="yes"/>
      <point x="241" y="455" type="line" smooth="yes"/>
      <point x="216" y="459"/>
      <point x="205" y="470"/>
      <point x="205" y="496" type="curve" smooth="yes"/>
      <point x="205" y="628" type="line" smooth="yes"/>
      <point x="205" y="654"/>
      <point x="216" y="664"/>
      <point x="241" y="659" type="curve" smooth="yes"/>
      <point x="622" y="550" type="line" smooth="yes"/>
      <point x="705" y="526"/>
      <point x="749" y="494"/>
      <point x="749" y="395" type="curve" smooth="yes"/>
      <point x="749" y="323" type="line" smooth="yes"/>
      <point x="749" y="224"/>
      <point x="705" y="192"/>
    </contour>
    <contour>
      <point x="595" y="252" type="line" smooth="yes"/>
      <point x="629" y="262"/>
      <point x="653" y="279"/>
      <point x="653" y="323" type="curve" smooth="yes"/>
      <point x="653" y="395" type="line" smooth="yes"/>
      <point x="653" y="439"/>
      <point x="629" y="453"/>
      <point x="595" y="463" type="curve" smooth="yes"/>
      <point x="295" y="549" type="line"/>
      <point x="295" y="539" type="line"/>
      <point x="593" y="453" type="line" smooth="yes"/>
      <point x="621" y="445"/>
      <point x="643" y="433"/>
      <point x="643" y="395" type="curve" smooth="yes"/>
      <point x="643" y="323" type="line" smooth="yes"/>
      <point x="643" y="285"/>
      <point x="621" y="270"/>
      <point x="593" y="262" type="curve" smooth="yes"/>
      <point x="295" y="176" type="line"/>
      <point x="295" y="166" type="line"/>
    </contour>
  </outline>
</glyph>
<glyph name="question" format="1">
  <advance width="756"/>
  <unicode hex="003F"/>
  <outline>
    <contour>
      <point x="330" y="-119" type="line" smooth="yes"/>
      <point x="344" y="-119"/>
      <point x="355" y="-115"/>
      <point x="361" y="-109" type="curve"/>
      <point x="491" y="-1" type="line" smooth="yes"/>
      <point x="500" y="7"/>
      <point x="505" y="18"/>
      <point x="505" y="36" type="curve" smooth="yes"/>
      <point x="505" y="169" type="line"/>
      <point x="524" y="176"/>
      <point x="540" y="185"/>
      <point x="555" y="197" type="curve" smooth="yes"/>
      <point x="684" y="305" type="line" smooth="yes"/>
      <point x="717" y="333"/>
      <point x="736" y="375"/>
      <point x="736" y="439" type="curve" smooth="yes"/>
      <point x="736" y="544" type="line" smooth="yes"/>
      <point x="736" y="664"/>
      <point x="656" y="730"/>
      <point x="519" y="730" type="curve" smooth="yes"/>
      <point x="196" y="730" type="line" smooth="yes"/>
      <point x="182" y="730"/>
      <point x="171" y="727"/>
      <point x="164" y="721" type="curve" smooth="yes"/>
      <point x="35" y="612" type="line" smooth="yes"/>
      <point x="26" y="604"/>
      <point x="21" y="593"/>
      <point x="21" y="575" type="curve" smooth="yes"/>
      <point x="21" y="454" type="line" smooth="yes"/>
      <point x="21" y="421"/>
      <point x="35" y="408"/>
      <point x="67" y="408" type="curve" smooth="yes"/>
      <point x="205" y="408" type="line"/>
      <point x="113" y="331" type="line" smooth="yes"/>
      <point x="102" y="322"/>
      <point x="97" y="308"/>
      <point x="101" y="288" type="curve" smooth="yes"/>
      <point x="122" y="156" type="line" smooth="yes"/>
      <point x="125" y="136"/>
      <point x="132" y="125"/>
      <point x="143" y="120" type="curve"/>
      <point x="114" y="95" type="line"/>
      <point x="105" y="89"/>
      <point x="101" y="77"/>
      <point x="101" y="58" type="curve" smooth="yes"/>
      <point x="101" y="-73" type="line"/>
      <point x="101" y="-105"/>
      <point x="114" y="-119"/>
      <point x="147" y="-119" type="curve" smooth="yes"/>
    </contour>
    <contour>
      <point x="571" y="273" type="curve" smooth="yes"/>
      <point x="300" y="236" type="line" smooth="yes"/>
      <point x="275" y="233"/>
      <point x="265" y="242"/>
      <point x="261" y="267" type="curve" smooth="yes"/>
      <point x="240" y="399" type="line" smooth="yes"/>
      <point x="236" y="425"/>
      <point x="248" y="437"/>
      <point x="273" y="440" type="curve" smooth="yes"/>
      <point x="472" y="468" type="line" smooth="yes"/>
      <point x="492" y="471"/>
      <point x="499" y="479"/>
      <point x="499" y="499" type="curve" smooth="yes"/>
      <point x="499" y="518"/>
      <point x="489" y="527"/>
      <point x="472" y="527" type="curve" smooth="yes"/>
      <point x="196" y="527" type="line" smooth="yes"/>
      <point x="171" y="527"/>
      <point x="160" y="537"/>
      <point x="160" y="563" type="curve" smooth="yes"/>
      <point x="160" y="684" type="line"/>
      <point x="160" y="709"/>
      <point x="171" y="720"/>
      <point x="196" y="720" type="curve" smooth="yes"/>
      <point x="519" y="720" type="line" smooth="yes"/>
      <point x="649" y="720"/>
      <point x="726" y="658"/>
      <point x="726" y="544" type="curve" smooth="yes"/>
      <point x="726" y="439" type="line" smooth="yes"/>
      <point x="726" y="327"/>
      <point x="666" y="286"/>
    </contour>
    <contour>
      <point x="459" y="0" type="curve" smooth="yes"/>
      <point x="276" y="0" type="line" smooth="yes"/>
      <point x="250" y="0"/>
      <point x="240" y="11"/>
      <point x="240" y="36" type="curve" smooth="yes"/>
      <point x="240" y="167" type="line" smooth="yes"/>
      <point x="240" y="193"/>
      <point x="250" y="203"/>
      <point x="276" y="203" type="curve" smooth="yes"/>
      <point x="459" y="203" type="line" smooth="yes"/>
      <point x="484" y="203"/>
      <point x="495" y="193"/>
      <point x="495" y="167" type="curve" smooth="yes"/>
      <point x="495" y="36" type="line" smooth="yes"/>
      <point x="495" y="11"/>
      <point x="484" y="0"/>
    </contour>
    <contour>
      <point x="340" y="340" type="line"/>
      <point x="556" y="370" type="line" smooth="yes"/>
      <point x="587" y="374"/>
      <point x="613" y="383"/>
      <point x="613" y="424" type="curve" smooth="yes"/>
      <point x="613" y="537" type="line" smooth="yes"/>
      <point x="613" y="610"/>
      <point x="565" y="628"/>
      <point x="519" y="628" type="curve" smooth="yes"/>
      <point x="250" y="628" type="line"/>
      <point x="250" y="618" type="line"/>
      <point x="519" y="618" type="line" smooth="yes"/>
      <point x="560" y="618"/>
      <point x="603" y="602"/>
      <point x="603" y="537" type="curve" smooth="yes"/>
      <point x="603" y="424" type="line" smooth="yes"/>
      <point x="603" y="389"/>
      <point x="579" y="384"/>
      <point x="554" y="380" type="curve" smooth="yes"/>
      <point x="338" y="351" type="line"/>
    </contour>
    <contour>
      <point x="363" y="80" type="line"/>
      <point x="373" y="80" type="line"/>
      <point x="373" y="123" type="line"/>
      <point x="363" y="123" type="line"/>
    </contour>
  </outline>
</glyph>
<glyph name="at" format="1">
  <advance width="967"/>
  <unicode hex="0040"/>
  <outline>
    <contour>
      <point x="610" y="-210" type="line" smooth="yes"/>
      <point x="624" y="-210"/>
      <point x="634" y="-207"/>
      <point x="641" y="-201" type="curve" smooth="yes"/>
      <point x="770" y="-93" type="line"/>
      <point x="771" y="-92" type="line" smooth="yes"/>
      <point x="779" y="-85"/>
      <point x="783" y="-74"/>
      <point x="783" y="-57" type="curve" smooth="yes"/>
      <point x="783" y="-29" type="line" smooth="yes"/>
      <point x="783" y="3"/>
      <point x="771" y="15"/>
      <point x="739" y="15" type="curve" smooth="yes"/>
      <point x="727" y="15" type="line"/>
      <point x="733" y="19"/>
      <point x="740" y="24"/>
      <point x="745" y="28" type="curve" smooth="yes"/>
      <point x="874" y="136" type="line" smooth="yes"/>
      <point x="919" y="174"/>
      <point x="932" y="232"/>
      <point x="932" y="304" type="curve" smooth="yes"/>
      <point x="932" y="564" type="line" smooth="yes"/>
      <point x="932" y="715"/>
      <point x="862" y="821"/>
      <point x="549" y="821" type="curve" smooth="yes"/>
      <point x="390" y="821"/>
      <point x="294" y="793"/>
      <point x="238" y="746" type="curve" smooth="yes"/>
      <point x="108" y="637" type="line" smooth="yes"/>
      <point x="54" y="592"/>
      <point x="36" y="529"/>
      <point x="36" y="455" type="curve" smooth="yes"/>
      <point x="36" y="85" type="line" smooth="yes"/>
      <point x="36" y="-65"/>
      <point x="108" y="-210"/>
      <point x="420" y="-210" type="curve" smooth="yes"/>
    </contour>
    <contour>
      <point x="285" y="568" type="line" smooth="yes"/>
      <point x="285" y="574"/>
      <point x="285" y="580"/>
      <point x="286" y="586" type="curve"/>
      <point x="321" y="593"/>
      <point x="366" y="596"/>
      <point x="420" y="596" type="curve" smooth="yes"/>
      <point x="440" y="596"/>
      <point x="458" y="596"/>
      <point x="475" y="595" type="curve"/>
      <point x="426" y="591"/>
      <point x="392" y="577"/>
      <point x="369" y="558" type="curve" smooth="yes"/>
      <point x="285" y="487" type="line"/>
    </contour>
    <contour>
      <point x="739" y="-91" type="curve" smooth="yes"/>
      <point x="549" y="-91" type="line" smooth="yes"/>
      <point x="249" y="-91"/>
      <point x="175" y="8"/>
      <point x="175" y="154" type="curve" smooth="yes"/>
      <point x="175" y="564" type="line" smooth="yes"/>
      <point x="175" y="711"/>
      <point x="249" y="811"/>
      <point x="549" y="811" type="curve" smooth="yes"/>
      <point x="850" y="811"/>
      <point x="922" y="711"/>
      <point x="922" y="564" type="curve" smooth="yes"/>
      <point x="922" y="304" type="line" smooth="yes"/>
      <point x="922" y="182"/>
      <point x="886" y="100"/>
      <point x="698" y="100" type="curve" smooth="yes"/>
      <point x="509" y="100" type="line" smooth="yes"/>
      <point x="373" y="100"/>
      <point x="333" y="159"/>
      <point x="333" y="246" type="curve" smooth="yes"/>
      <point x="333" y="439" type="line" smooth="yes"/>
      <point x="333" y="527"/>
      <point x="373" y="586"/>
      <point x="509" y="586" type="curve" smooth="yes"/>
      <point x="734" y="586" type="line" smooth="yes"/>
      <point x="752" y="586"/>
      <point x="760" y="578"/>
      <point x="760" y="560" type="curve" smooth="yes"/>
      <point x="760" y="211" type="line"/>
      <point x="812" y="211"/>
      <point x="822" y="249"/>
      <point x="822" y="302" type="curve" smooth="yes"/>
      <point x="822" y="568" type="line" smooth="yes"/>
      <point x="822" y="655"/>
      <point x="769" y="715"/>
      <point x="549" y="715" type="curve" smooth="yes"/>
      <point x="329" y="715"/>
      <point x="275" y="655"/>
      <point x="275" y="568" type="curve" smooth="yes"/>
      <point x="275" y="150" type="line" smooth="yes"/>
      <point x="275" y="64"/>
      <point x="329" y="5"/>
      <point x="549" y="5" type="curve" smooth="yes"/>
      <point x="739" y="5" type="line" smooth="yes"/>
      <point x="764" y="5"/>
      <point x="773" y="-4"/>
      <point x="773" y="-29" type="curve" smooth="yes"/>
      <point x="773" y="-57" type="line" smooth="yes"/>
      <point x="773" y="-82"/>
      <point x="764" y="-91"/>
    </contour>
    <contour>
      <point x="530" y="237" type="curve"/>
      <point x="597" y="237" type="line"/>
      <point x="597" y="458" type="line"/>
      <point x="540" y="458" type="line" smooth="yes"/>
      <point x="502" y="458"/>
      <point x="496" y="440"/>
      <point x="496" y="422" type="curve" smooth="yes"/>
      <point x="496" y="271" type="line" smooth="yes"/>
      <point x="496" y="251"/>
      <point x="503" y="237"/>
    </contour>
    <contour>
      <point x="549" y="-50" type="curve" smooth="yes"/>
      <point x="723" y="-50" type="line"/>
      <point x="723" y="-40" type="line"/>
      <point x="549" y="-40" type="line" smooth="yes"/>
      <point x="270" y="-40"/>
      <point x="230" y="50"/>
      <point x="230" y="150" type="curve" smooth="yes"/>
      <point x="230" y="568" type="line" smooth="yes"/>
      <point x="230" y="669"/>
      <point x="271" y="758"/>
      <point x="549" y="758" type="curve" smooth="yes"/>
      <point x="827" y="758"/>
      <point x="867" y="669"/>
      <point x="867" y="568" type="curve" smooth="yes"/>
      <point x="867" y="302" type="line" smooth="yes"/>
      <point x="867" y="210"/>
      <point x="838" y="170"/>
      <point x="760" y="170" type="curve" smooth="yes"/>
      <point x="684" y="170" type="line"/>
      <point x="684" y="527" type="line"/>
      <point x="540" y="527" type="line" smooth="yes"/>
      <point x="410" y="527"/>
      <point x="409" y="475"/>
      <point x="409" y="422" type="curve" smooth="yes"/>
      <point x="409" y="261" type="line" smooth="yes"/>
      <point x="409" y="189"/>
      <point x="433" y="160"/>
      <point x="498" y="160" type="curve" smooth="yes"/>
      <point x="760" y="160" type="line" smooth="yes"/>
      <point x="844" y="160"/>
      <point x="877" y="202"/>
      <point x="877" y="302" type="curve" smooth="yes"/>
      <point x="877" y="568" type="line" smooth="yes"/>
      <point x="877" y="673"/>
      <point x="841" y="768"/>
      <point x="549" y="768" type="curve" smooth="yes"/>
      <point x="257" y="768"/>
      <point x="220" y="673"/>
      <point x="220" y="568" type="curve" smooth="yes"/>
      <point x="220" y="150" type="line" smooth="yes"/>
      <point x="220" y="46"/>
      <point x="256" y="-50"/>
    </contour>
    <contour>
      <point x="498" y="170" type="line" smooth="yes"/>
      <point x="439" y="170"/>
      <point x="419" y="197"/>
      <point x="419" y="261" type="curve" smooth="yes"/>
      <point x="419" y="422" type="line" smooth="yes"/>
      <point x="419" y="471"/>
      <point x="422" y="517"/>
      <point x="540" y="517" type="curve" smooth="yes"/>
      <point x="674" y="517" type="line"/>
      <point x="674" y="170" type="line"/>
    </contour>
  </outline>
</glyph>
<glyph name="A" format="1">
  <advance width="830"/>
  <unicode hex="0041"/>
  <outline>
    <contour>
      <point x="254" y="-109" type="curve"/>
      <point x="384" y="-1" type="line" smooth="yes"/>
      <point x="393" y="7"/>
      <point x="398" y="18"/>
      <point x="398" y="36" type="curve" smooth="yes"/>
      <point x="398" y="57" type="line"/>
      <point x="426" y="57" type="line"/>
      <point x="426" y="-73" type="line" smooth="yes"/>
      <point x="426" y="-104"/>
      <point x="441" y="-119"/>
      <point x="475" y="-119" type="curve" smooth="yes"/>
      <point x="626" y="-119" type="line" smooth="yes"/>
      <point x="640" y="-119"/>
      <point x="651" y="-115"/>
      <point x="657" y="-109" type="curve"/>
      <point x="787" y="-1" type="line" smooth="yes"/>
      <point x="796" y="7"/>
      <point x="801" y="18"/>
      <point x="801" y="36" type="curve" smooth="yes"/>
      <point x="801" y="300" type="line" smooth="yes"/>
      <point x="801" y="341"/>
      <point x="789" y="392"/>
      <point x="761" y="464" type="curve" smooth="yes"/>
      <point x="674" y="691" type="line" smooth="yes"/>
      <point x="665" y="718"/>
      <point x="646" y="730"/>
      <point x="615" y="730" type="curve" smooth="yes"/>
      <point x="346" y="730" type="line" smooth="yes"/>
      <point x="327" y="730"/>
      <point x="313" y="726"/>
      <point x="302" y="716" type="curve" smooth="yes"/>
      <point x="174" y="609" type="line"/>
      <point x="173" y="608" type="line" smooth="yes"/>
      <point x="166" y="601"/>
      <point x="160" y="593"/>
      <point x="156" y="581" type="curve"/>
      <point x="70" y="355" type="line" smooth="yes"/>
      <point x="42" y="283"/>
      <point x="30" y="232"/>
      <point x="30" y="191" type="curve" smooth="yes"/>
      <point x="30" y="-73" type="line" smooth="yes"/>
      <point x="30" y="-105"/>
      <point x="44" y="-119"/>
      <point x="76" y="-119" type="curve" smooth="yes"/>
      <point x="223" y="-119" type="line" smooth="yes"/>
      <point x="237" y="-119"/>
      <point x="248" y="-115"/>
    </contour>
    <contour>
      <point x="445" y="510" type="curve"/>
      <point x="398" y="358" type="line"/>
      <point x="555" y="358" type="line"/>
      <point x="508" y="510" type="line"/>
      <point x="503" y="522"/>
      <point x="497" y="527"/>
      <point x="489" y="527" type="curve" smooth="yes"/>
      <point x="464" y="527" type="line" smooth="yes"/>
      <point x="456" y="527"/>
      <point x="450" y="522"/>
    </contour>
    <contour>
      <point x="388" y="36" type="line" smooth="yes"/>
      <point x="388" y="11"/>
      <point x="377" y="0"/>
      <point x="352" y="0" type="curve" smooth="yes"/>
      <point x="205" y="0" type="line" smooth="yes"/>
      <point x="180" y="0"/>
      <point x="169" y="11"/>
      <point x="169" y="36" type="curve" smooth="yes"/>
      <point x="169" y="300" type="line" smooth="yes"/>
      <point x="169" y="340"/>
      <point x="181" y="390"/>
      <point x="208" y="460" type="curve" smooth="yes"/>
      <point x="295" y="687" type="line" smooth="yes"/>
      <point x="303" y="710"/>
      <point x="319" y="720"/>
      <point x="346" y="720" type="curve" smooth="yes"/>
      <point x="615" y="720" type="line" smooth="yes"/>
      <point x="641" y="720"/>
      <point x="657" y="710"/>
      <point x="665" y="687" type="curve" smooth="yes"/>
      <point x="752" y="460" type="line" smooth="yes"/>
      <point x="779" y="390"/>
      <point x="791" y="340"/>
      <point x="791" y="300" type="curve" smooth="yes"/>
      <point x="791" y="36" type="line" smooth="yes"/>
      <point x="791" y="11"/>
      <point x="780" y="0"/>
      <point x="755" y="0" type="curve" smooth="yes"/>
      <point x="604" y="0" type="line" smooth="yes"/>
      <point x="577" y="0"/>
      <point x="565" y="11"/>
      <point x="565" y="36" type="curve" smooth="yes"/>
      <point x="565" y="176" type="line"/>
      <point x="388" y="176" type="line"/>
    </contour>
    <contour>
      <point x="285" y="303" type="line"/>
      <point x="285" y="339"/>
      <point x="291" y="369"/>
      <point x="301" y="396" type="curve"/>
      <point x="365" y="560" type="line"/>
      <point x="378" y="594"/>
      <point x="389" y="620"/>
      <point x="429" y="620" type="curve" smooth="yes"/>
      <point x="527" y="620" type="line" smooth="yes"/>
      <point x="564" y="620"/>
      <point x="575" y="594"/>
      <point x="590" y="559" type="curve"/>
      <point x="659" y="396" type="line"/>
      <point x="669" y="369"/>
      <point x="675" y="339"/>
      <point x="675" y="303" type="curve"/>
      <point x="675" y="272" type="line"/>
      <point x="285" y="272" type="line"/>
    </contour>
    <contour>
      <point x="675" y="90" type="line"/>
      <point x="685" y="90" type="line"/>
      <point x="685" y="303" type="line" smooth="yes"/>
      <point x="685" y="340"/>
      <point x="679" y="371"/>
      <point x="668" y="400" type="curve" smooth="yes"/>
      <point x="599" y="563" type="line" smooth="yes"/>
      <point x="583" y="602"/>
      <point x="571" y="630"/>
      <point x="527" y="630" type="curve" smooth="yes"/>
      <point x="429" y="630" type="line" smooth="yes"/>
      <point x="383" y="630"/>
      <point x="371" y="601"/>
      <point x="356" y="564" type="curve" smooth="yes"/>
      <point x="292" y="400" type="line"/>
      <point x="281" y="371"/>
      <point x="275" y="340"/>
      <point x="275" y="303" type="curve" smooth="yes"/>
      <point x="275" y="90" type="line"/>
      <point x="285" y="90" type="line"/>
      <point x="285" y="262" type="line"/>
      <point x="675" y="262" type="line"/>
    </contour>
  </outline>
</glyph>
<glyph name="B" format="1">
  <advance width="825"/>
  <unicode hex="0042"/>
  <outline>
    <contour>
      <point x="91" y="-119" type="curve" smooth="yes"/>
      <point x="475" y="-119" type="line" smooth="yes"/>
      <point x="544" y="-119"/>
      <point x="594" y="-105"/>
      <point x="627" y="-77" type="curve" smooth="yes"/>
      <point x="756" y="32" type="line" smooth="yes"/>
      <point x="791" y="61"/>
      <point x="808" y="104"/>
      <point x="808" y="164" type="curve" smooth="yes"/>
      <point x="808" y="256" type="line" smooth="yes"/>
      <point x="808" y="350"/>
      <point x="773" y="401"/>
      <point x="700" y="417" type="curve"/>
      <point x="703" y="419" type="line"/>
      <point x="728" y="439"/>
      <point x="741" y="472"/>
      <point x="741" y="519" type="curve" smooth="yes"/>
      <point x="741" y="567" type="line" smooth="yes"/>
      <point x="741" y="677"/>
      <point x="679" y="730"/>
      <point x="539" y="730" type="curve" smooth="yes"/>
      <point x="220" y="730" type="line" smooth="yes"/>
      <point x="206" y="730"/>
      <point x="195" y="727"/>
      <point x="188" y="721" type="curve" smooth="yes"/>
      <point x="59" y="612" type="line" smooth="yes"/>
      <point x="50" y="604"/>
      <point x="45" y="593"/>
      <point x="45" y="575" type="curve" smooth="yes"/>
      <point x="45" y="-73" type="line" smooth="yes"/>
      <point x="45" y="-105"/>
      <point x="59" y="-119"/>
    </contour>
    <contour>
      <point x="604" y="0" type="curve" smooth="yes"/>
      <point x="220" y="0" type="line" smooth="yes"/>
      <point x="195" y="0"/>
      <point x="184" y="11"/>
      <point x="184" y="36" type="curve" smooth="yes"/>
      <point x="184" y="684" type="line" smooth="yes"/>
      <point x="184" y="709"/>
      <point x="195" y="720"/>
      <point x="220" y="720" type="curve" smooth="yes"/>
      <point x="539" y="720" type="line" smooth="yes"/>
      <point x="670" y="720"/>
      <point x="731" y="672"/>
      <point x="731" y="567" type="curve" smooth="yes"/>
      <point x="731" y="519" type="line" smooth="yes"/>
      <point x="731" y="463"/>
      <point x="712" y="428"/>
      <point x="672" y="411" type="curve"/>
      <point x="758" y="403"/>
      <point x="798" y="354"/>
      <point x="798" y="256" type="curve" smooth="yes"/>
      <point x="798" y="164" type="line" smooth="yes"/>
      <point x="798" y="52"/>
      <point x="737" y="0"/>
    </contour>
    <contour>
      <point x="409" y="550" type="line"/>
      <point x="409" y="442" type="line"/>
      <point x="494" y="442" type="line" smooth="yes"/>
      <point x="520" y="442"/>
      <point x="532" y="455"/>
      <point x="532" y="482" type="curve" smooth="yes"/>
      <point x="532" y="510" type="line" smooth="yes"/>
      <point x="532" y="537"/>
      <point x="520" y="550"/>
      <point x="494" y="550" type="curve" smooth="yes"/>
    </contour>
    <contour>
      <point x="409" y="288" type="line"/>
      <point x="409" y="170" type="line"/>
      <point x="539" y="170" type="line" smooth="yes"/>
      <point x="565" y="170"/>
      <point x="577" y="183"/>
      <point x="577" y="210" type="curve" smooth="yes"/>
      <point x="577" y="249" type="line" smooth="yes"/>
      <point x="577" y="276"/>
      <point x="565" y="288"/>
      <point x="539" y="288" type="curve" smooth="yes"/>
    </contour>
    <contour>
      <point x="295" y="90" type="line"/>
      <point x="564" y="90" type="line" smooth="yes"/>
      <point x="676" y="90"/>
      <point x="695" y="131"/>
      <point x="695" y="190" type="curve" smooth="yes"/>
      <point x="695" y="254" type="line" smooth="yes"/>
      <point x="695" y="320"/>
      <point x="676" y="369"/>
      <point x="565" y="369" type="curve" smooth="yes"/>
      <point x="565" y="369" type="line"/>
      <point x="622" y="384"/>
      <point x="629" y="420"/>
      <point x="629" y="460" type="curve" smooth="yes"/>
      <point x="629" y="524" type="line" smooth="yes"/>
      <point x="629" y="582"/>
      <point x="609" y="630"/>
      <point x="498" y="630" type="curve" smooth="yes"/>
      <point x="295" y="630" type="line"/>
    </contour>
    <contour>
      <point x="498" y="620" type="line" smooth="yes"/>
      <point x="599" y="620"/>
      <point x="619" y="578"/>
      <point x="619" y="524" type="curve" smooth="yes"/>
      <point x="619" y="460" type="line" smooth="yes"/>
      <point x="619" y="412"/>
      <point x="608" y="369"/>
      <point x="498" y="369" type="curve" smooth="yes"/>
      <point x="305" y="369" type="line"/>
      <point x="305" y="620" type="line"/>
    </contour>
    <contour>
      <point x="565" y="359" type="line" smooth="yes"/>
      <point x="666" y="359"/>
      <point x="685" y="314"/>
      <point x="685" y="254" type="curve" smooth="yes"/>
      <point x="685" y="190" type="line" smooth="yes"/>
      <point x="685" y="135"/>
      <point x="664" y="100"/>
      <point x="564" y="100" type="curve" smooth="yes"/>
      <point x="305" y="100" type="line"/>
      <point x="305" y="359" type="line"/>
    </contour>
  </outline>
</glyph>
<glyph name="C" format="1">
  <advance width="728"/>
  <unicode hex="0043"/>
  <outline>
    <contour>
      <point x="534" y="-119" type="line" smooth="yes"/>
      <point x="548" y="-119"/>
      <point x="559" y="-115"/>
      <point x="565" y="-109" type="curve"/>
      <point x="695" y="-1" type="line" smooth="yes"/>
      <point x="704" y="7"/>
      <point x="709" y="18"/>
      <point x="709" y="36" type="curve" smooth="yes"/>
      <point x="709" y="155" type="line" smooth="yes"/>
      <point x="709" y="187"/>
      <point x="695" y="201"/>
      <point x="663" y="201" type="curve" smooth="yes"/>
      <point x="462" y="201" type="line" smooth="yes"/>
      <point x="429" y="201"/>
      <point x="411" y="211"/>
      <point x="411" y="239" type="curve" smooth="yes"/>
      <point x="411" y="408" type="line"/>
      <point x="534" y="408" type="line" smooth="yes"/>
      <point x="548" y="408"/>
      <point x="559" y="412"/>
      <point x="565" y="418" type="curve"/>
      <point x="695" y="526" type="line" smooth="yes"/>
      <point x="704" y="534"/>
      <point x="709" y="545"/>
      <point x="709" y="563" type="curve" smooth="yes"/>
      <point x="709" y="684" type="line" smooth="yes"/>
      <point x="709" y="716"/>
      <point x="695" y="730"/>
      <point x="663" y="730" type="curve" smooth="yes"/>
      <point x="419" y="730" type="line" smooth="yes"/>
      <point x="332" y="730"/>
      <point x="268" y="713"/>
      <point x="227" y="678" type="curve" smooth="yes"/>
      <point x="97" y="569" type="line" smooth="yes"/>
      <point x="55" y="533"/>
      <point x="34" y="480"/>
      <point x="34" y="406" type="curve" smooth="yes"/>
      <point x="34" y="125" type="line" smooth="yes"/>
      <point x="34" y="-20"/>
      <point x="114" y="-119"/>
      <point x="290" y="-119" type="curve" smooth="yes"/>
    </contour>
    <contour>
      <point x="663" y="0" type="curve" smooth="yes"/>
      <point x="419" y="0" type="line" smooth="yes"/>
      <point x="251" y="0"/>
      <point x="173" y="65"/>
      <point x="173" y="204" type="curve" smooth="yes"/>
      <point x="173" y="515" type="line" smooth="yes"/>
      <point x="173" y="655"/>
      <point x="251" y="720"/>
      <point x="419" y="720" type="curve" smooth="yes"/>
      <point x="663" y="720" type="line" smooth="yes"/>
      <point x="688" y="720"/>
      <point x="699" y="709"/>
      <point x="699" y="684" type="curve" smooth="yes"/>
      <point x="699" y="563" type="line" smooth="yes"/>
      <point x="699" y="538"/>
      <point x="688" y="527"/>
      <point x="663" y="527" type="curve" smooth="yes"/>
      <point x="462" y="527" type="line" smooth="yes"/>
      <point x="420" y="527"/>
      <point x="401" y="511"/>
      <point x="401" y="477" type="curve" smooth="yes"/>
      <point x="401" y="239" type="line" smooth="yes"/>
      <point x="401" y="206"/>
      <point x="420" y="191"/>
      <point x="462" y="191" type="curve" smooth="yes"/>
      <point x="663" y="191" type="line" smooth="yes"/>
      <point x="688" y="191"/>
      <point x="699" y="180"/>
      <point x="699" y="155" type="curve" smooth="yes"/>
      <point x="699" y="36" type="line" smooth="yes"/>
      <point x="699" y="11"/>
      <point x="688" y="0"/>
    </contour>
    <contour>
      <point x="608" y="100" type="line"/>
      <point x="441" y="100" type="line" smooth="yes"/>
      <point x="321" y="100"/>
      <point x="291" y="132"/>
      <point x="291" y="219" type="curve" smooth="yes"/>
      <point x="291" y="499" type="line" smooth="yes"/>
      <point x="291" y="588"/>
      <point x="323" y="620"/>
      <point x="441" y="620" type="curve" smooth="yes"/>
      <point x="608" y="620" type="line"/>
      <point x="608" y="630" type="line"/>
      <point x="441" y="630" type="line" smooth="yes"/>
      <point x="313" y="630"/>
      <point x="281" y="594"/>
      <point x="281" y="499" type="curve" smooth="yes"/>
      <point x="281" y="219" type="line" smooth="yes"/>
      <point x="281" y="126"/>
      <point x="311" y="90"/>
      <point x="441" y="90" type="curve" smooth="yes"/>
      <point x="608" y="90" type="line"/>
    </contour>
  </outline>
</glyph>
<glyph name="D" format="1">
  <advance width="846"/>
  <unicode hex="0044"/>
  <outline>
    <contour>
      <point x="620" y="-66" type="curve" smooth="yes"/>
      <point x="750" y="42" type="line" smooth="yes"/>
      <point x="792" y="78"/>
      <point x="813" y="131"/>
      <point x="813" y="204" type="curve" smooth="yes"/>
      <point x="813" y="516" type="line" smooth="yes"/>
      <point x="813" y="661"/>
      <point x="733" y="730"/>
      <point x="557" y="730" type="curve" smooth="yes"/>
      <point x="220" y="730" type="line" smooth="yes"/>
      <point x="206" y="730"/>
      <point x="195" y="727"/>
      <point x="188" y="721" type="curve" smooth="yes"/>
      <point x="59" y="612" type="line" smooth="yes"/>
      <point x="50" y="604"/>
      <point x="45" y="593"/>
      <point x="45" y="575" type="curve" smooth="yes"/>
      <point x="45" y="-73" type="line" smooth="yes"/>
      <point x="45" y="-105"/>
      <point x="59" y="-119"/>
      <point x="91" y="-119" type="curve" smooth="yes"/>
      <point x="428" y="-119" type="line" smooth="yes"/>
      <point x="515" y="-119"/>
      <point x="579" y="-101"/>
    </contour>
    <contour>
      <point x="438" y="372" type="curve" smooth="yes"/>
      <point x="438" y="199" type="line"/>
      <point x="421" y="199" type="line"/>
      <point x="421" y="407" type="line"/>
      <point x="433" y="402"/>
      <point x="438" y="390"/>
    </contour>
    <contour>
      <point x="557" y="0" type="curve" smooth="yes"/>
      <point x="220" y="0" type="line" smooth="yes"/>
      <point x="195" y="0"/>
      <point x="184" y="11"/>
      <point x="184" y="36" type="curve" smooth="yes"/>
      <point x="184" y="684" type="line" smooth="yes"/>
      <point x="184" y="709"/>
      <point x="195" y="720"/>
      <point x="220" y="720" type="curve" smooth="yes"/>
      <point x="557" y="720" type="line" smooth="yes"/>
      <point x="725" y="720"/>
      <point x="803" y="655"/>
      <point x="803" y="516" type="curve" smooth="yes"/>
      <point x="803" y="204" type="line" smooth="yes"/>
      <point x="803" y="65"/>
      <point x="725" y="0"/>
    </contour>
    <contour>
      <point x="411" y="529" type="line"/>
      <point x="411" y="189" type="line"/>
      <point x="530" y="189" type="line" smooth="yes"/>
      <point x="562" y="189"/>
      <point x="577" y="204"/>
      <point x="577" y="238" type="curve" smooth="yes"/>
      <point x="577" y="481" type="line" smooth="yes"/>
      <point x="577" y="514"/>
      <point x="562" y="529"/>
      <point x="530" y="529" type="curve" smooth="yes"/>
    </contour>
    <contour>
      <point x="293" y="90" type="line"/>
      <point x="535" y="90" type="line" smooth="yes"/>
      <point x="673" y="90"/>
      <point x="695" y="149"/>
      <point x="695" y="226" type="curve" smooth="yes"/>
      <point x="695" y="491" type="line" smooth="yes"/>
      <point x="695" y="568"/>
      <point x="671" y="630"/>
      <point x="535" y="630" type="curve" smooth="yes"/>
      <point x="293" y="630" type="line"/>
    </contour>
    <contour>
      <point x="535" y="620" type="line" smooth="yes"/>
      <point x="661" y="620"/>
      <point x="685" y="564"/>
      <point x="685" y="491" type="curve" smooth="yes"/>
      <point x="685" y="226" type="line" smooth="yes"/>
      <point x="685" y="153"/>
      <point x="663" y="100"/>
      <point x="535" y="100" type="curve" smooth="yes"/>
      <point x="303" y="100" type="line"/>
      <point x="303" y="620" type="line"/>
    </contour>
  </outline>
</glyph>
<glyph name="E" format="1">
  <advance width="754"/>
  <unicode hex="0045"/>
  <outline>
    <contour>
      <point x="555" y="-119" type="line" smooth="yes"/>
      <point x="569" y="-119"/>
      <point x="580" y="-115"/>
      <point x="586" y="-109" type="curve"/>
      <point x="716" y="-1" type="line" smooth="yes"/>
      <point x="725" y="7"/>
      <point x="730" y="18"/>
      <point x="730" y="36" type="curve" smooth="yes"/>
      <point x="730" y="153" type="line" smooth="yes"/>
      <point x="730" y="185"/>
      <point x="716" y="199"/>
      <point x="684" y="199" type="curve" smooth="yes"/>
      <point x="546" y="199" type="line"/>
      <point x="635" y="274" type="line" smooth="yes"/>
      <point x="644" y="282"/>
      <point x="649" y="293"/>
      <point x="649" y="311" type="curve" smooth="yes"/>
      <point x="649" y="418" type="line" smooth="yes"/>
      <point x="649" y="439"/>
      <point x="643" y="452"/>
      <point x="630" y="459" type="curve"/>
      <point x="716" y="530" type="line" smooth="yes"/>
      <point x="725" y="538"/>
      <point x="730" y="549"/>
      <point x="730" y="567" type="curve" smooth="yes"/>
      <point x="730" y="684" type="line" smooth="yes"/>
      <point x="730" y="716"/>
      <point x="716" y="730"/>
      <point x="684" y="730" type="curve" smooth="yes"/>
      <point x="220" y="730" type="line" smooth="yes"/>
      <point x="206" y="730"/>
      <point x="195" y="727"/>
      <point x="188" y="721" type="curve" smooth="yes"/>
      <point x="59" y="612" type="line" smooth="yes"/>
      <point x="50" y="604"/>
      <point x="45" y="593"/>
      <point x="45" y="575" type="curve" smooth="yes"/>
      <point x="45" y="-73" type="line" smooth="yes"/>
      <point x="45" y="-105"/>
      <point x="59" y="-119"/>
      <point x="91" y="-119" type="curve" smooth="yes"/>
    </contour>
    <contour>
      <point x="684" y="0" type="curve" smooth="yes"/>
      <point x="220" y="0" type="line" smooth="yes"/>
      <point x="195" y="0"/>
      <point x="184" y="11"/>
      <point x="184" y="36" type="curve" smooth="yes"/>
      <point x="184" y="684" type="line" smooth="yes"/>
      <point x="184" y="709"/>
      <point x="195" y="720"/>
      <point x="220" y="720" type="curve" smooth="yes"/>
      <point x="684" y="720" type="line" smooth="yes"/>
      <point x="709" y="720"/>
      <point x="720" y="709"/>
      <point x="720" y="684" type="curve" smooth="yes"/>
      <point x="720" y="567" type="line" smooth="yes"/>
      <point x="720" y="542"/>
      <point x="709" y="531"/>
      <point x="684" y="531" type="curve" smooth="yes"/>
      <point x="408" y="531" type="line"/>
      <point x="408" y="454" type="line"/>
      <point x="603" y="454" type="line" smooth="yes"/>
      <point x="628" y="454"/>
      <point x="639" y="443"/>
      <point x="639" y="418" type="curve" smooth="yes"/>
      <point x="639" y="311" type="line" smooth="yes"/>
      <point x="639" y="286"/>
      <point x="628" y="275"/>
      <point x="603" y="275" type="curve" smooth="yes"/>
      <point x="408" y="275" type="line"/>
      <point x="408" y="189" type="line"/>
      <point x="684" y="189" type="line" smooth="yes"/>
      <point x="709" y="189"/>
      <point x="720" y="178"/>
      <point x="720" y="153" type="curve" smooth="yes"/>
      <point x="720" y="36" type="line" smooth="yes"/>
      <point x="720" y="11"/>
      <point x="709" y="0"/>
    </contour>
    <contour>
      <point x="630" y="100" type="line"/>
      <point x="303" y="100" type="line"/>
      <point x="303" y="359" type="line"/>
      <point x="549" y="359" type="line"/>
      <point x="549" y="369" type="line"/>
      <point x="303" y="369" type="line"/>
      <point x="303" y="620" type="line"/>
      <point x="630" y="620" type="line"/>
      <point x="630" y="630" type="line"/>
      <point x="293" y="630" type="line"/>
      <point x="293" y="90" type="line"/>
      <point x="630" y="90" type="line"/>
    </contour>
  </outline>
</glyph>
<glyph name="F" format="1">
  <advance width="718"/>
  <unicode hex="0046"/>
  <outline>
    <contour>
      <point x="246" y="-119" type="line" smooth="yes"/>
      <point x="260" y="-119"/>
      <point x="271" y="-115"/>
      <point x="277" y="-109" type="curve"/>
      <point x="407" y="-1" type="line" smooth="yes"/>
      <point x="416" y="7"/>
      <point x="421" y="18"/>
      <point x="421" y="36" type="curve" smooth="yes"/>
      <point x="421" y="114" type="line"/>
      <point x="456" y="114" type="line" smooth="yes"/>
      <point x="470" y="114"/>
      <point x="481" y="118"/>
      <point x="487" y="124" type="curve"/>
      <point x="617" y="232" type="line" smooth="yes"/>
      <point x="626" y="240"/>
      <point x="631" y="251"/>
      <point x="631" y="269" type="curve" smooth="yes"/>
      <point x="631" y="389" type="line" smooth="yes"/>
      <point x="631" y="421"/>
      <point x="617" y="435"/>
      <point x="586" y="435" type="curve"/>
      <point x="698" y="528" type="line" smooth="yes"/>
      <point x="707" y="536"/>
      <point x="712" y="547"/>
      <point x="712" y="565" type="curve" smooth="yes"/>
      <point x="712" y="684" type="line" smooth="yes"/>
      <point x="712" y="716"/>
      <point x="698" y="730"/>
      <point x="666" y="730" type="curve" smooth="yes"/>
      <point x="220" y="730" type="line" smooth="yes"/>
      <point x="206" y="730"/>
      <point x="195" y="727"/>
      <point x="188" y="721" type="curve" smooth="yes"/>
      <point x="59" y="612" type="line" smooth="yes"/>
      <point x="50" y="604"/>
      <point x="45" y="593"/>
      <point x="45" y="575" type="curve" smooth="yes"/>
      <point x="45" y="-73" type="line" smooth="yes"/>
      <point x="45" y="-105"/>
      <point x="59" y="-119"/>
      <point x="91" y="-119" type="curve" smooth="yes"/>
    </contour>
    <contour>
      <point x="375" y="0" type="curve" smooth="yes"/>
      <point x="220" y="0" type="line" smooth="yes"/>
      <point x="195" y="0"/>
      <point x="184" y="11"/>
      <point x="184" y="36" type="curve" smooth="yes"/>
      <point x="184" y="684" type="line" smooth="yes"/>
      <point x="184" y="709"/>
      <point x="195" y="720"/>
      <point x="220" y="720" type="curve" smooth="yes"/>
      <point x="666" y="720" type="line" smooth="yes"/>
      <point x="691" y="720"/>
      <point x="702" y="709"/>
      <point x="702" y="684" type="curve" smooth="yes"/>
      <point x="702" y="565" type="line" smooth="yes"/>
      <point x="702" y="540"/>
      <point x="691" y="529"/>
      <point x="666" y="529" type="curve" smooth="yes"/>
      <point x="411" y="529" type="line"/>
      <point x="411" y="425" type="line"/>
      <point x="585" y="425" type="line" smooth="yes"/>
      <point x="610" y="425"/>
      <point x="621" y="414"/>
      <point x="621" y="389" type="curve" smooth="yes"/>
      <point x="621" y="269" type="line" smooth="yes"/>
      <point x="621" y="244"/>
      <point x="610" y="233"/>
      <point x="585" y="233" type="curve" smooth="yes"/>
      <point x="411" y="233" type="line"/>
      <point x="411" y="36" type="line" smooth="yes"/>
      <point x="411" y="11"/>
      <point x="400" y="0"/>
    </contour>
    <contour>
      <point x="293" y="90" type="line"/>
      <point x="303" y="90" type="line"/>
      <point x="303" y="324" type="line"/>
      <point x="531" y="324" type="line"/>
      <point x="531" y="334" type="line"/>
      <point x="303" y="334" type="line"/>
      <point x="303" y="620" type="line"/>
      <point x="612" y="620" type="line"/>
      <point x="612" y="630" type="line"/>
      <point x="293" y="630" type="line"/>
    </contour>
  </outline>
</glyph>
<glyph name="G" format="1">
  <advance width="808"/>
  <unicode hex="0047"/>
  <outline>
    <contour>
      <point x="605" y="-119" type="line" smooth="yes"/>
      <point x="619" y="-119"/>
      <point x="630" y="-115"/>
      <point x="636" y="-109" type="curve"/>
      <point x="766" y="-1" type="line" smooth="yes"/>
      <point x="775" y="7"/>
      <point x="780" y="18"/>
      <point x="780" y="36" type="curve" smooth="yes"/>
      <point x="780" y="345" type="line" smooth="yes"/>
      <point x="780" y="377"/>
      <point x="766" y="391"/>
      <point x="734" y="391" type="curve" smooth="yes"/>
      <point x="579" y="391" type="line" smooth="yes"/>
      <point x="565" y="391"/>
      <point x="554" y="388"/>
      <point x="547" y="382" type="curve" smooth="yes"/>
      <point x="418" y="273" type="line" smooth="yes"/>
      <point x="415" y="270"/>
      <point x="412" y="267"/>
      <point x="410" y="264" type="curve"/>
      <point x="410" y="408" type="line"/>
      <point x="540" y="408" type="line" smooth="yes"/>
      <point x="554" y="408"/>
      <point x="565" y="412"/>
      <point x="571" y="418" type="curve"/>
      <point x="701" y="526" type="line" smooth="yes"/>
      <point x="710" y="534"/>
      <point x="715" y="545"/>
      <point x="715" y="563" type="curve" smooth="yes"/>
      <point x="715" y="684" type="line" smooth="yes"/>
      <point x="715" y="716"/>
      <point x="701" y="730"/>
      <point x="669" y="730" type="curve" smooth="yes"/>
      <point x="419" y="730" type="line" smooth="yes"/>
      <point x="332" y="730"/>
      <point x="268" y="713"/>
      <point x="226" y="678" type="curve" smooth="yes"/>
      <point x="97" y="569" type="line" smooth="yes"/>
      <point x="55" y="533"/>
      <point x="34" y="481"/>
      <point x="34" y="407" type="curve" smooth="yes"/>
      <point x="34" y="105" type="line" smooth="yes"/>
      <point x="34" y="-40"/>
      <point x="124" y="-119"/>
      <point x="300" y="-119" type="curve" smooth="yes"/>
    </contour>
    <contour>
      <point x="734" y="0" type="curve" smooth="yes"/>
      <point x="419" y="0" type="line" smooth="yes"/>
      <point x="251" y="0"/>
      <point x="173" y="65"/>
      <point x="173" y="204" type="curve" smooth="yes"/>
      <point x="173" y="516" type="line" smooth="yes"/>
      <point x="173" y="655"/>
      <point x="251" y="720"/>
      <point x="419" y="720" type="curve" smooth="yes"/>
      <point x="669" y="720" type="line" smooth="yes"/>
      <point x="694" y="720"/>
      <point x="705" y="709"/>
      <point x="705" y="684" type="curve" smooth="yes"/>
      <point x="705" y="563" type="line" smooth="yes"/>
      <point x="705" y="538"/>
      <point x="694" y="527"/>
      <point x="669" y="527" type="curve" smooth="yes"/>
      <point x="461" y="527" type="line" smooth="yes"/>
      <point x="419" y="527"/>
      <point x="400" y="511"/>
      <point x="400" y="477" type="curve" smooth="yes"/>
      <point x="400" y="238" type="line" smooth="yes"/>
      <point x="400" y="204"/>
      <point x="415" y="189"/>
      <point x="446" y="189" type="curve" smooth="yes"/>
      <point x="543" y="189" type="line"/>
      <point x="543" y="345" type="line" smooth="yes"/>
      <point x="543" y="370"/>
      <point x="554" y="381"/>
      <point x="579" y="381" type="curve" smooth="yes"/>
      <point x="734" y="381" type="line" smooth="yes"/>
      <point x="759" y="381"/>
      <point x="770" y="370"/>
      <point x="770" y="345" type="curve" smooth="yes"/>
      <point x="770" y="36" type="line" smooth="yes"/>
      <point x="770" y="11"/>
      <point x="759" y="0"/>
    </contour>
    <contour>
      <point x="462" y="90" type="curve" smooth="yes"/>
      <point x="661" y="90" type="line"/>
      <point x="661" y="291" type="line"/>
      <point x="651" y="291" type="line"/>
      <point x="651" y="100" type="line"/>
      <point x="462" y="100" type="line" smooth="yes"/>
      <point x="327" y="100"/>
      <point x="292" y="132"/>
      <point x="292" y="219" type="curve" smooth="yes"/>
      <point x="292" y="499" type="line" smooth="yes"/>
      <point x="292" y="588"/>
      <point x="324" y="620"/>
      <point x="442" y="620" type="curve" smooth="yes"/>
      <point x="615" y="620" type="line"/>
      <point x="615" y="630" type="line"/>
      <point x="442" y="630" type="line" smooth="yes"/>
      <point x="314" y="630"/>
      <point x="282" y="594"/>
      <point x="282" y="499" type="curve" smooth="yes"/>
      <point x="282" y="219" type="line" smooth="yes"/>
      <point x="282" y="126"/>
      <point x="315" y="90"/>
    </contour>
  </outline>
</glyph>
<glyph name="H" format="1">
  <advance width="859"/>
  <unicode hex="0048"/>
  <outline>
    <contour>
      <point x="407" y="-1" type="line" smooth="yes"/>
      <point x="416" y="7"/>
      <point x="421" y="18"/>
      <point x="421" y="36" type="curve" smooth="yes"/>
      <point x="421" y="139" type="line"/>
      <point x="439" y="139" type="line"/>
      <point x="439" y="-73" type="line" smooth="yes"/>
      <point x="439" y="-105"/>
      <point x="453" y="-119"/>
      <point x="485" y="-119" type="curve" smooth="yes"/>
      <point x="640" y="-119" type="line" smooth="yes"/>
      <point x="654" y="-119"/>
      <point x="665" y="-115"/>
      <point x="671" y="-109" type="curve"/>
      <point x="801" y="-1" type="line" smooth="yes"/>
      <point x="810" y="7"/>
      <point x="815" y="18"/>
      <point x="815" y="36" type="curve" smooth="yes"/>
      <point x="815" y="684" type="line" smooth="yes"/>
      <point x="815" y="716"/>
      <point x="801" y="730"/>
      <point x="769" y="730" type="curve" smooth="yes"/>
      <point x="614" y="730" type="line" smooth="yes"/>
      <point x="600" y="730"/>
      <point x="589" y="727"/>
      <point x="582" y="721" type="curve" smooth="yes"/>
      <point x="453" y="612" type="line" smooth="yes"/>
      <point x="444" y="604"/>
      <point x="439" y="593"/>
      <point x="439" y="575" type="curve" smooth="yes"/>
      <point x="439" y="477" type="line"/>
      <point x="421" y="477" type="line"/>
      <point x="421" y="684" type="line" smooth="yes"/>
      <point x="421" y="716"/>
      <point x="407" y="730"/>
      <point x="375" y="730" type="curve" smooth="yes"/>
      <point x="220" y="730" type="line" smooth="yes"/>
      <point x="206" y="730"/>
      <point x="195" y="727"/>
      <point x="188" y="721" type="curve" smooth="yes"/>
      <point x="59" y="612" type="line" smooth="yes"/>
      <point x="50" y="604"/>
      <point x="45" y="593"/>
      <point x="45" y="575" type="curve" smooth="yes"/>
      <point x="45" y="-73" type="line" smooth="yes"/>
      <point x="45" y="-105"/>
      <point x="59" y="-119"/>
      <point x="91" y="-119" type="curve" smooth="yes"/>
      <point x="246" y="-119" type="line" smooth="yes"/>
      <point x="260" y="-119"/>
      <point x="271" y="-115"/>
      <point x="277" y="-109" type="curve"/>
    </contour>
    <contour>
      <point x="375" y="0" type="curve" smooth="yes"/>
      <point x="220" y="0" type="line" smooth="yes"/>
      <point x="195" y="0"/>
      <point x="184" y="11"/>
      <point x="184" y="36" type="curve" smooth="yes"/>
      <point x="184" y="684" type="line" smooth="yes"/>
      <point x="184" y="709"/>
      <point x="195" y="720"/>
      <point x="220" y="720" type="curve" smooth="yes"/>
      <point x="375" y="720" type="line" smooth="yes"/>
      <point x="400" y="720"/>
      <point x="411" y="709"/>
      <point x="411" y="684" type="curve" smooth="yes"/>
      <point x="411" y="467" type="line"/>
      <point x="578" y="467" type="line"/>
      <point x="578" y="684" type="line" smooth="yes"/>
      <point x="578" y="709"/>
      <point x="589" y="720"/>
      <point x="614" y="720" type="curve" smooth="yes"/>
      <point x="769" y="720" type="line" smooth="yes"/>
      <point x="794" y="720"/>
      <point x="805" y="709"/>
      <point x="805" y="684" type="curve" smooth="yes"/>
      <point x="805" y="36" type="line" smooth="yes"/>
      <point x="805" y="11"/>
      <point x="794" y="0"/>
      <point x="769" y="0" type="curve" smooth="yes"/>
      <point x="614" y="0" type="line" smooth="yes"/>
      <point x="589" y="0"/>
      <point x="578" y="11"/>
      <point x="578" y="36" type="curve" smooth="yes"/>
      <point x="578" y="258" type="line"/>
      <point x="411" y="258" type="line"/>
      <point x="411" y="36" type="line" smooth="yes"/>
      <point x="411" y="11"/>
      <point x="400" y="0"/>
    </contour>
    <contour>
      <point x="292" y="90" type="line"/>
      <point x="302" y="90" type="line"/>
      <point x="302" y="355" type="line"/>
      <point x="686" y="355" type="line"/>
      <point x="686" y="90" type="line"/>
      <point x="696" y="90" type="line"/>
      <point x="696" y="630" type="line"/>
      <point x="686" y="630" type="line"/>
      <point x="686" y="365" type="line"/>
      <point x="302" y="365" type="line"/>
      <point x="302" y="630" type="line"/>
      <point x="292" y="630" type="line"/>
    </contour>
  </outline>
</glyph>
<glyph name="I" format="1">
  <advance width="705"/>
  <unicode hex="0049"/>
  <outline>
    <contour>
      <point x="501" y="-119" type="line" smooth="yes"/>
      <point x="515" y="-119"/>
      <point x="526" y="-115"/>
      <point x="532" y="-109" type="curve"/>
      <point x="662" y="-1" type="line" smooth="yes"/>
      <point x="671" y="7"/>
      <point x="676" y="18"/>
      <point x="676" y="36" type="curve" smooth="yes"/>
      <point x="676" y="155" type="line" smooth="yes"/>
      <point x="676" y="187"/>
      <point x="662" y="201"/>
      <point x="630" y="201" type="curve" smooth="yes"/>
      <point x="543" y="201" type="line"/>
      <point x="543" y="426" type="line"/>
      <point x="662" y="526" type="line" smooth="yes"/>
      <point x="671" y="534"/>
      <point x="676" y="545"/>
      <point x="676" y="563" type="curve" smooth="yes"/>
      <point x="676" y="684" type="line" smooth="yes"/>
      <point x="676" y="716"/>
      <point x="662" y="730"/>
      <point x="630" y="730" type="curve" smooth="yes"/>
      <point x="204" y="730" type="line" smooth="yes"/>
      <point x="190" y="730"/>
      <point x="179" y="727"/>
      <point x="172" y="721" type="curve" smooth="yes"/>
      <point x="43" y="612" type="line" smooth="yes"/>
      <point x="34" y="604"/>
      <point x="29" y="593"/>
      <point x="29" y="575" type="curve" smooth="yes"/>
      <point x="29" y="454" type="line" smooth="yes"/>
      <point x="29" y="422"/>
      <point x="43" y="408"/>
      <point x="75" y="408" type="curve" smooth="yes"/>
      <point x="164" y="408" type="line"/>
      <point x="164" y="185" type="line"/>
      <point x="43" y="83" type="line" smooth="yes"/>
      <point x="34" y="75"/>
      <point x="29" y="64"/>
      <point x="29" y="46" type="curve" smooth="yes"/>
      <point x="29" y="-73" type="line" smooth="yes"/>
      <point x="29" y="-105"/>
      <point x="43" y="-119"/>
      <point x="75" y="-119" type="curve" smooth="yes"/>
    </contour>
    <contour>
      <point x="204" y="0" type="line" smooth="yes"/>
      <point x="179" y="0"/>
      <point x="168" y="11"/>
      <point x="168" y="36" type="curve" smooth="yes"/>
      <point x="168" y="155" type="line" smooth="yes"/>
      <point x="168" y="180"/>
      <point x="179" y="191"/>
      <point x="204" y="191" type="curve" smooth="yes"/>
      <point x="303" y="191" type="line"/>
      <point x="303" y="527" type="line"/>
      <point x="204" y="527" type="line" smooth="yes"/>
      <point x="179" y="527"/>
      <point x="168" y="538"/>
      <point x="168" y="563" type="curve" smooth="yes"/>
      <point x="168" y="684" type="line" smooth="yes"/>
      <point x="168" y="709"/>
      <point x="179" y="720"/>
      <point x="204" y="720" type="curve" smooth="yes"/>
      <point x="630" y="720" type="line" smooth="yes"/>
      <point x="655" y="720"/>
      <point x="666" y="709"/>
      <point x="666" y="684" type="curve" smooth="yes"/>
      <point x="666" y="563" type="line" smooth="yes"/>
      <point x="666" y="538"/>
      <point x="655" y="527"/>
      <point x="630" y="527" type="curve" smooth="yes"/>
      <point x="533" y="527" type="line"/>
      <point x="533" y="191" type="line"/>
      <point x="630" y="191" type="line" smooth="yes"/>
      <point x="655" y="191"/>
      <point x="666" y="180"/>
      <point x="666" y="155" type="curve" smooth="yes"/>
      <point x="666" y="36" type="line" smooth="yes"/>
      <point x="666" y="11"/>
      <point x="655" y="0"/>
      <point x="630" y="0" type="curve" smooth="yes"/>
    </contour>
    <contour>
      <point x="576" y="90" type="line"/>
      <point x="576" y="100" type="line"/>
      <point x="423" y="100" type="line"/>
      <point x="423" y="620" type="line"/>
      <point x="576" y="620" type="line"/>
      <point x="576" y="630" type="line"/>
      <point x="258" y="630" type="line"/>
      <point x="258" y="620" type="line"/>
      <point x="413" y="620" type="line"/>
      <point x="413" y="100" type="line"/>
      <point x="258" y="100" type="line"/>
      <point x="258" y="90" type="line"/>
    </contour>
  </outline>
</glyph>
<glyph name="J" format="1">
  <advance width="788"/>
  <unicode hex="004A"/>
  <outline>
    <contour>
      <point x="317" y="-134" type="curve" smooth="yes"/>
      <point x="440" y="-134"/>
      <point x="514" y="-112"/>
      <point x="559" y="-74" type="curve" smooth="yes"/>
      <point x="688" y="35" type="line" smooth="yes"/>
      <point x="734" y="72"/>
      <point x="749" y="126"/>
      <point x="749" y="189" type="curve" smooth="yes"/>
      <point x="749" y="684" type="line" smooth="yes"/>
      <point x="749" y="716"/>
      <point x="735" y="730"/>
      <point x="703" y="730" type="curve" smooth="yes"/>
      <point x="546" y="730" type="line" smooth="yes"/>
      <point x="532" y="730"/>
      <point x="521" y="727"/>
      <point x="514" y="721" type="curve" smooth="yes"/>
      <point x="385" y="612" type="line" smooth="yes"/>
      <point x="376" y="604"/>
      <point x="371" y="593"/>
      <point x="371" y="575" type="curve" smooth="yes"/>
      <point x="371" y="387" type="line"/>
      <point x="363" y="394"/>
      <point x="352" y="397"/>
      <point x="337" y="397" type="curve" smooth="yes"/>
      <point x="192" y="397" type="line" smooth="yes"/>
      <point x="177" y="397"/>
      <point x="167" y="394"/>
      <point x="160" y="388" type="curve" smooth="yes"/>
      <point x="30" y="279" type="line" smooth="yes"/>
      <point x="22" y="272"/>
      <point x="17" y="260"/>
      <point x="17" y="242" type="curve" smooth="yes"/>
      <point x="17" y="80" type="line" smooth="yes"/>
      <point x="17" y="-46"/>
      <point x="73" y="-134"/>
    </contour>
    <contour>
      <point x="739" y="189" type="line" smooth="yes"/>
      <point x="739" y="67"/>
      <point x="681" y="-15"/>
      <point x="446" y="-15" type="curve" smooth="yes"/>
      <point x="213" y="-15"/>
      <point x="156" y="67"/>
      <point x="156" y="189" type="curve" smooth="yes"/>
      <point x="156" y="351" type="line" smooth="yes"/>
      <point x="156" y="377"/>
      <point x="167" y="387"/>
      <point x="192" y="387" type="curve" smooth="yes"/>
      <point x="337" y="387" type="line" smooth="yes"/>
      <point x="362" y="387"/>
      <point x="373" y="377"/>
      <point x="373" y="351" type="curve" smooth="yes"/>
      <point x="373" y="229" type="line" smooth="yes"/>
      <point x="373" y="202"/>
      <point x="382" y="182"/>
      <point x="444" y="182" type="curve" smooth="yes"/>
      <point x="502" y="182"/>
      <point x="510" y="202"/>
      <point x="510" y="229" type="curve" smooth="yes"/>
      <point x="510" y="684" type="line" smooth="yes"/>
      <point x="510" y="709"/>
      <point x="521" y="720"/>
      <point x="546" y="720" type="curve" smooth="yes"/>
      <point x="703" y="720" type="line" smooth="yes"/>
      <point x="728" y="720"/>
      <point x="739" y="709"/>
      <point x="739" y="684" type="curve" smooth="yes"/>
    </contour>
    <contour>
      <point x="619" y="630" type="line"/>
      <point x="619" y="213" type="line" smooth="yes"/>
      <point x="619" y="138"/>
      <point x="580" y="88"/>
      <point x="448" y="88" type="curve" smooth="yes"/>
      <point x="310" y="88"/>
      <point x="270" y="137"/>
      <point x="270" y="213" type="curve" smooth="yes"/>
      <point x="270" y="292" type="line"/>
      <point x="260" y="292" type="line"/>
      <point x="260" y="213" type="line" smooth="yes"/>
      <point x="260" y="133"/>
      <point x="298" y="78"/>
      <point x="448" y="78" type="curve" smooth="yes"/>
      <point x="590" y="78"/>
      <point x="629" y="134"/>
      <point x="629" y="213" type="curve" smooth="yes"/>
      <point x="629" y="630" type="line"/>
    </contour>
  </outline>
</glyph>
<glyph name="K" format="1">
  <advance width="846"/>
  <unicode hex="004B"/>
  <outline>
    <contour>
      <point x="407" y="-1" type="line" smooth="yes"/>
      <point x="416" y="7"/>
      <point x="421" y="18"/>
      <point x="421" y="36" type="curve" smooth="yes"/>
      <point x="421" y="145" type="line"/>
      <point x="431" y="143"/>
      <point x="436" y="135"/>
      <point x="436" y="122" type="curve" smooth="yes"/>
      <point x="436" y="-73" type="line" smooth="yes"/>
      <point x="436" y="-105"/>
      <point x="450" y="-119"/>
      <point x="482" y="-119" type="curve" smooth="yes"/>
      <point x="636" y="-119" type="line" smooth="yes"/>
      <point x="650" y="-119"/>
      <point x="661" y="-115"/>
      <point x="667" y="-109" type="curve"/>
      <point x="797" y="-1" type="line" smooth="yes"/>
      <point x="806" y="7"/>
      <point x="811" y="18"/>
      <point x="811" y="36" type="curve" smooth="yes"/>
      <point x="811" y="318" type="line" smooth="yes"/>
      <point x="811" y="399"/>
      <point x="765" y="453"/>
      <point x="693" y="463" type="curve"/>
      <point x="789" y="683" type="line" smooth="yes"/>
      <point x="802" y="713"/>
      <point x="791" y="730"/>
      <point x="758" y="730" type="curve" smooth="yes"/>
      <point x="604" y="730" type="line" smooth="yes"/>
      <point x="586" y="730"/>
      <point x="573" y="726"/>
      <point x="563" y="718" type="curve" smooth="yes"/>
      <point x="434" y="609" type="line" smooth="yes"/>
      <point x="429" y="605"/>
      <point x="425" y="599"/>
      <point x="421" y="593" type="curve"/>
      <point x="421" y="684" type="line" smooth="yes"/>
      <point x="421" y="716"/>
      <point x="407" y="730"/>
      <point x="375" y="730" type="curve" smooth="yes"/>
      <point x="220" y="730" type="line" smooth="yes"/>
      <point x="206" y="730"/>
      <point x="195" y="727"/>
      <point x="188" y="721" type="curve" smooth="yes"/>
      <point x="59" y="612" type="line" smooth="yes"/>
      <point x="50" y="604"/>
      <point x="45" y="593"/>
      <point x="45" y="575" type="curve" smooth="yes"/>
      <point x="45" y="-73" type="line" smooth="yes"/>
      <point x="45" y="-105"/>
      <point x="59" y="-119"/>
      <point x="91" y="-119" type="curve" smooth="yes"/>
      <point x="246" y="-119" type="line" smooth="yes"/>
      <point x="260" y="-119"/>
      <point x="271" y="-115"/>
      <point x="277" y="-109" type="curve"/>
    </contour>
    <contour>
      <point x="375" y="0" type="curve" smooth="yes"/>
      <point x="220" y="0" type="line" smooth="yes"/>
      <point x="195" y="0"/>
      <point x="184" y="11"/>
      <point x="184" y="36" type="curve" smooth="yes"/>
      <point x="184" y="684" type="line" smooth="yes"/>
      <point x="184" y="709"/>
      <point x="195" y="720"/>
      <point x="220" y="720" type="curve" smooth="yes"/>
      <point x="375" y="720" type="line" smooth="yes"/>
      <point x="400" y="720"/>
      <point x="411" y="709"/>
      <point x="411" y="684" type="curve" smooth="yes"/>
      <point x="411" y="454" type="line"/>
      <point x="451" y="454" type="line"/>
      <point x="554" y="687" type="line" smooth="yes"/>
      <point x="564" y="711"/>
      <point x="578" y="720"/>
      <point x="604" y="720" type="curve" smooth="yes"/>
      <point x="758" y="720" type="line" smooth="yes"/>
      <point x="781" y="720"/>
      <point x="789" y="708"/>
      <point x="780" y="687" type="curve" smooth="yes"/>
      <point x="678" y="454" type="line"/>
      <point x="753" y="450"/>
      <point x="801" y="398"/>
      <point x="801" y="318" type="curve" smooth="yes"/>
      <point x="801" y="36" type="line" smooth="yes"/>
      <point x="801" y="11"/>
      <point x="790" y="0"/>
      <point x="765" y="0" type="curve" smooth="yes"/>
      <point x="611" y="0" type="line" smooth="yes"/>
      <point x="586" y="0"/>
      <point x="575" y="11"/>
      <point x="575" y="36" type="curve" smooth="yes"/>
      <point x="575" y="231" type="line" smooth="yes"/>
      <point x="575" y="253"/>
      <point x="564" y="265"/>
      <point x="543" y="265" type="curve" smooth="yes"/>
      <point x="411" y="265" type="line"/>
      <point x="411" y="36" type="line" smooth="yes"/>
      <point x="411" y="11"/>
      <point x="400" y="0"/>
    </contour>
    <contour>
      <point x="303" y="90" type="line"/>
      <point x="303" y="354" type="line"/>
      <point x="572" y="354" type="line" smooth="yes"/>
      <point x="646" y="354"/>
      <point x="683" y="330"/>
      <point x="683" y="266" type="curve" smooth="yes"/>
      <point x="683" y="90" type="line"/>
      <point x="693" y="90" type="line"/>
      <point x="693" y="266" type="line" smooth="yes"/>
      <point x="693" y="336"/>
      <point x="654" y="364"/>
      <point x="572" y="364" type="curve" smooth="yes"/>
      <point x="531" y="364" type="line"/>
      <point x="646" y="630" type="line"/>
      <point x="635" y="630" type="line"/>
      <point x="520" y="364" type="line"/>
      <point x="303" y="364" type="line"/>
      <point x="303" y="630" type="line"/>
      <point x="293" y="630" type="line"/>
      <point x="293" y="90" type="line"/>
    </contour>
  </outline>
</glyph>
<glyph name="L" format="1">
  <advance width="795"/>
  <unicode hex="004C"/>
  <outline>
    <contour>
      <point x="600" y="-119" type="line" smooth="yes"/>
      <point x="614" y="-119"/>
      <point x="625" y="-115"/>
      <point x="631" y="-109" type="curve"/>
      <point x="761" y="-1" type="line" smooth="yes"/>
      <point x="770" y="7"/>
      <point x="775" y="18"/>
      <point x="775" y="36" type="curve" smooth="yes"/>
      <point x="775" y="351" type="line" smooth="yes"/>
      <point x="775" y="383"/>
      <point x="761" y="397"/>
      <point x="729" y="397" type="curve" smooth="yes"/>
      <point x="584" y="397" type="line" smooth="yes"/>
      <point x="570" y="397"/>
      <point x="559" y="394"/>
      <point x="552" y="388" type="curve" smooth="yes"/>
      <point x="423" y="279" type="line" smooth="yes"/>
      <point x="421" y="277" type="line"/>
      <point x="421" y="684" type="line" smooth="yes"/>
      <point x="421" y="716"/>
      <point x="407" y="730"/>
      <point x="375" y="730" type="curve" smooth="yes"/>
      <point x="220" y="730" type="line" smooth="yes"/>
      <point x="206" y="730"/>
      <point x="195" y="727"/>
      <point x="188" y="721" type="curve" smooth="yes"/>
      <point x="59" y="612" type="line" smooth="yes"/>
      <point x="50" y="604"/>
      <point x="45" y="593"/>
      <point x="45" y="575" type="curve" smooth="yes"/>
      <point x="45" y="-73" type="line" smooth="yes"/>
      <point x="45" y="-105"/>
      <point x="59" y="-119"/>
      <point x="91" y="-119" type="curve" smooth="yes"/>
    </contour>
    <contour>
      <point x="729" y="0" type="curve" smooth="yes"/>
      <point x="220" y="0" type="line" smooth="yes"/>
      <point x="195" y="0"/>
      <point x="184" y="11"/>
      <point x="184" y="36" type="curve" smooth="yes"/>
      <point x="184" y="684" type="line" smooth="yes"/>
      <point x="184" y="709"/>
      <point x="195" y="720"/>
      <point x="220" y="720" type="curve" smooth="yes"/>
      <point x="375" y="720" type="line" smooth="yes"/>
      <point x="400" y="720"/>
      <point x="411" y="709"/>
      <point x="411" y="684" type="curve" smooth="yes"/>
      <point x="411" y="189" type="line"/>
      <point x="548" y="189" type="line"/>
      <point x="548" y="351" type="line" smooth="yes"/>
      <point x="548" y="376"/>
      <point x="559" y="387"/>
      <point x="584" y="387" type="curve" smooth="yes"/>
      <point x="729" y="387" type="line" smooth="yes"/>
      <point x="754" y="387"/>
      <point x="765" y="376"/>
      <point x="765" y="351" type="curve" smooth="yes"/>
      <point x="765" y="36" type="line" smooth="yes"/>
      <point x="765" y="11"/>
      <point x="754" y="0"/>
    </contour>
    <contour>
      <point x="293" y="90" type="line"/>
      <point x="661" y="90" type="line"/>
      <point x="661" y="297" type="line"/>
      <point x="651" y="297" type="line"/>
      <point x="651" y="100" type="line"/>
      <point x="303" y="100" type="line"/>
      <point x="303" y="630" type="line"/>
      <point x="293" y="630" type="line"/>
    </contour>
  </outline>
</glyph>
